<?xml version="1.0" encoding="UTF-8" standalone="no"?>
<svg
   xmlns:dc="http://purl.org/dc/elements/1.1/"
   xmlns:cc="http://creativecommons.org/ns#"
   xmlns:rdf="http://www.w3.org/1999/02/22-rdf-syntax-ns#"
   xmlns:svg="http://www.w3.org/2000/svg"
   xmlns="http://www.w3.org/2000/svg"
   viewBox="0 0 1104 288"
   height="288"
   width="1104"
   xml:space="preserve"
   id="svg2"
   version="1.1"><metadata
     id="metadata8"><rdf:RDF><cc:Work
         rdf:about=""><dc:format>image/svg+xml</dc:format><dc:type
           rdf:resource="http://purl.org/dc/dcmitype/StillImage" /></cc:Work></rdf:RDF></metadata><defs
     id="defs6" /><g
     transform="matrix(1.3333333,0,0,1.3333333,0,7.2e-6)"
     id="g10"><g
       id="g12"><path
         id="path14"
         style="fill:#006c35;fill-opacity:1;fill-rule:nonzero;stroke:none"
         d="m 114.992,22.84 c -0.543,0.008 -1.156,0.015 -1.652,0.039 -3.184,0.117 -6.356,0.449 -9.492,0.992 -0.125,0.024 -0.438,0.074 -0.633,0.113 -2.36,0.43 -4.699,0.985 -7.008,1.649 -0.195,0.058 -0.519,0.152 -0.762,0.222 -0.953,0.29 -1.898,0.598 -2.84,0.918 -0.164,0.059 -0.539,0.192 -0.699,0.247 -3.09,1.109 -6.101,2.421 -9.008,3.941 -0.168,0.09 -0.457,0.238 -0.668,0.352 -8.023,4.292 -15.171,10.175 -21.039,17.125 -7.515,8.882 -12.925,19.546 -15.562,30.886 -1.91,7.985 -2.516,16.293 -1.637,24.461 0.25,2.254 0.551,4.492 0.84,6.742 -4.297,4.649 -8.695,9.305 -11.879,14.817 -0.762,1.324 -1.449,2.691 -2.027,4.101 -0.043,0.114 -0.156,0.383 -0.223,0.559 -0.754,1.969 -1.281,4.035 -1.473,6.137 -0.011,0.109 -0.035,0.433 -0.042,0.625 -0.028,0.468 -0.032,0.937 -0.024,1.406 0.008,0.109 0.016,0.426 0.027,0.613 0.082,1.371 0.321,2.735 0.723,4.047 0.027,0.098 0.125,0.41 0.184,0.582 1.047,3.063 3.023,5.797 5.609,7.746 3.152,2.41 7.051,3.711 10.981,4.051 3.046,0.312 6.128,0.176 9.167,-0.164 0.153,-0.02 0.461,-0.059 0.668,-0.082 0.758,-0.094 1.481,-0.195 2.219,-0.305 1.738,-0.23 3.512,-0.726 5.266,-0.332 2.074,0.414 3.902,1.738 5.07,3.485 8.805,11.472 18.688,22.089 29.246,31.96 2.711,2.528 5.457,5.028 8.301,7.411 1.25,1.031 2.617,1.953 4.156,2.492 4.106,1.551 8.922,1.094 12.629,-1.266 1.824,-1.16 3.367,-2.691 5,-4.094 5.383,-4.753 10.621,-9.675 15.637,-14.82 1.141,-1.176 2.269,-2.359 3.391,-3.551 0.187,-0.199 0.457,-0.488 0.671,-0.718 4.731,-5.079 9.254,-10.352 13.524,-15.825 0.359,-0.468 0.777,-1.004 1.156,-1.5 1.426,-1.863 2.82,-3.746 4.172,-5.66 0.254,-0.355 0.562,-0.797 0.836,-1.187 1.117,-1.61 2.207,-3.239 3.266,-4.887 0.171,-0.281 0.41,-0.648 0.609,-0.965 0.426,-0.672 0.891,-1.43 1.328,-2.14 0.625,-1.036 1.273,-2.133 1.852,-3.145 5.097,-8.914 9.312,-18.43 11.527,-28.492 0.719,-3.266 1.23,-6.653 1.476,-9.942 0.141,-1.875 0.2,-3.757 0.176,-5.64 -0.004,-0.219 -0.008,-0.567 -0.015,-0.836 -0.012,-0.496 -0.032,-0.977 -0.051,-1.438 -0.102,-2.117 -0.293,-4.218 -0.485,-6.308 -0.093,-1.043 -0.191,-2.086 -0.285,-3.129 3.758,-4.133 7.633,-8.227 10.602,-12.985 2.176,-3.445 3.949,-7.246 4.48,-11.32 0.434,-3.226 0.047,-6.59 -1.332,-9.555 -1.519,-3.375 -4.183,-6.234 -7.484,-7.929 -3.496,-1.871 -7.492,-2.617 -11.43,-2.656 -0.633,-0.012 -1.265,-0.008 -1.898,0.007 -0.145,0.008 -0.445,0.016 -0.653,0.028 -4.39,0.191 -8.714,1.035 -13.011,1.906 -1.5,0.207 -3.047,-0.375 -4.114,-1.438 -3.476,-2.859 -7.117,-5.539 -11.027,-7.781 -0.902,-0.523 -1.82,-1.023 -2.746,-1.508 -0.137,-0.074 -0.41,-0.211 -0.598,-0.308 -7.031,-3.59 -14.66,-6.012 -22.484,-7.078 -0.152,-0.02 -0.504,-0.071 -0.664,-0.09 -2.594,-0.332 -5.207,-0.524 -7.82,-0.574 -0.629,-0.012 -1.36,-0.016 -2.024,-0.012 z m 368.602,32.086 c -6.656,0.109 -13.145,3.992 -16.301,9.871 -1.738,3.266 -2.398,7.066 -1.98,10.738 -1.028,-0.316 -2.235,-0.531 -3.696,-0.644 -1.476,-0.141 -9.57,-0.746 -11.054,-0.731 -0.657,0.028 -1.309,0.086 -1.965,0.156 -0.141,0.02 -0.457,0.051 -0.664,0.079 -1.922,0.226 -3.911,0.5 -5.875,0.418 -8.84,-0.043 -17.68,-0.012 -26.524,-0.024 -0.844,0 -1.687,0 -2.531,0 v 3.289 c -2.406,-1.246 -4.973,-2.195 -7.613,-2.781 -1.598,-0.375 -3.219,-0.645 -4.848,-0.832 -0.133,-0.012 -0.441,-0.051 -0.641,-0.07 -1.925,-0.188 -3.855,-0.258 -5.789,-0.223 -5.621,0.199 -11.254,1.492 -16.258,4.094 0,-1.157 0,-2.317 0,-3.477 H 345.84 c -2.524,-0.5 -5.11,-0.664 -7.68,-0.621 -5.14,0.145 -17.383,-0.078 -22.437,-0.078 -0.043,0.023 -0.067,0.058 -0.106,0.082 -1.082,-0.067 -2.168,-0.094 -3.25,-0.074 -2.597,0.136 -5.148,0.82 -7.762,0.699 -6.601,-0.004 -13.203,-0.004 -19.804,-0.008 -2.094,-3.016 -4.563,-5.773 -7.383,-8.129 -0.105,-0.086 -0.336,-0.281 -0.496,-0.406 -3.484,-2.836 -7.473,-5.043 -11.711,-6.527 -4.531,-1.606 -9.328,-2.43 -14.133,-2.489 -0.281,0 -0.73,0 -1.062,0.004 -6.5,0.039 -13,1.512 -18.832,4.399 -0.102,0.047 -0.414,0.207 -0.594,0.297 -5.067,2.593 -9.504,6.351 -13.008,10.828 -3.621,4.609 -6.285,9.964 -7.816,15.625 -0.055,0.214 -0.149,0.55 -0.211,0.816 -1.032,4.063 -1.547,8.246 -1.66,12.43 -0.004,0.133 -0.012,0.465 -0.016,0.672 -0.047,3.183 0.129,6.375 0.543,9.535 0.023,0.133 0.07,0.472 0.086,0.605 0.738,5.071 2.23,10.043 4.551,14.617 0.066,0.118 0.195,0.379 0.289,0.551 3.925,7.508 10.183,13.809 17.769,17.606 3.809,1.914 7.938,3.156 12.141,3.836 2.793,0.449 5.633,0.629 8.461,0.554 0.094,-0.004 0.414,-0.011 0.594,-0.019 0.253,-0.012 0.511,-0.024 0.718,-0.035 0.258,-0.016 0.43,-0.024 0.657,-0.039 6.453,-0.442 12.839,-2.278 18.421,-5.571 1.786,-1.043 3.477,-2.242 5.075,-3.554 v 8.347 c 10.738,0 21.472,-0.004 32.211,0 0.046,0.141 0.093,0.281 0.14,0.422 2.438,6.441 7.461,11.75 13.516,14.953 3.383,1.785 7.062,2.977 10.82,3.653 0.121,0.023 0.457,0.078 0.66,0.113 4.727,0.773 9.567,0.781 14.317,0.199 0.843,-0.105 1.679,-0.238 2.511,-0.391 0.141,-0.027 0.43,-0.082 0.629,-0.125 5.856,-1.164 11.559,-3.578 16.082,-7.535 3.571,-3.097 6.383,-7.09 7.969,-11.554 0.156,-0.438 0.305,-0.883 0.438,-1.329 2.562,1.122 5.293,1.868 8.062,2.231 2.309,0.332 4.652,0.426 6.981,0.293 0.105,-0.008 0.457,-0.031 0.656,-0.043 1.691,-0.117 3.367,-0.399 5.035,-0.695 1.723,-0.293 3.477,-0.161 5.219,-0.184 7.433,-0.012 14.867,-0.008 22.3,-0.008 18.704,0 37.411,0 56.114,0 6.996,0 13.988,-0.004 20.984,0 v -4.172 c 4.324,2.641 9.231,4.332 14.274,4.84 2.031,0.235 4.082,0.324 6.128,0.27 0.125,-0.004 0.403,-0.012 0.594,-0.02 1.699,-0.074 3.399,-0.254 5.078,-0.539 0.125,-0.023 0.426,-0.074 0.621,-0.113 2.329,-0.438 4.614,-1.098 6.805,-1.992 0.125,-0.055 0.426,-0.176 0.617,-0.262 6.461,-2.797 11.969,-7.852 15.094,-14.184 2.074,-4.148 3.168,-8.75 3.43,-13.371 0.219,-2.746 0.605,-5.48 0.683,-8.234 -0.191,-1.418 -0.418,-2.832 -0.507,-4.266 -0.012,-0.144 -0.04,-0.457 -0.055,-0.668 -0.063,-0.742 -0.141,-1.562 -0.203,-2.261 -0.278,-2.852 -0.672,-5.723 -1.602,-8.446 -0.07,-0.187 -0.172,-0.504 -0.262,-0.742 -2.589,-7.09 -7.945,-13.129 -14.687,-16.531 -5.031,-2.571 -10.684,-3.828 -16.32,-3.899 -0.262,-0.004 -0.688,-0.007 -1,-0.004 -0.149,0.004 -0.461,0.008 -0.672,0.012 -4.953,0.113 -9.899,1.16 -14.418,3.211 -0.121,0.055 -0.387,0.18 -0.563,0.266 -1.039,0.492 -2.047,1.047 -3.023,1.652 1.109,-3.437 1.254,-7.187 0.305,-10.68 -0.95,-3.589 -3.036,-6.882 -5.926,-9.226 -3.508,-2.903 -8.059,-4.574 -12.625,-4.457 z m 74.183,3.215 v 90.601 c 13.379,-0.004 26.762,-0.004 40.145,-0.004 1.879,-0.328 3.789,-0.144 5.683,-0.191 3.993,0.012 7.993,-0.051 11.985,0.098 0.98,0.109 1.969,0.109 2.957,0.101 0.152,-0.004 0.461,-0.008 0.672,-0.012 2.015,-0.039 4.031,0.008 6.047,-0.004 8.789,0.012 17.574,0.008 26.363,0.012 V 147.5 c 1.215,0.488 2.461,0.891 3.73,1.199 4.864,1.231 9.985,1.313 14.918,0.457 1.114,-0.176 2.223,-0.386 3.352,-0.398 1.75,-0.047 3.5,0.004 5.25,-0.02 2.816,0 5.633,0 8.449,0 v 18.731 h 35.774 V 151.07 c 3.339,-0.836 6.718,-1.5 10.07,-2.289 5.512,-1.238 10.621,-4.093 14.637,-8.054 1.945,1.902 4.156,3.531 6.566,4.789 4.855,2.574 10.332,3.82 15.801,4.089 0.547,0.036 1.094,0.047 1.64,0.067 0.098,0 0.454,0.008 0.59,0.008 6.106,0.074 12.301,-0.973 17.84,-3.61 5.039,-2.39 9.512,-6.129 12.399,-10.933 2.441,-4.004 3.718,-8.699 3.699,-13.387 0.015,-2.961 -0.016,-5.922 0,-8.883 v -2.23 L 804.539,95.59 c -2.004,-8.012 -7.879,-14.887 -15.383,-18.289 -4.203,-1.922 -8.808,-2.848 -13.414,-3.074 -0.129,-0.004 -0.418,-0.016 -0.609,-0.024 -1.344,-0.047 -2.692,-0.07 -4.039,-0.012 -0.492,0.024 -0.981,0.055 -1.469,0.09 -0.125,0.012 -0.437,0.035 -0.59,0.051 -5.164,0.481 -10.289,1.906 -14.808,4.484 -0.114,0.063 -0.399,0.231 -0.575,0.34 -1.98,1.192 -3.812,2.645 -5.433,4.301 -1.84,-1.898 -3.91,-3.57 -6.196,-4.91 -4.976,-2.961 -10.781,-4.488 -16.566,-4.402 -2.969,0.003 -5.887,0.765 -8.859,0.66 -9.758,-0.024 -19.516,-0.012 -29.27,-0.016 v 3.274 c -2.012,-1.036 -4.129,-1.86 -6.308,-2.446 -3.954,-1.074 -8.067,-1.484 -12.157,-1.449 -5.633,0.137 -11.285,1.355 -16.336,3.895 -0.093,0.054 -0.367,0.187 -0.535,0.277 -0.125,0.062 -0.242,0.137 -0.363,0.207 V 58.141 h -34.813 c -4.039,9.851 -8.078,19.703 -12.113,29.554 -4.039,-9.851 -8.078,-19.703 -12.117,-29.554 z" /><path
         id="path16"
         style="fill:#ffffff;fill-opacity:1;fill-rule:evenodd;stroke:none"
         d="m 176.055,96.84 c 0,40.199 -49.407,83.414 -58.739,91.219 -0.878,0.73 -2.14,0.722 -3.011,-0.02 -5.934,-5.062 -28.215,-24.82 -43.567,-48.652 -15.39,4.855 -26.277,5.539 -28.961,0.89 -4.504,-7.797 15.528,-28.086 46.629,-48.464 22.813,7.484 36.828,-9.196 46.555,-20.778 2.914,-3.465 5.441,-6.476 7.707,-8.242 0.875,-0.684 0.891,-2.395 -0.117,-2.848 -29.524,-13.312 -56.399,-4.543 -59.297,19.715 -0.121,0.992 0.98,1.629 1.824,1.09 11.348,-7.242 24.371,-12.586 34.188,-15.109 1.386,-0.356 1.707,1.035 0.371,1.558 -9.289,3.649 -18.59,8.66 -26.922,13.844 -0.047,0 -0.094,0.012 -0.137,0.035 -14.473,8.61 -26.859,17.555 -36.023,25.762 -0.649,-3.352 -1,-6.692 -1,-10 0,-34.246 26.976,-62.012 60.25,-62.012 17.929,0 34.031,8.063 45.07,20.86 15.391,-4.86 26.277,-5.54 28.961,-0.895 3.605,6.246 -8.531,20.512 -29.488,36.41 -5.043,3.992 -11.024,8.223 -17.723,12.496 -22.473,-7.015 -36.332,9.481 -45.977,20.965 -2.914,3.465 -5.441,6.477 -7.707,8.242 -0.875,0.684 -0.89,2.395 0.118,2.848 29.523,13.312 56.398,4.543 59.296,-19.715 0.122,-0.992 -0.98,-1.629 -1.824,-1.09 -11.347,7.242 -24.371,12.586 -34.187,15.106 -1.387,0.359 -1.707,-1.032 -0.371,-1.555 9.3,-3.652 18.613,-8.676 26.953,-13.863 0.035,-0.004 0.074,-0.016 0.105,-0.035 14.715,-8.754 27.27,-17.852 36.473,-26.168 0.363,2.75 0.551,5.554 0.551,8.406 z m -4.637,-23.899 c 4.859,-4.988 7.094,-8.851 5.898,-10.921 -1.168,-2.02 -5.461,-2.063 -11.957,-0.461 2.387,3.543 4.422,7.355 6.059,11.382 z M 61.039,121.273 c -5.441,5.403 -8.004,9.59 -6.746,11.774 1.215,2.101 5.809,2.066 12.746,0.266 -2.262,-3.946 -4.297,-7.973 -6,-12.04 z" /><path
         id="path18"
         style="fill:#ffffff;fill-opacity:1;fill-rule:nonzero;stroke:none"
         d="m 281.047,103.441 c 0,7.176 -1.344,13.321 -4.031,18.438 -2.668,5.094 -6.309,8.996 -10.926,11.707 -4.598,2.707 -9.809,4.062 -15.641,4.062 -5.832,0 -11.054,-1.355 -15.676,-4.062 -4.593,-2.734 -8.234,-6.645 -10.925,-11.742 -2.664,-5.114 -3.996,-11.25 -3.996,-18.403 0,-7.175 1.332,-13.312 3.996,-18.406 2.691,-5.117 6.332,-9.027 10.925,-11.738 4.622,-2.711 9.844,-4.067 15.676,-4.067 5.832,0 11.043,1.356 15.641,4.067 4.617,2.711 8.258,6.621 10.926,11.738 2.687,5.094 4.031,11.231 4.031,18.406 z m -12.129,0 c 0,-5.05 -0.789,-9.312 -2.371,-12.781 -1.563,-3.488 -3.731,-6.125 -6.504,-7.902 -2.777,-1.797 -5.973,-2.699 -9.594,-2.699 -3.621,0 -6.816,0.902 -9.594,2.699 -2.773,1.777 -4.953,4.414 -6.535,7.902 -1.562,3.469 -2.34,7.731 -2.34,12.781 0,5.051 0.778,9.321 2.34,12.813 1.582,3.469 3.762,6.101 6.535,7.898 2.778,1.782 5.973,2.668 9.594,2.668 3.621,0 6.817,-0.886 9.594,-2.668 2.773,-1.797 4.941,-4.429 6.504,-7.898 1.582,-3.492 2.371,-7.762 2.371,-12.813 z" /><path
         id="path20"
         style="fill:#ffffff;fill-opacity:1;fill-rule:nonzero;stroke:none"
         d="M 289.188,136.738 V 86.793 h 11.414 v 8.324 h 0.519 c 0.91,-2.883 2.469,-5.105 4.68,-6.668 2.234,-1.582 4.781,-2.375 7.644,-2.375 0.649,0 1.375,0.035 2.176,0.098 0.824,0.047 1.508,0.121 2.051,0.23 V 97.23 c -0.5,-0.175 -1.289,-0.324 -2.375,-0.457 -1.063,-0.152 -2.09,-0.226 -3.09,-0.226 -2.144,0 -4.074,0.465 -5.785,1.398 -1.692,0.91 -3.027,2.18 -4,3.805 -0.977,1.625 -1.465,3.5 -1.465,5.625 v 29.363 z" /><path
         id="path22"
         style="fill:#ffffff;fill-opacity:1;fill-rule:nonzero;stroke:none"
         d="m 342.41,156.508 c -4.226,0 -7.859,-0.574 -10.894,-1.723 -3.036,-1.125 -5.473,-2.644 -7.317,-4.551 -1.844,-1.91 -3.121,-4.023 -3.836,-6.343 l 10.602,-2.567 c 0.476,0.977 1.168,1.938 2.078,2.895 0.914,0.972 2.137,1.777 3.676,2.406 1.562,0.648 3.523,0.973 5.886,0.973 3.34,0 6.102,-0.813 8.293,-2.438 2.188,-1.605 3.282,-4.25 3.282,-7.933 v -9.461 h -0.582 c -0.61,1.211 -1.496,2.457 -2.668,3.738 -1.149,1.277 -2.676,2.351 -4.586,3.219 -1.887,0.867 -4.258,1.3 -7.121,1.3 -3.836,0 -7.317,-0.898 -10.438,-2.699 -3.101,-1.82 -5.57,-4.531 -7.414,-8.129 -1.82,-3.621 -2.73,-8.152 -2.73,-13.593 0,-5.485 0.91,-10.114 2.73,-13.883 1.844,-3.797 4.324,-6.668 7.445,-8.617 3.122,-1.973 6.602,-2.961 10.438,-2.961 2.93,0 5.336,0.5 7.223,1.496 1.906,0.976 3.421,2.156 4.55,3.543 1.125,1.367 1.985,2.656 2.571,3.871 h 0.648 v -8.258 h 11.609 v 50.758 c 0,4.269 -1.019,7.804 -3.058,10.601 -2.035,2.797 -4.82,4.887 -8.356,6.278 -3.535,1.386 -7.543,2.078 -12.031,2.078 z m 0.098,-29.719 c 2.492,0 4.617,-0.609 6.371,-1.82 1.758,-1.215 3.09,-2.961 4,-5.239 0.914,-2.273 1.367,-5.007 1.367,-8.191 0,-3.144 -0.453,-5.898 -1.367,-8.262 -0.887,-2.363 -2.211,-4.195 -3.965,-5.496 -1.734,-1.32 -3.871,-1.98 -6.406,-1.98 -2.625,0 -4.813,0.679 -6.57,2.047 -1.754,1.367 -3.079,3.242 -3.965,5.625 -0.891,2.363 -1.336,5.05 -1.336,8.066 0,3.055 0.445,5.731 1.336,8.031 0.91,2.274 2.242,4.051 4,5.332 1.777,1.258 3.957,1.887 6.535,1.887 z" /><path
         id="path24"
         style="fill:#ffffff;fill-opacity:1;fill-rule:nonzero;stroke:none"
         d="m 389.543,137.746 c -3.164,0 -6.016,-0.562 -8.551,-1.691 -2.515,-1.149 -4.508,-2.84 -5.984,-5.071 -1.449,-2.234 -2.176,-4.988 -2.176,-8.261 0,-2.817 0.52,-5.149 1.559,-6.993 1.043,-1.839 2.461,-3.316 4.261,-4.421 1.797,-1.106 3.825,-1.938 6.078,-2.504 2.278,-0.586 4.629,-1.008 7.059,-1.266 2.926,-0.305 5.301,-0.574 7.121,-0.816 1.82,-0.258 3.145,-0.649 3.969,-1.168 0.844,-0.543 1.266,-1.379 1.266,-2.504 v -0.196 c 0,-2.449 -0.727,-4.347 -2.18,-5.691 -1.449,-1.344 -3.543,-2.016 -6.274,-2.016 -2.882,0 -5.171,0.629 -6.863,1.887 -1.668,1.258 -2.797,2.742 -3.379,4.453 L 374.457,99.93 c 0.867,-3.035 2.297,-5.575 4.293,-7.61 1.992,-2.058 4.434,-3.597 7.316,-4.617 2.883,-1.043 6.071,-1.562 9.559,-1.562 2.406,0 4.801,0.281 7.188,0.847 2.382,0.563 4.562,1.496 6.535,2.793 1.972,1.282 3.554,3.028 4.746,5.239 1.215,2.21 1.824,4.972 1.824,8.289 v 33.429 h -11.316 v -6.859 h -0.391 c -0.715,1.387 -1.723,2.687 -3.023,3.898 -1.282,1.196 -2.895,2.161 -4.848,2.895 -1.93,0.719 -4.195,1.074 -6.797,1.074 z m 3.059,-8.648 c 2.363,0 4.41,-0.469 6.144,-1.399 1.734,-0.953 3.07,-2.211 4,-3.773 0.953,-1.559 1.43,-3.262 1.43,-5.106 v -5.886 c -0.367,0.304 -0.996,0.586 -1.883,0.847 -0.867,0.258 -1.844,0.489 -2.93,0.684 -1.082,0.195 -2.156,0.367 -3.218,0.519 -1.063,0.153 -1.981,0.282 -2.762,0.391 -1.758,0.238 -3.328,0.629 -4.715,1.168 -1.387,0.543 -2.484,1.305 -3.285,2.277 -0.801,0.953 -1.203,2.192 -1.203,3.707 0,2.168 0.789,3.805 2.375,4.911 1.582,1.105 3.597,1.66 6.047,1.66 z" /><path
         id="path26"
         style="fill:#ffffff;fill-opacity:1;fill-rule:nonzero;stroke:none"
         d="m 436.777,107.473 v 29.265 H 425.004 V 86.793 h 11.254 v 8.484 h 0.582 c 1.152,-2.797 2.984,-5.015 5.5,-6.664 2.535,-1.648 5.664,-2.472 9.394,-2.472 3.45,0 6.45,0.738 9.008,2.211 2.578,1.476 4.574,3.609 5.985,6.406 1.429,2.797 2.132,6.187 2.113,10.18 v 31.8 h -11.77 v -29.98 c 0,-3.34 -0.867,-5.953 -2.601,-7.836 -1.715,-1.887 -4.086,-2.832 -7.125,-2.832 -2.055,0 -3.891,0.457 -5.492,1.367 -1.586,0.891 -2.832,2.18 -3.743,3.871 -0.886,1.692 -1.332,3.738 -1.332,6.145 z" /><path
         id="path28"
         style="fill:#ffffff;fill-opacity:1;fill-rule:nonzero;stroke:none"
         d="M 478.059,136.738 V 86.793 h 11.773 v 49.945 z m 5.918,-57.035 c -1.864,0 -3.469,-0.617 -4.813,-1.855 -1.344,-1.258 -2.016,-2.762 -2.016,-4.52 0,-1.777 0.672,-3.285 2.016,-4.519 1.344,-1.258 2.949,-1.887 4.813,-1.887 1.886,0 3.492,0.629 4.812,1.887 1.348,1.234 2.02,2.742 2.02,4.519 0,1.758 -0.672,3.262 -2.02,4.52 -1.32,1.238 -2.926,1.855 -4.812,1.855 z" /><path
         id="path30"
         style="fill:#ffffff;fill-opacity:1;fill-rule:nonzero;stroke:none"
         d="m 520.973,137.715 c -4.985,0 -9.266,-1.098 -12.844,-3.285 -3.555,-2.192 -6.297,-5.215 -8.227,-9.075 -1.906,-3.878 -2.859,-8.343 -2.859,-13.394 0,-5.074 0.973,-9.551 2.926,-13.43 1.949,-3.902 4.707,-6.937 8.258,-9.105 3.578,-2.192 7.804,-3.285 12.683,-3.285 4.055,0 7.641,0.75 10.762,2.246 3.144,1.472 5.648,3.562 7.512,6.273 1.867,2.688 2.925,5.832 3.187,9.43 h -11.25 c -0.457,-2.406 -1.539,-4.41 -3.254,-6.016 -1.687,-1.625 -3.957,-2.437 -6.793,-2.437 -2.406,0 -4.519,0.648 -6.344,1.949 -1.82,1.281 -3.242,3.121 -4.257,5.527 -0.996,2.41 -1.496,5.293 -1.496,8.653 0,3.402 0.5,6.328 1.496,8.777 0.996,2.43 2.394,4.305 4.191,5.629 1.824,1.301 3.957,1.949 6.41,1.949 1.735,0 3.281,-0.324 4.649,-0.976 1.386,-0.672 2.547,-1.637 3.476,-2.895 0.938,-1.254 1.574,-2.785 1.922,-4.582 h 11.25 c -0.281,3.531 -1.32,6.664 -3.121,9.395 -1.801,2.71 -4.246,4.835 -7.352,6.375 -3.097,1.515 -6.742,2.277 -10.925,2.277 z" /><path
         id="path32"
         style="fill:#ffffff;fill-opacity:1;fill-rule:nonzero;stroke:none"
         d="m 569.777,70.141 h 14.762 l 19.774,48.257 h 0.777 l 19.773,-48.257 h 14.762 v 66.597 H 628.051 V 90.984 h -0.621 l -18.407,45.559 h -8.648 L 581.973,90.887 h -0.621 v 45.851 h -11.575 z" /><path
         id="path34"
         style="fill:#ffffff;fill-opacity:1;fill-rule:nonzero;stroke:none"
         d="m 663.867,137.746 c -3.164,0 -6.015,-0.562 -8.554,-1.691 -2.512,-1.149 -4.508,-2.84 -5.981,-5.071 -1.453,-2.234 -2.18,-4.988 -2.18,-8.261 0,-2.817 0.52,-5.149 1.563,-6.993 1.039,-1.839 2.457,-3.316 4.258,-4.421 1.8,-1.106 3.828,-1.938 6.082,-2.504 2.277,-0.586 4.629,-1.008 7.058,-1.266 2.926,-0.305 5.297,-0.574 7.117,-0.816 1.825,-0.258 3.145,-0.649 3.969,-1.168 0.848,-0.543 1.27,-1.379 1.27,-2.504 v -0.196 c 0,-2.449 -0.727,-4.347 -2.18,-5.691 -1.453,-1.344 -3.547,-2.016 -6.273,-2.016 -2.883,0 -5.172,0.629 -6.864,1.887 -1.668,1.258 -2.797,2.742 -3.382,4.453 L 648.777,99.93 c 0.871,-3.035 2.301,-5.575 4.297,-7.61 1.989,-2.058 4.43,-3.597 7.313,-4.617 2.886,-1.043 6.07,-1.562 9.562,-1.562 2.406,0 4.801,0.281 7.184,0.847 2.387,0.563 4.566,1.496 6.535,2.793 1.973,1.282 3.559,3.028 4.75,5.239 1.215,2.21 1.82,4.972 1.82,8.289 v 33.429 h -11.316 v -6.859 h -0.387 c -0.715,1.387 -1.726,2.687 -3.027,3.898 -1.281,1.196 -2.895,2.161 -4.844,2.895 -1.93,0.719 -4.195,1.074 -6.797,1.074 z m 3.055,-8.648 c 2.367,0 4.414,-0.469 6.148,-1.399 1.735,-0.953 3.067,-2.211 4,-3.773 0.953,-1.559 1.43,-3.262 1.43,-5.106 v -5.886 c -0.371,0.304 -0.996,0.586 -1.883,0.847 -0.871,0.258 -1.847,0.489 -2.929,0.684 -1.086,0.195 -2.161,0.367 -3.219,0.519 -1.063,0.153 -1.985,0.282 -2.766,0.391 -1.754,0.238 -3.328,0.629 -4.711,1.168 -1.39,0.543 -2.484,1.305 -3.289,2.277 -0.797,0.953 -1.203,2.192 -1.203,3.707 0,2.168 0.793,3.805 2.375,4.911 1.582,1.105 3.602,1.66 6.047,1.66 z" /><path
         id="path36"
         style="fill:#ffffff;fill-opacity:1;fill-rule:nonzero;stroke:none"
         d="M 699.328,155.469 V 86.793 h 11.574 v 8.258 h 0.684 c 0.609,-1.215 1.465,-2.504 2.57,-3.871 1.106,-1.387 2.602,-2.567 4.489,-3.543 1.882,-0.996 4.289,-1.496 7.214,-1.496 3.86,0 7.34,0.988 10.442,2.961 3.121,1.949 5.59,4.843 7.414,8.679 1.84,3.817 2.762,8.5 2.762,14.051 0,5.481 -0.899,10.145 -2.696,13.981 -1.801,3.835 -4.25,6.761 -7.351,8.781 -3.098,2.015 -6.61,3.023 -10.535,3.023 -2.864,0 -5.235,-0.476 -7.122,-1.433 -1.886,-0.954 -3.402,-2.102 -4.554,-3.446 -1.125,-1.363 -2,-2.656 -2.633,-3.867 h -0.488 v 26.598 z m 11.543,-43.703 c 0,3.23 0.453,6.058 1.367,8.484 0.934,2.43 2.266,4.328 4,5.691 1.754,1.344 3.879,2.016 6.375,2.016 2.598,0 4.778,-0.691 6.535,-2.078 1.754,-1.41 3.075,-3.328 3.969,-5.758 0.91,-2.449 1.363,-5.234 1.363,-8.355 0,-3.102 -0.445,-5.856 -1.335,-8.262 -0.887,-2.406 -2.211,-4.289 -3.965,-5.656 -1.758,-1.368 -3.946,-2.047 -6.567,-2.047 -2.519,0 -4.652,0.66 -6.41,1.98 -1.758,1.324 -3.086,3.176 -3.996,5.563 -0.891,2.383 -1.336,5.191 -1.336,8.422 z" /><path
         id="path38"
         style="fill:#ffffff;fill-opacity:1;fill-rule:nonzero;stroke:none"
         d="m 793.285,99.992 -10.726,1.172 c -0.305,-1.082 -0.836,-2.101 -1.594,-3.055 -0.738,-0.957 -1.735,-1.726 -2.992,-2.308 -1.258,-0.586 -2.797,-0.879 -4.618,-0.879 -2.449,0 -4.511,0.531 -6.179,1.594 -1.645,1.062 -2.461,2.437 -2.438,4.129 -0.023,1.453 0.508,2.632 1.594,3.543 1.106,0.91 2.926,1.66 5.461,2.246 l 8.52,1.82 c 4.726,1.019 8.238,2.633 10.535,4.844 2.32,2.211 3.492,5.105 3.515,8.683 -0.023,3.145 -0.945,5.918 -2.765,8.324 -1.797,2.383 -4.305,4.25 -7.512,5.594 -3.207,1.344 -6.895,2.016 -11.055,2.016 -6.113,0 -11.039,-1.281 -14.761,-3.84 -3.731,-2.578 -5.954,-6.164 -6.668,-10.762 l 11.476,-1.105 c 0.524,2.254 1.625,3.957 3.317,5.105 1.691,1.149 3.89,1.723 6.601,1.723 2.797,0 5.039,-0.574 6.731,-1.723 1.714,-1.148 2.57,-2.57 2.57,-4.261 0,-1.43 -0.551,-2.61 -1.656,-3.543 -1.086,-0.93 -2.778,-1.649 -5.075,-2.145 l -8.519,-1.789 c -4.793,-0.996 -8.336,-2.68 -10.637,-5.039 -2.293,-2.387 -3.43,-5.398 -3.41,-9.043 -0.02,-3.078 0.813,-5.742 2.504,-8 1.711,-2.273 4.086,-4.031 7.121,-5.266 3.055,-1.257 6.578,-1.886 10.566,-1.886 5.856,0 10.461,1.246 13.821,3.738 3.383,2.496 5.476,5.867 6.273,10.113 z" /><g
         id="g40"><path
           id="path42"
           style="fill:none;stroke:#ff0000;stroke-width:0.75;stroke-linecap:butt;stroke-linejoin:miter;stroke-miterlimit:4;stroke-dasharray:none;stroke-opacity:1"
           d="M 114.867,25.844 C 102.895,26.027 90.996,29.445 80.734,35.617 65.738,44.641 54.422,59.5 49.535,76.285 c -2.57,8.793 -3.555,18.082 -2.551,27.203 0.286,2.688 0.672,5.364 1,8.047 -4.011,4.371 -8.183,8.656 -11.418,13.656 -1.89,2.957 -3.492,6.176 -4.128,9.653 -0.575,3.062 -0.25,6.328 1.14,9.133 1.149,2.367 3.02,4.355 5.277,5.703 2.743,1.675 5.95,2.457 9.137,2.629 4.039,0.289 8.071,-0.266 12.051,-0.883 1.508,-0.281 3.07,-0.344 4.578,-0.031 2.649,0.519 4.996,2.14 6.621,4.269 1.446,1.961 2.985,3.856 4.52,5.75 9.051,11.082 19.09,21.344 29.769,30.863 1.5,1.293 2.942,2.672 4.606,3.762 3.929,2.391 9.332,1.941 12.847,-1.012 1.965,-1.586 3.801,-3.312 5.696,-4.972 12.062,-10.821 23.242,-22.66 32.976,-35.629 6.285,-8.395 11.883,-17.356 16.176,-26.942 3.719,-8.324 6.367,-17.207 7.031,-26.332 0.274,-3.562 0.203,-7.152 -0.121,-10.711 -0.199,-2.453 -0.433,-4.902 -0.652,-7.355 3.953,-4.379 8.109,-8.637 11.25,-13.668 1.918,-3.074 3.512,-6.457 3.973,-10.086 0.406,-3.113 -0.137,-6.383 -1.754,-9.094 -1.536,-2.625 -3.957,-4.703 -6.77,-5.851 -3.476,-1.5 -7.336,-1.832 -11.082,-1.668 -4.355,0.176 -8.629,1.066 -12.898,1.883 -2.414,0.336 -4.903,-0.629 -6.633,-2.317 -4.266,-3.5 -8.836,-6.668 -13.781,-9.133 -7.899,-4.004 -16.586,-6.437 -25.418,-7.105 -2.032,-0.16 -4.071,-0.219 -6.11,-0.203 z m 368.875,32.082 c -5.703,0.078 -11.273,3.418 -13.91,8.496 -1.789,3.469 -1.18,6.726 -1.246,10.887 -0.016,1.242 0.078,2.382 -0.441,3 -8.961,-3.774 -17.2,-2.356 -26.329,-2.493 -5.199,-0.023 -10.398,-0.027 -15.597,-0.027 -3.403,0 -8.321,-0.434 -9.485,0.863 -1.164,1.297 -0.129,4.11 -0.816,4.625 -0.691,0.516 -4.332,-3.746 -11.785,-5.187 -3.238,-0.703 -6.61,-0.973 -9.938,-0.918 -5.824,0.211 -11.679,1.66 -16.683,4.715 -0.93,0.566 -1.36,1.312 -2.192,0.019 -0.832,-1.293 -0.23,-2.82 -0.73,-3.586 -0.496,-0.761 -3.293,-0.531 -3.293,-0.531 -15.723,-0.023 -35.77,0.25 -44.227,0.27 -8.457,0.019 -10.843,0.394 -22.871,-0.262 -7.004,-0.004 -14.008,-0.004 -21.011,-0.004 -3.407,-5.344 -8.09,-9.895 -13.684,-12.895 -6.149,-3.312 -13.203,-4.832 -20.164,-4.648 -7.602,0.184 -15.199,2.457 -21.457,6.816 -6.121,4.286 -10.824,10.461 -13.617,17.372 -1.821,4.429 -2.778,9.175 -3.184,13.937 -0.332,3.996 -0.258,8.023 0.188,12.008 0.605,5.363 2.066,10.652 4.543,15.461 3.371,6.629 8.691,12.273 15.183,15.918 5.574,3.125 11.961,4.66 18.328,4.851 7.457,0.211 15.031,-1.535 21.465,-5.367 8.086,-5.355 7.93,-5.238 8.617,-4.508 0.688,0.731 0.778,9 0.778,9 h 29.781 c 0.144,0 0.625,0.004 0.984,0.067 0.36,0.058 0.727,0.351 1.625,2.871 2.281,5.547 6.707,10.086 11.996,12.847 5.188,2.707 11.067,3.875 16.887,3.957 5.27,0.075 10.602,-0.601 15.566,-2.429 3.918,-1.446 7.586,-3.649 10.524,-6.637 3.047,-3.074 5.285,-6.953 6.348,-11.156 0.226,-0.856 0.429,-1.688 1,-2.16 0.738,-0.618 2.394,0.433 6.96,1.453 7.368,1.887 14.629,1.242 22.09,1.191 6.989,0.004 13.981,0 20.969,-0.004 h 73.914 c 0,0 -0.234,-4.832 0.703,-5.445 0.938,-0.613 4.328,2.207 7.219,3.512 3.387,1.543 7.047,2.457 10.758,2.73 6.301,0.551 12.824,-0.324 18.535,-3.137 5.629,-2.789 10.32,-7.515 12.84,-13.285 1.562,-3.515 2.371,-7.332 2.605,-11.16 0.903,-6.465 0.461,-12.902 -0.683,-19.324 -0.422,-2.246 -1.137,-4.438 -2.149,-6.488 -2.918,-6.012 -8.105,-10.891 -14.304,-13.395 -4.395,-1.84 -9.184,-2.66 -13.938,-2.598 -6.074,0.067 -12.203,1.629 -17.351,4.915 -1.512,0.96 -3.11,1.64 -3.391,1.214 -0.281,-0.425 -0.234,-4.972 -0.234,-4.972 -0.149,-3.184 0.656,-7.879 -1.208,-11.641 -1.496,-3.117 -4.144,-5.609 -7.246,-7.105 -2.246,-1.094 -4.742,-1.68 -7.242,-1.633 z m 77.035,3.215 v 84.597 c 29.282,-0.183 58.567,-0.004 87.848,0 0,0 -0.141,-2.441 0.141,-2.601 0.285,-0.157 0.718,-0.004 1.16,0.242 7.23,3.68 15.699,2.723 23.515,2.391 2.024,-0.071 4.043,-0.004 6.067,-0.032 3.605,0 9.34,-0.3 10.09,0.399 0.75,0.699 0.73,3.98 0.73,3.98 v 14.352 h 29.77 v -12.125 c 0,0 -0.192,-3.012 0.672,-3.614 0.863,-0.605 3.75,-1.085 5.976,-1.585 1.641,-0.368 3.285,-0.731 4.926,-1.094 1.859,-0.406 3.699,-0.93 5.445,-1.688 4.164,-1.765 9.703,-7.496 10.496,-7.453 0.797,0.043 1.516,0.926 2.254,1.653 2.602,2.558 5.781,4.496 9.192,5.781 4.972,1.898 10.359,2.48 15.652,2.308 5.656,-0.207 11.348,-1.519 16.277,-4.359 4.516,-2.578 8.34,-6.5 10.438,-11.289 1.426,-3.238 2.035,-6.809 1.918,-10.34 0.789,-8.711 0.148,-16.187 -1.789,-24.609 -1.817,-6.957 -6.95,-12.891 -13.438,-15.93 -4.57,-2.129 -9.656,-2.93 -14.668,-2.961 -0.433,-0.004 -0.863,-0.004 -1.297,-0.004 -5.257,0.125 -10.543,1.231 -15.25,3.621 -3.394,1.715 -7.648,7.422 -8.664,7.278 -1.015,-0.149 -5.519,-5.844 -9.082,-7.676 -8.105,-3.68 -15.109,-2.43 -22.953,-2.578 -8.625,-0.012 -17.25,-0.016 -25.875,-0.016 0,0 0.063,5.813 -1.617,4.469 -1.684,-1.344 -5.785,-3.207 -9.984,-4.117 -3.164,-0.707 -6.414,-0.993 -9.653,-0.969 -4.578,0.078 -9.16,0.957 -13.386,2.734 -2.555,1.071 -5.372,2.953 -6.43,3.848 -1.059,0.891 -0.633,-22.613 -0.633,-22.613 h -29.797 c -4.711,11.488 -9.418,22.976 -14.125,34.464 -4.711,-11.488 -9.418,-22.976 -14.129,-34.464 z" /></g></g></g></svg>