<?xml version="1.0" encoding="UTF-8" standalone="no"?>
<svg
   xmlns:dc="http://purl.org/dc/elements/1.1/"
   xmlns:cc="http://creativecommons.org/ns#"
   xmlns:rdf="http://www.w3.org/1999/02/22-rdf-syntax-ns#"
   xmlns:svg="http://www.w3.org/2000/svg"
   xmlns="http://www.w3.org/2000/svg"
   viewBox="0 0 1104 288"
   height="288"
   width="1104"
   xml:space="preserve"
   id="svg2"
   version="1.1"><metadata
     id="metadata8"><rdf:RDF><cc:Work
         rdf:about=""><dc:format>image/svg+xml</dc:format><dc:type
           rdf:resource="http://purl.org/dc/dcmitype/StillImage" /></cc:Work></rdf:RDF></metadata><defs
     id="defs6" /><g
     transform="matrix(1.3333333,0,0,1.3333333,0,7.2e-6)"
     id="g10"><g
       id="g12"><path
         id="path14"
         style="fill:#006c35;fill-opacity:1;fill-rule:nonzero;stroke:none"
         d="M 0,0 H 828 V 216 H 0 Z" /><path
         id="path16"
         style="fill:#ffffff;fill-opacity:1;fill-rule:evenodd;stroke:none"
         d="m 176.055,96.84 c 0,40.199 -49.407,83.414 -58.739,91.219 -0.878,0.73 -2.14,0.722 -3.011,-0.02 -5.934,-5.062 -28.215,-24.82 -43.567,-48.652 -15.39,4.855 -26.277,5.539 -28.961,0.89 -4.504,-7.797 15.528,-28.086 46.629,-48.464 22.813,7.484 36.828,-9.196 46.555,-20.778 2.914,-3.465 5.441,-6.476 7.707,-8.242 0.875,-0.684 0.891,-2.395 -0.117,-2.848 -29.524,-13.312 -56.399,-4.543 -59.297,19.715 -0.121,0.992 0.98,1.629 1.824,1.09 11.348,-7.242 24.371,-12.586 34.188,-15.109 1.386,-0.356 1.707,1.035 0.371,1.558 -9.289,3.649 -18.59,8.66 -26.922,13.844 -0.047,0 -0.094,0.012 -0.137,0.035 -14.473,8.61 -26.859,17.555 -36.023,25.762 -0.649,-3.352 -1,-6.692 -1,-10 0,-34.246 26.976,-62.012 60.25,-62.012 17.929,0 34.031,8.063 45.07,20.86 15.391,-4.86 26.277,-5.54 28.961,-0.895 3.605,6.246 -8.531,20.512 -29.488,36.41 -5.043,3.992 -11.024,8.223 -17.723,12.496 -22.473,-7.015 -36.332,9.481 -45.977,20.965 -2.914,3.465 -5.441,6.477 -7.707,8.242 -0.875,0.684 -0.89,2.395 0.118,2.848 29.523,13.312 56.398,4.543 59.296,-19.715 0.122,-0.992 -0.98,-1.629 -1.824,-1.09 -11.347,7.242 -24.371,12.586 -34.187,15.106 -1.387,0.359 -1.707,-1.032 -0.371,-1.555 9.3,-3.652 18.613,-8.676 26.953,-13.863 0.035,-0.004 0.074,-0.016 0.105,-0.035 14.715,-8.754 27.27,-17.852 36.473,-26.168 0.363,2.75 0.551,5.554 0.551,8.406 z m -4.637,-23.899 c 4.859,-4.988 7.094,-8.851 5.898,-10.921 -1.168,-2.02 -5.461,-2.063 -11.957,-0.461 2.387,3.543 4.422,7.355 6.059,11.382 z M 61.039,121.273 c -5.441,5.403 -8.004,9.59 -6.746,11.774 1.215,2.101 5.809,2.066 12.746,0.266 -2.262,-3.946 -4.297,-7.973 -6,-12.04 z" /><path
         id="path18"
         style="fill:#ffffff;fill-opacity:1;fill-rule:nonzero;stroke:none"
         d="m 281.047,103.441 c 0,7.176 -1.344,13.321 -4.031,18.438 -2.668,5.094 -6.309,8.996 -10.926,11.707 -4.598,2.707 -9.809,4.062 -15.641,4.062 -5.832,0 -11.054,-1.355 -15.676,-4.062 -4.593,-2.734 -8.234,-6.645 -10.925,-11.742 -2.664,-5.114 -3.996,-11.25 -3.996,-18.403 0,-7.175 1.332,-13.312 3.996,-18.406 2.691,-5.117 6.332,-9.027 10.925,-11.738 4.622,-2.711 9.844,-4.067 15.676,-4.067 5.832,0 11.043,1.356 15.641,4.067 4.617,2.711 8.258,6.621 10.926,11.738 2.687,5.094 4.031,11.231 4.031,18.406 z m -12.129,0 c 0,-5.05 -0.789,-9.312 -2.371,-12.781 -1.563,-3.488 -3.731,-6.125 -6.504,-7.902 -2.777,-1.797 -5.973,-2.699 -9.594,-2.699 -3.621,0 -6.816,0.902 -9.594,2.699 -2.773,1.777 -4.953,4.414 -6.535,7.902 -1.562,3.469 -2.34,7.731 -2.34,12.781 0,5.051 0.778,9.321 2.34,12.813 1.582,3.469 3.762,6.101 6.535,7.898 2.778,1.782 5.973,2.668 9.594,2.668 3.621,0 6.817,-0.886 9.594,-2.668 2.773,-1.797 4.941,-4.429 6.504,-7.898 1.582,-3.492 2.371,-7.762 2.371,-12.813 z" /><path
         id="path20"
         style="fill:#ffffff;fill-opacity:1;fill-rule:nonzero;stroke:none"
         d="M 289.188,136.738 V 86.793 h 11.414 v 8.324 h 0.519 c 0.91,-2.883 2.469,-5.105 4.68,-6.668 2.234,-1.582 4.781,-2.375 7.644,-2.375 0.649,0 1.375,0.035 2.176,0.098 0.824,0.047 1.508,0.121 2.051,0.23 V 97.23 c -0.5,-0.175 -1.289,-0.324 -2.375,-0.457 -1.063,-0.152 -2.09,-0.226 -3.09,-0.226 -2.144,0 -4.074,0.465 -5.785,1.398 -1.692,0.91 -3.027,2.18 -4,3.805 -0.977,1.625 -1.465,3.5 -1.465,5.625 v 29.363 z" /><path
         id="path22"
         style="fill:#ffffff;fill-opacity:1;fill-rule:nonzero;stroke:none"
         d="m 342.41,156.508 c -4.226,0 -7.859,-0.574 -10.894,-1.723 -3.036,-1.125 -5.473,-2.644 -7.317,-4.551 -1.844,-1.91 -3.121,-4.023 -3.836,-6.343 l 10.602,-2.567 c 0.476,0.977 1.168,1.938 2.078,2.895 0.914,0.972 2.137,1.777 3.676,2.406 1.562,0.648 3.523,0.973 5.886,0.973 3.34,0 6.102,-0.813 8.293,-2.438 2.188,-1.605 3.282,-4.25 3.282,-7.933 v -9.461 h -0.582 c -0.61,1.211 -1.496,2.457 -2.668,3.738 -1.149,1.277 -2.676,2.351 -4.586,3.219 -1.887,0.867 -4.258,1.3 -7.121,1.3 -3.836,0 -7.317,-0.898 -10.438,-2.699 -3.101,-1.82 -5.57,-4.531 -7.414,-8.129 -1.82,-3.621 -2.73,-8.152 -2.73,-13.593 0,-5.485 0.91,-10.114 2.73,-13.883 1.844,-3.797 4.324,-6.668 7.445,-8.617 3.122,-1.973 6.602,-2.961 10.438,-2.961 2.93,0 5.336,0.5 7.223,1.496 1.906,0.976 3.421,2.156 4.55,3.543 1.125,1.367 1.985,2.656 2.571,3.871 h 0.648 v -8.258 h 11.609 v 50.758 c 0,4.269 -1.019,7.804 -3.058,10.601 -2.035,2.797 -4.82,4.887 -8.356,6.278 -3.535,1.386 -7.543,2.078 -12.031,2.078 z m 0.098,-29.719 c 2.492,0 4.617,-0.609 6.371,-1.82 1.758,-1.215 3.09,-2.961 4,-5.239 0.914,-2.273 1.367,-5.007 1.367,-8.191 0,-3.144 -0.453,-5.898 -1.367,-8.262 -0.887,-2.363 -2.211,-4.195 -3.965,-5.496 -1.734,-1.32 -3.871,-1.98 -6.406,-1.98 -2.625,0 -4.813,0.679 -6.57,2.047 -1.754,1.367 -3.079,3.242 -3.965,5.625 -0.891,2.363 -1.336,5.05 -1.336,8.066 0,3.055 0.445,5.731 1.336,8.031 0.91,2.274 2.242,4.051 4,5.332 1.777,1.258 3.957,1.887 6.535,1.887 z" /><path
         id="path24"
         style="fill:#ffffff;fill-opacity:1;fill-rule:nonzero;stroke:none"
         d="m 389.543,137.746 c -3.164,0 -6.016,-0.562 -8.551,-1.691 -2.515,-1.149 -4.508,-2.84 -5.984,-5.071 -1.449,-2.234 -2.176,-4.988 -2.176,-8.261 0,-2.817 0.52,-5.149 1.559,-6.993 1.043,-1.839 2.461,-3.316 4.261,-4.421 1.797,-1.106 3.825,-1.938 6.078,-2.504 2.278,-0.586 4.629,-1.008 7.059,-1.266 2.926,-0.305 5.301,-0.574 7.121,-0.816 1.82,-0.258 3.145,-0.649 3.969,-1.168 0.844,-0.543 1.266,-1.379 1.266,-2.504 v -0.196 c 0,-2.449 -0.727,-4.347 -2.18,-5.691 -1.449,-1.344 -3.543,-2.016 -6.274,-2.016 -2.882,0 -5.171,0.629 -6.863,1.887 -1.668,1.258 -2.797,2.742 -3.379,4.453 L 374.457,99.93 c 0.867,-3.035 2.297,-5.575 4.293,-7.61 1.992,-2.058 4.434,-3.597 7.316,-4.617 2.883,-1.043 6.071,-1.562 9.559,-1.562 2.406,0 4.801,0.281 7.188,0.847 2.382,0.563 4.562,1.496 6.535,2.793 1.972,1.282 3.554,3.028 4.746,5.239 1.215,2.21 1.824,4.972 1.824,8.289 v 33.429 h -11.316 v -6.859 h -0.391 c -0.715,1.387 -1.723,2.687 -3.023,3.898 -1.282,1.196 -2.895,2.161 -4.848,2.895 -1.93,0.719 -4.195,1.074 -6.797,1.074 z m 3.059,-8.648 c 2.363,0 4.41,-0.469 6.144,-1.399 1.734,-0.953 3.07,-2.211 4,-3.773 0.953,-1.559 1.43,-3.262 1.43,-5.106 v -5.886 c -0.367,0.304 -0.996,0.586 -1.883,0.847 -0.867,0.258 -1.844,0.489 -2.93,0.684 -1.082,0.195 -2.156,0.367 -3.218,0.519 -1.063,0.153 -1.981,0.282 -2.762,0.391 -1.758,0.238 -3.328,0.629 -4.715,1.168 -1.387,0.543 -2.484,1.305 -3.285,2.277 -0.801,0.953 -1.203,2.192 -1.203,3.707 0,2.168 0.789,3.805 2.375,4.911 1.582,1.105 3.597,1.66 6.047,1.66 z" /><path
         id="path26"
         style="fill:#ffffff;fill-opacity:1;fill-rule:nonzero;stroke:none"
         d="m 436.777,107.473 v 29.265 H 425.004 V 86.793 h 11.254 v 8.484 h 0.582 c 1.152,-2.797 2.984,-5.015 5.5,-6.664 2.535,-1.648 5.664,-2.472 9.394,-2.472 3.45,0 6.45,0.738 9.008,2.211 2.578,1.476 4.574,3.609 5.985,6.406 1.429,2.797 2.132,6.187 2.113,10.18 v 31.8 h -11.77 v -29.98 c 0,-3.34 -0.867,-5.953 -2.601,-7.836 -1.715,-1.887 -4.086,-2.832 -7.125,-2.832 -2.055,0 -3.891,0.457 -5.492,1.367 -1.586,0.891 -2.832,2.18 -3.743,3.871 -0.886,1.692 -1.332,3.738 -1.332,6.145 z" /><path
         id="path28"
         style="fill:#ffffff;fill-opacity:1;fill-rule:nonzero;stroke:none"
         d="M 478.059,136.738 V 86.793 h 11.773 v 49.945 z m 5.918,-57.035 c -1.864,0 -3.469,-0.617 -4.813,-1.855 -1.344,-1.258 -2.016,-2.762 -2.016,-4.52 0,-1.777 0.672,-3.285 2.016,-4.519 1.344,-1.258 2.949,-1.887 4.813,-1.887 1.886,0 3.492,0.629 4.812,1.887 1.348,1.234 2.02,2.742 2.02,4.519 0,1.758 -0.672,3.262 -2.02,4.52 -1.32,1.238 -2.926,1.855 -4.812,1.855 z" /><path
         id="path30"
         style="fill:#ffffff;fill-opacity:1;fill-rule:nonzero;stroke:none"
         d="m 520.973,137.715 c -4.985,0 -9.266,-1.098 -12.844,-3.285 -3.555,-2.192 -6.297,-5.215 -8.227,-9.075 -1.906,-3.878 -2.859,-8.343 -2.859,-13.394 0,-5.074 0.973,-9.551 2.926,-13.43 1.949,-3.902 4.707,-6.937 8.258,-9.105 3.578,-2.192 7.804,-3.285 12.683,-3.285 4.055,0 7.641,0.75 10.762,2.246 3.144,1.472 5.648,3.562 7.512,6.273 1.867,2.688 2.925,5.832 3.187,9.43 h -11.25 c -0.457,-2.406 -1.539,-4.41 -3.254,-6.016 -1.687,-1.625 -3.957,-2.437 -6.793,-2.437 -2.406,0 -4.519,0.648 -6.344,1.949 -1.82,1.281 -3.242,3.121 -4.257,5.527 -0.996,2.41 -1.496,5.293 -1.496,8.653 0,3.402 0.5,6.328 1.496,8.777 0.996,2.43 2.394,4.305 4.191,5.629 1.824,1.301 3.957,1.949 6.41,1.949 1.735,0 3.281,-0.324 4.649,-0.976 1.386,-0.672 2.547,-1.637 3.476,-2.895 0.938,-1.254 1.574,-2.785 1.922,-4.582 h 11.25 c -0.281,3.531 -1.32,6.664 -3.121,9.395 -1.801,2.71 -4.246,4.835 -7.352,6.375 -3.097,1.515 -6.742,2.277 -10.925,2.277 z" /><path
         id="path32"
         style="fill:#ffffff;fill-opacity:1;fill-rule:nonzero;stroke:none"
         d="m 569.777,70.141 h 14.762 l 19.774,48.257 h 0.777 l 19.773,-48.257 h 14.762 v 66.597 H 628.051 V 90.984 h -0.621 l -18.407,45.559 h -8.648 L 581.973,90.887 h -0.621 v 45.851 h -11.575 z" /><path
         id="path34"
         style="fill:#ffffff;fill-opacity:1;fill-rule:nonzero;stroke:none"
         d="m 663.867,137.746 c -3.164,0 -6.015,-0.562 -8.554,-1.691 -2.512,-1.149 -4.508,-2.84 -5.981,-5.071 -1.453,-2.234 -2.18,-4.988 -2.18,-8.261 0,-2.817 0.52,-5.149 1.563,-6.993 1.039,-1.839 2.457,-3.316 4.258,-4.421 1.8,-1.106 3.828,-1.938 6.082,-2.504 2.277,-0.586 4.629,-1.008 7.058,-1.266 2.926,-0.305 5.297,-0.574 7.117,-0.816 1.825,-0.258 3.145,-0.649 3.969,-1.168 0.848,-0.543 1.27,-1.379 1.27,-2.504 v -0.196 c 0,-2.449 -0.727,-4.347 -2.18,-5.691 -1.453,-1.344 -3.547,-2.016 -6.273,-2.016 -2.883,0 -5.172,0.629 -6.864,1.887 -1.668,1.258 -2.797,2.742 -3.382,4.453 L 648.777,99.93 c 0.871,-3.035 2.301,-5.575 4.297,-7.61 1.989,-2.058 4.43,-3.597 7.313,-4.617 2.886,-1.043 6.07,-1.562 9.562,-1.562 2.406,0 4.801,0.281 7.184,0.847 2.387,0.563 4.566,1.496 6.535,2.793 1.973,1.282 3.559,3.028 4.75,5.239 1.215,2.21 1.82,4.972 1.82,8.289 v 33.429 h -11.316 v -6.859 h -0.387 c -0.715,1.387 -1.726,2.687 -3.027,3.898 -1.281,1.196 -2.895,2.161 -4.844,2.895 -1.93,0.719 -4.195,1.074 -6.797,1.074 z m 3.055,-8.648 c 2.367,0 4.414,-0.469 6.148,-1.399 1.735,-0.953 3.067,-2.211 4,-3.773 0.953,-1.559 1.43,-3.262 1.43,-5.106 v -5.886 c -0.371,0.304 -0.996,0.586 -1.883,0.847 -0.871,0.258 -1.847,0.489 -2.929,0.684 -1.086,0.195 -2.161,0.367 -3.219,0.519 -1.063,0.153 -1.985,0.282 -2.766,0.391 -1.754,0.238 -3.328,0.629 -4.711,1.168 -1.39,0.543 -2.484,1.305 -3.289,2.277 -0.797,0.953 -1.203,2.192 -1.203,3.707 0,2.168 0.793,3.805 2.375,4.911 1.582,1.105 3.602,1.66 6.047,1.66 z" /><path
         id="path36"
         style="fill:#ffffff;fill-opacity:1;fill-rule:nonzero;stroke:none"
         d="M 699.328,155.469 V 86.793 h 11.574 v 8.258 h 0.684 c 0.609,-1.215 1.465,-2.504 2.57,-3.871 1.106,-1.387 2.602,-2.567 4.489,-3.543 1.882,-0.996 4.289,-1.496 7.214,-1.496 3.86,0 7.34,0.988 10.442,2.961 3.121,1.949 5.59,4.843 7.414,8.679 1.84,3.817 2.762,8.5 2.762,14.051 0,5.481 -0.899,10.145 -2.696,13.981 -1.801,3.835 -4.25,6.761 -7.351,8.781 -3.098,2.015 -6.61,3.023 -10.535,3.023 -2.864,0 -5.235,-0.476 -7.122,-1.433 -1.886,-0.954 -3.402,-2.102 -4.554,-3.446 -1.125,-1.363 -2,-2.656 -2.633,-3.867 h -0.488 v 26.598 z m 11.543,-43.703 c 0,3.23 0.453,6.058 1.367,8.484 0.934,2.43 2.266,4.328 4,5.691 1.754,1.344 3.879,2.016 6.375,2.016 2.598,0 4.778,-0.691 6.535,-2.078 1.754,-1.41 3.075,-3.328 3.969,-5.758 0.91,-2.449 1.363,-5.234 1.363,-8.355 0,-3.102 -0.445,-5.856 -1.335,-8.262 -0.887,-2.406 -2.211,-4.289 -3.965,-5.656 -1.758,-1.368 -3.946,-2.047 -6.567,-2.047 -2.519,0 -4.652,0.66 -6.41,1.98 -1.758,1.324 -3.086,3.176 -3.996,5.563 -0.891,2.383 -1.336,5.191 -1.336,8.422 z" /><path
         id="path38"
         style="fill:#ffffff;fill-opacity:1;fill-rule:nonzero;stroke:none"
         d="m 793.285,99.992 -10.726,1.172 c -0.305,-1.082 -0.836,-2.101 -1.594,-3.055 -0.738,-0.957 -1.735,-1.726 -2.992,-2.308 -1.258,-0.586 -2.797,-0.879 -4.618,-0.879 -2.449,0 -4.511,0.531 -6.179,1.594 -1.645,1.062 -2.461,2.437 -2.438,4.129 -0.023,1.453 0.508,2.632 1.594,3.543 1.106,0.91 2.926,1.66 5.461,2.246 l 8.52,1.82 c 4.726,1.019 8.238,2.633 10.535,4.844 2.32,2.211 3.492,5.105 3.515,8.683 -0.023,3.145 -0.945,5.918 -2.765,8.324 -1.797,2.383 -4.305,4.25 -7.512,5.594 -3.207,1.344 -6.895,2.016 -11.055,2.016 -6.113,0 -11.039,-1.281 -14.761,-3.84 -3.731,-2.578 -5.954,-6.164 -6.668,-10.762 l 11.476,-1.105 c 0.524,2.254 1.625,3.957 3.317,5.105 1.691,1.149 3.89,1.723 6.601,1.723 2.797,0 5.039,-0.574 6.731,-1.723 1.714,-1.148 2.57,-2.57 2.57,-4.261 0,-1.43 -0.551,-2.61 -1.656,-3.543 -1.086,-0.93 -2.778,-1.649 -5.075,-2.145 l -8.519,-1.789 c -4.793,-0.996 -8.336,-2.68 -10.637,-5.039 -2.293,-2.387 -3.43,-5.398 -3.41,-9.043 -0.02,-3.078 0.813,-5.742 2.504,-8 1.711,-2.273 4.086,-4.031 7.121,-5.266 3.055,-1.257 6.578,-1.886 10.566,-1.886 5.856,0 10.461,1.246 13.821,3.738 3.383,2.496 5.476,5.867 6.273,10.113 z" /></g></g></svg>