<?xml version="1.0" encoding="UTF-8" standalone="no"?>
<svg
   xmlns:dc="http://purl.org/dc/elements/1.1/"
   xmlns:cc="http://creativecommons.org/ns#"
   xmlns:rdf="http://www.w3.org/1999/02/22-rdf-syntax-ns#"
   xmlns:svg="http://www.w3.org/2000/svg"
   xmlns="http://www.w3.org/2000/svg"
   viewBox="0 0 288 72"
   height="72"
   width="288"
   xml:space="preserve"
   id="svg2"
   version="1.1"><metadata
     id="metadata8"><rdf:RDF><cc:Work
         rdf:about=""><dc:format>image/svg+xml</dc:format><dc:type
           rdf:resource="http://purl.org/dc/dcmitype/StillImage" /></cc:Work></rdf:RDF></metadata><defs
     id="defs6" /><g
     transform="matrix(1.3333333,0,0,1.3333333,0,1.8e-6)"
     id="g10"><g
       id="g12"><g
         id="g14"><path
           id="path16"
           style="fill:none;stroke:#ff0000;stroke-width:0.20527101;stroke-linecap:butt;stroke-linejoin:miter;stroke-miterlimit:4;stroke-dasharray:none;stroke-opacity:1"
           d="M 25.129,2.078 C 20.973,2.137 16.848,3.516 13.5,5.977 9.711,8.758 6.906,12.855 5.691,17.395 5.004,19.93 4.773,22.594 5.086,25.203 c 0.051,0.442 0.109,0.883 0.164,1.324 -1.156,1.25 -2.316,2.524 -3.16,4.016 -0.574,1 -0.996,2.113 -1.078,3.273 -0.074,1.055 0.152,2.137 0.687,3.055 0.5,0.879 1.27,1.598 2.168,2.063 0.926,0.488 1.977,0.718 3.02,0.761 1.238,0.071 2.472,-0.105 3.691,-0.297 0.356,-0.05 0.735,0.024 1.027,0.243 0.313,0.207 0.5,0.535 0.731,0.82 2.785,3.574 5.937,6.848 9.32,9.855 0.504,0.438 0.992,0.899 1.578,1.227 1.164,0.637 2.61,0.703 3.84,0.223 0.496,-0.192 0.953,-0.477 1.356,-0.825 0.57,-0.472 1.113,-0.976 1.668,-1.468 3.367,-3.039 6.488,-6.368 9.195,-10.012 1.852,-2.496 3.484,-5.172 4.695,-8.035 0.996,-2.36 1.676,-4.871 1.821,-7.434 0.062,-1.051 0.019,-2.101 -0.082,-3.144 -0.028,-0.364 -0.063,-0.723 -0.094,-1.082 1.078,-1.176 2.164,-2.371 2.972,-3.758 0.61,-1.028 1.067,-2.168 1.157,-3.367 C 49.859,11.465 49.574,10.254 48.918,9.27 48.313,8.34 47.402,7.617 46.367,7.219 45.219,6.754 43.957,6.641 42.73,6.703 41.512,6.758 40.313,7 39.121,7.23 38.883,7.242 38.668,7.102 38.512,6.938 37.203,5.863 35.797,4.898 34.273,4.156 31.664,2.863 28.773,2.152 25.863,2.086 25.617,2.078 25.371,2.078 25.129,2.078 Z m 101.086,8.781 c -1.672,-0.023 -3.328,0.719 -4.445,1.961 -0.594,0.664 -1.059,1.469 -1.231,2.352 -0.086,0.437 -0.109,0.883 -0.109,1.328 -1.309,-0.262 -2.653,-0.258 -3.985,-0.219 -0.703,0.02 -1.41,0.032 -2.117,0.02 -1.414,-0.008 -2.828,0 -4.242,-0.008 -0.746,-0.012 -1.496,-0.063 -2.234,0.082 -0.438,0.094 -0.868,0.285 -1.18,0.617 -0.043,0.028 -0.063,0.113 -0.121,0.059 -0.66,-0.317 -1.367,-0.539 -2.086,-0.672 -1.008,-0.203 -2.035,-0.277 -3.059,-0.246 -1.371,0.062 -2.738,0.347 -3.996,0.894 -0.269,-0.363 -0.695,-0.589 -1.133,-0.675 -0.367,-0.079 -0.738,-0.067 -1.109,-0.055 -3.828,-0.004 -7.656,0.047 -11.484,0.07 -0.875,0 -1.75,0.012 -2.625,0.028 -0.039,0 -0.129,0.003 -0.184,0.003 -0.918,0.016 -1.832,-0.007 -2.746,-0.046 -0.02,0 -0.125,-0.004 -0.176,-0.008 -0.453,-0.016 -0.906,-0.059 -1.359,-0.047 -1.535,0 -3.071,0 -4.602,0 -1.125,-1.531 -2.617,-2.801 -4.336,-3.609 -2.211,-1.055 -4.73,-1.403 -7.152,-1.083 -2.168,0.29 -4.277,1.145 -5.973,2.536 -1.715,1.402 -3.008,3.289 -3.761,5.367 -0.567,1.574 -0.817,3.25 -0.856,4.918 -0.027,1.562 0.117,3.137 0.527,4.648 0.512,1.91 1.457,3.707 2.789,5.176 1.258,1.391 2.848,2.484 4.614,3.121 1.644,0.598 3.414,0.84 5.16,0.746 1.976,-0.113 3.937,-0.676 5.633,-1.703 0.078,-0.055 0.16,-0.105 0.242,-0.16 0.008,0.547 0.016,1.094 0.027,1.637 3,0 6.004,0 9.004,0 0.828,1.922 2.422,3.468 4.309,4.343 1.656,0.774 3.504,1.086 5.328,1.063 1.75,-0.02 3.516,-0.328 5.113,-1.063 1.274,-0.582 2.43,-1.441 3.297,-2.543 0.555,-0.695 0.992,-1.48 1.297,-2.316 0.426,0.113 0.851,0.219 1.285,0.301 1.402,0.273 2.84,0.277 4.266,0.246 0.793,-0.024 1.586,-0.031 2.379,-0.027 8.867,-0.004 17.734,0 26.597,-0.004 -0.008,-0.223 -0.019,-0.446 -0.023,-0.668 1.129,0.515 2.355,0.812 3.594,0.894 1.839,0.141 3.726,-0.117 5.418,-0.879 2.011,-0.902 3.691,-2.554 4.554,-4.59 0.137,-0.308 0.254,-0.628 0.352,-0.949 0,2.067 0,4.133 0,6.203 3.367,-0.023 6.734,-0.035 10.101,-0.031 5.469,0 10.942,0.024 16.411,0.024 0.199,0 0.402,0 0.601,0 0.012,-0.047 -0.043,-0.172 0.035,-0.137 1.36,0.293 2.758,0.265 4.137,0.195 0.613,-0.027 1.227,-0.07 1.844,-0.062 0.777,0.011 1.55,-0.008 2.328,-0.016 0,1.715 0,3.43 0,5.145 3.719,0 7.433,0 11.148,0 0,-1.547 0,-3.094 0,-4.641 0.766,-0.16 1.528,-0.332 2.289,-0.504 0.801,-0.199 1.594,-0.469 2.285,-0.926 0.504,-0.32 0.973,-0.695 1.434,-1.074 1.09,0.938 2.422,1.566 3.816,1.91 1.321,0.332 2.696,0.418 4.055,0.336 1.711,-0.109 3.418,-0.562 4.895,-1.445 1.472,-0.871 2.703,-2.184 3.379,-3.762 0.457,-1.051 0.656,-2.203 0.632,-3.348 0.153,-1.679 0.11,-3.378 -0.136,-5.046 -0.11,-0.731 -0.246,-1.457 -0.422,-2.176 -0.617,-2.285 -2.297,-4.239 -4.43,-5.246 -1.473,-0.7 -3.113,-0.969 -4.73,-0.973 -1.368,-0.012 -2.746,0.199 -4.035,0.66 -0.477,0.176 -0.95,0.375 -1.387,0.633 -0.531,0.324 -0.985,0.754 -1.426,1.187 -0.566,-0.546 -1.148,-1.093 -1.855,-1.453 -1.02,-0.472 -2.125,-0.742 -3.243,-0.828 -1.257,-0.105 -2.519,0 -3.781,-0.023 -2.828,-0.004 -5.656,-0.004 -8.484,-0.004 0,0.172 0,0.348 0,0.523 -1.426,-0.519 -2.953,-0.718 -4.469,-0.691 -1.355,0.035 -2.707,0.301 -3.965,0.809 -0.012,-1.133 -0.004,-2.27 0.012,-3.403 0,-0.055 0.004,-0.14 0.004,-0.207 0.008,-0.531 0.015,-1.058 0.023,-1.59 -3.558,0 -7.121,0 -10.683,0 -0.954,2.328 -1.907,4.653 -2.86,6.977 -0.953,-2.324 -1.906,-4.649 -2.859,-6.977 -3.555,0 -7.11,0 -10.664,0 0,3.594 0,7.184 0,10.774 -0.598,-1.891 -1.863,-3.559 -3.5,-4.676 -0.949,-0.652 -2.028,-1.102 -3.141,-1.383 -1.488,-0.367 -3.051,-0.43 -4.566,-0.195 -0.883,0.137 -1.75,0.383 -2.571,0.738 0.024,-0.863 -0.023,-1.746 -0.343,-2.558 -0.524,-1.333 -1.602,-2.411 -2.891,-3.012 -0.762,-0.36 -1.601,-0.559 -2.449,-0.567 z" /></g><path
         id="path18"
         style="fill:#006b36;fill-opacity:1;fill-rule:evenodd;stroke:none"
         d="m 41.809,23.004 c 0,11.023 -13.547,22.871 -16.106,25.012 -0.238,0.199 -0.586,0.199 -0.824,-0.004 C 23.25,46.621 17.145,41.203 12.934,34.672 8.715,36.004 5.73,36.188 4.992,34.914 3.758,32.777 9.25,27.215 17.777,21.629 c 6.254,2.051 10.098,-2.524 12.766,-5.699 0.797,-0.95 1.492,-1.774 2.113,-2.258 0.239,-0.188 0.242,-0.656 -0.035,-0.781 -8.094,-3.653 -15.461,-1.246 -16.254,5.402 -0.035,0.273 0.266,0.449 0.5,0.301 3.11,-1.985 6.68,-3.449 9.371,-4.141 0.383,-0.098 0.469,0.281 0.102,0.426 -2.547,1 -5.098,2.375 -7.379,3.797 -0.016,0 -0.027,0 -0.039,0.008 -3.969,2.359 -7.363,4.812 -9.875,7.062 -0.18,-0.918 -0.274,-1.832 -0.274,-2.742 0,-9.387 7.395,-17 16.516,-17 4.918,0 9.332,2.211 12.359,5.719 4.219,-1.332 7.204,-1.52 7.938,-0.246 0.988,1.714 -2.336,5.625 -8.082,9.984 -1.383,1.094 -3.024,2.254 -4.859,3.426 -6.165,-1.922 -9.961,2.597 -12.606,5.746 -0.801,0.953 -1.492,1.777 -2.113,2.262 -0.242,0.187 -0.246,0.656 0.031,0.781 8.094,3.648 15.465,1.246 16.258,-5.406 0.031,-0.274 -0.27,-0.446 -0.5,-0.301 -3.113,1.988 -6.684,3.453 -9.375,4.144 -0.379,0.098 -0.465,-0.285 -0.102,-0.429 2.551,-1 5.106,-2.375 7.391,-3.801 0.012,0 0.019,-0.004 0.027,-0.008 4.035,-2.398 7.477,-4.895 10.004,-7.176 0.098,0.754 0.149,1.524 0.149,2.305 z m -1.27,-6.551 c 1.332,-1.367 1.941,-2.426 1.617,-2.992 -0.32,-0.555 -1.5,-0.566 -3.281,-0.129 0.656,0.973 1.215,2.016 1.664,3.121 z m -30.266,13.25 c -1.488,1.481 -2.191,2.629 -1.847,3.231 0.332,0.574 1.594,0.566 3.496,0.07 -0.621,-1.082 -1.18,-2.184 -1.649,-3.301 z" /><path
         id="path20"
         style="fill:#006b36;fill-opacity:1;fill-rule:nonzero;stroke:none"
         d="m 70.594,24.816 c 0,1.965 -0.367,3.653 -1.106,5.055 -0.73,1.395 -1.726,2.465 -2.992,3.207 -1.262,0.746 -2.691,1.117 -4.289,1.117 -1.602,0 -3.031,-0.371 -4.297,-1.117 -1.262,-0.746 -2.262,-1.82 -2.996,-3.219 -0.73,-1.402 -1.098,-3.082 -1.098,-5.043 0,-1.968 0.368,-3.652 1.098,-5.046 0.734,-1.403 1.734,-2.477 2.996,-3.219 1.266,-0.742 2.695,-1.113 4.297,-1.113 1.598,0 3.027,0.371 4.289,1.113 1.266,0.742 2.262,1.816 2.992,3.219 0.739,1.394 1.106,3.078 1.106,5.046 z m -3.324,0 c 0,-1.386 -0.215,-2.554 -0.653,-3.503 -0.426,-0.958 -1.019,-1.68 -1.781,-2.168 -0.762,-0.493 -1.637,-0.739 -2.629,-0.739 -0.992,0 -1.871,0.246 -2.633,0.739 -0.758,0.488 -1.355,1.21 -1.789,2.168 -0.43,0.949 -0.644,2.117 -0.644,3.503 0,1.383 0.214,2.555 0.644,3.512 0.434,0.949 1.031,1.672 1.789,2.168 0.762,0.484 1.641,0.731 2.633,0.731 0.992,0 1.867,-0.247 2.629,-0.731 0.762,-0.496 1.355,-1.219 1.781,-2.168 0.438,-0.957 0.653,-2.129 0.653,-3.512 z" /><path
         id="path22"
         style="fill:#006b36;fill-opacity:1;fill-rule:nonzero;stroke:none"
         d="M 72.828,33.945 V 20.25 h 3.129 v 2.281 h 0.141 c 0.25,-0.789 0.679,-1.398 1.285,-1.824 0.613,-0.437 1.308,-0.652 2.094,-0.652 0.179,0 0.378,0.008 0.597,0.027 0.227,0.012 0.414,0.031 0.563,0.063 v 2.968 c -0.137,-0.047 -0.356,-0.09 -0.653,-0.125 -0.289,-0.043 -0.57,-0.062 -0.843,-0.062 -0.59,0 -1.121,0.129 -1.59,0.383 -0.461,0.25 -0.828,0.597 -1.094,1.043 -0.269,0.445 -0.402,0.961 -0.402,1.543 v 8.05 z" /><path
         id="path24"
         style="fill:#006b36;fill-opacity:1;fill-rule:nonzero;stroke:none"
         d="m 87.418,39.363 c -1.156,0 -2.152,-0.156 -2.984,-0.468 -0.832,-0.313 -1.5,-0.727 -2.008,-1.25 -0.504,-0.524 -0.856,-1.102 -1.051,-1.739 l 2.906,-0.703 c 0.129,0.266 0.321,0.531 0.571,0.793 0.25,0.266 0.586,0.488 1.007,0.66 0.426,0.176 0.965,0.266 1.614,0.266 0.914,0 1.672,-0.223 2.273,-0.668 0.602,-0.441 0.902,-1.164 0.902,-2.176 v -2.594 h -0.164 c -0.164,0.332 -0.41,0.676 -0.73,1.024 -0.313,0.351 -0.734,0.644 -1.258,0.883 -0.516,0.238 -1.164,0.359 -1.949,0.359 -1.055,0 -2.008,-0.25 -2.863,-0.742 -0.852,-0.5 -1.528,-1.242 -2.032,-2.227 -0.5,-0.996 -0.75,-2.238 -0.75,-3.726 0,-1.504 0.25,-2.774 0.75,-3.809 0.504,-1.039 1.184,-1.828 2.039,-2.363 0.856,-0.539 1.813,-0.813 2.864,-0.813 0.8,0 1.461,0.137 1.98,0.41 0.524,0.27 0.938,0.594 1.246,0.973 0.309,0.375 0.543,0.731 0.703,1.063 h 0.18 V 20.25 h 3.184 v 13.918 c 0,1.172 -0.282,2.141 -0.84,2.906 -0.559,0.766 -1.32,1.34 -2.289,1.719 -0.969,0.383 -2.071,0.57 -3.301,0.57 z m 0.027,-8.148 c 0.684,0 1.266,-0.164 1.75,-0.496 0.481,-0.336 0.844,-0.813 1.094,-1.438 0.25,-0.625 0.375,-1.371 0.375,-2.246 0,-0.863 -0.125,-1.617 -0.375,-2.265 -0.242,-0.649 -0.605,-1.149 -1.086,-1.504 -0.476,-0.364 -1.062,-0.547 -1.758,-0.547 -0.718,0 -1.32,0.187 -1.8,0.562 -0.481,0.375 -0.844,0.891 -1.086,1.543 -0.246,0.649 -0.368,1.383 -0.368,2.211 0,0.84 0.122,1.57 0.368,2.203 0.25,0.621 0.613,1.11 1.093,1.461 0.489,0.344 1.086,0.516 1.793,0.516 z" /><path
         id="path26"
         style="fill:#006b36;fill-opacity:1;fill-rule:nonzero;stroke:none"
         d="m 100.344,34.223 c -0.871,0 -1.653,-0.157 -2.348,-0.465 C 97.309,33.441 96.762,32.98 96.355,32.367 95.957,31.754 95.758,31 95.758,30.102 c 0,-0.774 0.144,-1.411 0.43,-1.918 0.285,-0.504 0.675,-0.907 1.167,-1.211 0.493,-0.305 1.051,-0.532 1.668,-0.688 0.625,-0.16 1.27,-0.273 1.934,-0.347 0.805,-0.083 1.453,-0.157 1.953,-0.223 0.5,-0.07 0.863,-0.176 1.086,-0.32 0.234,-0.149 0.348,-0.379 0.348,-0.688 v -0.051 c 0,-0.672 -0.199,-1.191 -0.594,-1.562 -0.398,-0.367 -0.973,-0.551 -1.723,-0.551 -0.789,0 -1.418,0.172 -1.882,0.516 -0.457,0.343 -0.766,0.754 -0.926,1.222 l -3.012,-0.429 c 0.234,-0.832 0.629,-1.528 1.176,-2.086 0.547,-0.563 1.215,-0.985 2.004,-1.266 0.793,-0.285 1.664,-0.43 2.621,-0.43 0.66,0 1.316,0.078 1.972,0.235 0.653,0.152 1.25,0.41 1.793,0.765 0.54,0.352 0.973,0.828 1.301,1.438 0.332,0.605 0.5,1.363 0.5,2.273 v 9.164 h -3.105 v -1.882 h -0.106 c -0.195,0.382 -0.472,0.738 -0.828,1.07 -0.351,0.328 -0.793,0.594 -1.328,0.793 -0.531,0.195 -1.152,0.297 -1.863,0.297 z m 0.836,-2.375 c 0.648,0 1.211,-0.125 1.687,-0.383 0.473,-0.262 0.84,-0.606 1.094,-1.031 0.262,-0.43 0.394,-0.895 0.394,-1.403 v -1.613 c -0.101,0.082 -0.273,0.16 -0.519,0.23 -0.238,0.075 -0.504,0.137 -0.801,0.188 -0.297,0.055 -0.59,0.102 -0.883,0.144 -0.293,0.043 -0.543,0.079 -0.757,0.106 -0.481,0.066 -0.915,0.172 -1.293,0.32 -0.379,0.149 -0.68,0.36 -0.899,0.625 -0.223,0.262 -0.332,0.602 -0.332,1.016 0,0.598 0.219,1.043 0.652,1.348 0.434,0.304 0.985,0.453 1.657,0.453 z" /><path
         id="path28"
         style="fill:#006b36;fill-opacity:1;fill-rule:nonzero;stroke:none"
         d="m 113.293,25.922 v 8.023 h -3.227 V 20.25 h 3.082 v 2.328 h 0.161 c 0.316,-0.765 0.82,-1.375 1.507,-1.828 0.696,-0.453 1.555,-0.68 2.579,-0.68 0.945,0 1.765,0.203 2.468,0.61 0.707,0.402 1.254,0.988 1.641,1.754 0.391,0.769 0.586,1.699 0.578,2.793 v 8.718 h -3.227 v -8.222 c 0,-0.914 -0.238,-1.629 -0.714,-2.149 -0.469,-0.515 -1.118,-0.773 -1.953,-0.773 -0.563,0 -1.067,0.125 -1.504,0.375 -0.434,0.242 -0.778,0.597 -1.028,1.058 -0.242,0.465 -0.363,1.028 -0.363,1.688 z" /><path
         id="path30"
         style="fill:#006b36;fill-opacity:1;fill-rule:nonzero;stroke:none"
         d="M 124.609,33.945 V 20.25 h 3.231 v 13.695 z m 1.625,-15.636 c -0.511,0 -0.953,-0.172 -1.32,-0.512 -0.367,-0.344 -0.555,-0.758 -0.555,-1.238 0,-0.489 0.188,-0.899 0.555,-1.239 0.367,-0.343 0.809,-0.515 1.32,-0.515 0.516,0 0.957,0.172 1.317,0.515 0.371,0.34 0.554,0.75 0.554,1.239 0,0.48 -0.183,0.894 -0.554,1.238 -0.36,0.34 -0.801,0.512 -1.317,0.512 z" /><path
         id="path32"
         style="fill:#006b36;fill-opacity:1;fill-rule:nonzero;stroke:none"
         d="m 136.375,34.211 c -1.367,0 -2.539,-0.301 -3.52,-0.898 -0.976,-0.602 -1.726,-1.43 -2.253,-2.489 -0.524,-1.062 -0.786,-2.289 -0.786,-3.672 0,-1.39 0.266,-2.621 0.801,-3.683 0.535,-1.071 1.289,-1.903 2.266,-2.496 0.98,-0.602 2.137,-0.903 3.476,-0.903 1.114,0 2.094,0.207 2.95,0.618 0.863,0.402 1.55,0.976 2.062,1.718 0.508,0.739 0.801,1.602 0.871,2.586 h -3.082 c -0.125,-0.66 -0.422,-1.207 -0.894,-1.648 -0.461,-0.446 -1.082,-0.668 -1.864,-0.668 -0.656,0 -1.238,0.179 -1.738,0.535 -0.5,0.352 -0.887,0.855 -1.168,1.516 -0.273,0.66 -0.41,1.449 -0.41,2.371 0,0.933 0.137,1.734 0.41,2.406 0.274,0.668 0.656,1.18 1.152,1.543 0.5,0.355 1.082,0.535 1.754,0.535 0.477,0 0.903,-0.09 1.278,-0.266 0.379,-0.187 0.699,-0.449 0.953,-0.796 0.254,-0.344 0.43,-0.762 0.527,-1.254 h 3.082 c -0.074,0.968 -0.363,1.824 -0.855,2.574 -0.492,0.742 -1.164,1.324 -2.016,1.75 -0.848,0.414 -1.848,0.621 -2.996,0.621 z" /><path
         id="path34"
         style="fill:#006b36;fill-opacity:1;fill-rule:nonzero;stroke:none"
         d="m 149.758,15.688 h 4.047 l 5.422,13.23 h 0.214 l 5.418,-13.23 h 4.047 v 18.257 h -3.172 V 21.402 h -0.171 l -5.043,12.489 h -2.375 l -5.043,-12.516 h -0.172 v 12.57 h -3.172 z" /><path
         id="path36"
         style="fill:#006b36;fill-opacity:1;fill-rule:nonzero;stroke:none"
         d="m 175.555,34.223 c -0.867,0 -1.649,-0.157 -2.344,-0.465 -0.691,-0.317 -1.238,-0.778 -1.641,-1.391 -0.398,-0.613 -0.597,-1.367 -0.597,-2.265 0,-0.774 0.14,-1.411 0.425,-1.918 0.286,-0.504 0.676,-0.907 1.168,-1.211 0.493,-0.305 1.051,-0.532 1.668,-0.688 0.625,-0.16 1.27,-0.273 1.934,-0.347 0.805,-0.083 1.453,-0.157 1.953,-0.223 0.5,-0.07 0.863,-0.176 1.09,-0.32 0.23,-0.149 0.348,-0.379 0.348,-0.688 v -0.051 c 0,-0.672 -0.2,-1.191 -0.598,-1.562 -0.398,-0.367 -0.973,-0.551 -1.723,-0.551 -0.789,0 -1.418,0.172 -1.879,0.516 -0.457,0.343 -0.769,0.754 -0.929,1.222 l -3.012,-0.429 c 0.238,-0.832 0.629,-1.528 1.176,-2.086 0.547,-0.563 1.215,-0.985 2.008,-1.266 0.789,-0.285 1.664,-0.43 2.621,-0.43 0.66,0 1.316,0.078 1.968,0.235 0.653,0.152 1.25,0.41 1.793,0.765 0.539,0.352 0.973,0.828 1.301,1.438 0.332,0.605 0.5,1.363 0.5,2.273 v 9.164 h -3.101 v -1.882 h -0.11 c -0.195,0.382 -0.472,0.738 -0.828,1.07 -0.351,0.328 -0.793,0.594 -1.328,0.793 -0.531,0.195 -1.148,0.297 -1.863,0.297 z m 0.836,-2.375 c 0.648,0 1.211,-0.125 1.687,-0.383 0.477,-0.262 0.84,-0.606 1.094,-1.031 0.262,-0.43 0.394,-0.895 0.394,-1.403 v -1.613 c -0.101,0.082 -0.273,0.16 -0.515,0.23 -0.238,0.075 -0.508,0.137 -0.805,0.188 -0.297,0.055 -0.59,0.102 -0.883,0.144 -0.289,0.043 -0.543,0.079 -0.758,0.106 -0.48,0.066 -0.91,0.172 -1.292,0.32 -0.379,0.149 -0.68,0.36 -0.899,0.625 -0.219,0.262 -0.332,0.602 -0.332,1.016 0,0.598 0.219,1.043 0.652,1.348 0.434,0.304 0.989,0.453 1.657,0.453 z" /><path
         id="path38"
         style="fill:#006b36;fill-opacity:1;fill-rule:nonzero;stroke:none"
         d="M 185.277,39.078 V 20.25 h 3.172 v 2.266 h 0.188 c 0.168,-0.332 0.402,-0.688 0.703,-1.063 0.305,-0.379 0.715,-0.703 1.234,-0.973 0.516,-0.273 1.176,-0.41 1.977,-0.41 1.058,0 2.012,0.274 2.863,0.813 0.856,0.535 1.531,1.328 2.031,2.383 0.504,1.043 0.758,2.328 0.758,3.851 0,1.5 -0.246,2.781 -0.738,3.832 -0.496,1.051 -1.164,1.856 -2.016,2.406 -0.851,0.555 -1.812,0.829 -2.886,0.829 -0.786,0 -1.438,-0.129 -1.954,-0.391 -0.519,-0.262 -0.933,-0.578 -1.25,-0.945 -0.308,-0.375 -0.546,-0.727 -0.722,-1.063 h -0.133 v 7.293 z m 3.164,-11.98 c 0,0.886 0.125,1.66 0.375,2.328 0.254,0.664 0.622,1.183 1.098,1.558 0.481,0.368 1.063,0.555 1.746,0.555 0.715,0 1.313,-0.191 1.793,-0.57 0.481,-0.387 0.844,-0.914 1.086,-1.578 0.25,-0.672 0.375,-1.438 0.375,-2.293 0,-0.852 -0.121,-1.606 -0.367,-2.266 -0.242,-0.66 -0.606,-1.176 -1.086,-1.551 -0.481,-0.375 -1.082,-0.562 -1.801,-0.562 -0.691,0 -1.273,0.183 -1.758,0.547 -0.48,0.359 -0.843,0.867 -1.093,1.523 -0.246,0.652 -0.368,1.422 -0.368,2.309 z" /><path
         id="path40"
         style="fill:#006b36;fill-opacity:1;fill-rule:nonzero;stroke:none"
         d="m 211.039,23.871 -2.941,0.32 c -0.086,-0.296 -0.231,-0.578 -0.438,-0.839 -0.203,-0.262 -0.476,-0.473 -0.82,-0.633 -0.348,-0.16 -0.77,-0.239 -1.266,-0.239 -0.672,0 -1.238,0.145 -1.695,0.438 -0.453,0.289 -0.676,0.668 -0.668,1.129 -0.008,0.398 0.137,0.723 0.437,0.973 0.301,0.25 0.801,0.457 1.497,0.617 l 2.335,0.496 c 1.297,0.281 2.258,0.722 2.891,1.332 0.633,0.605 0.957,1.398 0.961,2.379 -0.004,0.863 -0.258,1.621 -0.758,2.281 -0.492,0.656 -1.179,1.164 -2.058,1.535 -0.879,0.367 -1.891,0.551 -3.032,0.551 -1.675,0 -3.027,-0.348 -4.046,-1.051 -1.024,-0.707 -1.633,-1.691 -1.829,-2.953 l 3.145,-0.301 c 0.144,0.617 0.445,1.086 0.91,1.399 0.465,0.316 1.066,0.472 1.809,0.472 0.769,0 1.382,-0.156 1.847,-0.472 0.469,-0.313 0.703,-0.703 0.703,-1.168 0,-0.391 -0.148,-0.715 -0.453,-0.973 -0.297,-0.254 -0.761,-0.449 -1.39,-0.586 l -2.336,-0.492 c -1.313,-0.273 -2.285,-0.734 -2.918,-1.379 -0.629,-0.656 -0.942,-1.48 -0.934,-2.48 -0.008,-0.844 0.223,-1.575 0.688,-2.192 0.468,-0.625 1.121,-1.105 1.949,-1.445 0.84,-0.344 1.805,-0.52 2.898,-0.52 1.606,0 2.868,0.344 3.789,1.028 0.93,0.683 1.5,1.609 1.723,2.773 z" /></g></g></svg>