<?xml version="1.0" encoding="UTF-8" standalone="no"?>
<!-- Created with Inkscape (http://www.inkscape.org/) -->

<svg
   version="1.1"
   id="svg1"
   width="288"
   height="72"
   viewBox="0 0 288 72"
   sodipodi:docname="laptop-sticker-invert-3x075.svg"
   inkscape:version="1.3 (0e150ed6c4, 2023-07-21)"
   xmlns:inkscape="http://www.inkscape.org/namespaces/inkscape"
   xmlns:sodipodi="http://sodipodi.sourceforge.net/DTD/sodipodi-0.dtd"
   xmlns="http://www.w3.org/2000/svg"
   xmlns:svg="http://www.w3.org/2000/svg">
  <defs
     id="defs1" />
  <sodipodi:namedview
     id="namedview1"
     pagecolor="#ffffff"
     bordercolor="#000000"
     borderopacity="0.25"
     inkscape:showpageshadow="2"
     inkscape:pageopacity="0.0"
     inkscape:pagecheckerboard="0"
     inkscape:deskcolor="#d1d1d1"
     inkscape:zoom="2.1434174"
     inkscape:cx="184.28515"
     inkscape:cy="71.148064"
     inkscape:window-width="2560"
     inkscape:window-height="1369"
     inkscape:window-x="-8"
     inkscape:window-y="-8"
     inkscape:window-maximized="1"
     inkscape:current-layer="g14">
    <inkscape:page
       x="0"
       y="0"
       inkscape:label="1"
       id="page1"
       width="288"
       height="72"
       margin="0"
       bleed="0" />
  </sodipodi:namedview>
  <g
     id="g1"
     inkscape:groupmode="layer"
     inkscape:label="1">
    <g
       id="g14"
       style="display:inline"
       inkscape:label="green">
      <path
         id="path2"
         d="m 41.879,23.008 c 0,11.004 -13.524,22.832 -16.074,24.969 -0.242,0.199 -0.586,0.195 -0.825,-0.008 -1.625,-1.383 -7.722,-6.793 -11.925,-13.317 -4.211,1.332 -7.192,1.52 -7.926,0.246 l 4.047,-9.152 c -0.18,-0.918 -0.278,-1.832 -0.278,-2.738 0,-9.371 7.383,-16.969 16.493,-16.969 4.906,0 9.312,2.203 12.336,5.707 4.211,-1.328 7.191,-1.516 7.925,-0.246 0.985,1.711 -2.336,5.613 -8.07,9.969 l 4.148,-0.762 c 0.098,0.754 0.149,1.523 0.149,2.301 z"
         style="fill:#006b36;fill-opacity:1;fill-rule:evenodd;stroke:#006b36;stroke-width:3.9600001;stroke-dasharray:none;stroke-opacity:1"
         transform="scale(1.3333333)"
         sodipodi:nodetypes="scccccssccccs" />
      <path
         id="path3"
         d="m 70.617,24.816 c 0,1.965 -0.367,3.645 -1.105,5.047 -0.731,1.395 -1.727,2.461 -2.989,3.203 -1.257,0.743 -2.687,1.114 -4.281,1.114 -1.597,0 -3.027,-0.371 -4.289,-1.114 -1.258,-0.746 -2.258,-1.82 -2.992,-3.214 -0.731,-1.399 -1.094,-3.079 -1.094,-5.036 0,-1.964 0.363,-3.644 1.094,-5.039 0.734,-1.398 1.734,-2.468 2.992,-3.211 1.262,-0.742 2.692,-1.113 4.289,-1.113 1.594,0 3.024,0.371 4.281,1.113 1.262,0.743 2.258,1.813 2.989,3.211 0.738,1.395 1.105,3.075 1.105,5.039 z m -3.32,0 c 0,-8.658151 -10.109,-8.697619 -10.109,0 0,1.383 0.21,2.551 0.64,3.508 0.434,0.949 1.027,1.668 1.789,2.16 0.758,0.489 1.633,0.731 2.625,0.731 0.988,0 1.863,-0.242 2.625,-0.731 0.758,-0.492 1.352,-1.211 1.781,-2.16 0.43,-0.957 0.649,-2.125 0.649,-3.508 z"
         style="fill:#006b36;fill-opacity:1;fill-rule:nonzero;stroke:#006b36;stroke-width:3.9600001;stroke-dasharray:none;stroke-opacity:1"
         transform="scale(1.3333333)"
         sodipodi:nodetypes="sccsccsccsccsssccsccs" />
      <path
         id="path4"
         d="M 72.844,33.93 V 20.258 h 3.125 v 2.281 h 0.14 c 0.25,-0.789 0.676,-1.398 1.282,-1.824 0.613,-0.434 1.308,-0.652 2.093,-0.652 0.176,0 0.375,0.007 0.594,0.027 0.227,0.012 0.414,0.031 0.563,0.062 v 2.965 c -0.137,-0.047 -0.356,-0.09 -0.653,-0.125 -0.289,-0.043 -0.57,-0.062 -0.843,-0.062 -0.586,0 -1.118,0.125 -1.586,0.383 -0.461,0.25 -0.825,0.593 -1.094,1.039 -0.266,0.445 -0.399,0.961 -0.399,1.543 v 8.035 z"
         style="fill:#006b36;fill-opacity:1;fill-rule:nonzero;stroke:#006b36;stroke-width:3.9600001;stroke-dasharray:none;stroke-opacity:1"
         transform="scale(1.3333333)" />
      <path
         id="path5"
         d="m 87.41,39.34 c -1.156,0 -2.152,-0.156 -2.98,-0.473 -0.832,-0.308 -1.5,-0.722 -2.004,-1.246 -0.504,-0.519 -0.856,-1.098 -1.051,-1.734 l 2.902,-0.703 c 0.133,0.269 0.321,0.531 0.571,0.793 0.25,0.265 0.586,0.484 1.004,0.66 0.429,0.176 0.964,0.265 1.613,0.265 0.914,0 1.668,-0.222 2.269,-0.668 0.598,-0.437 0.899,-1.164 0.899,-2.171 v -2.59 h -0.16 c -0.168,0.332 -0.41,0.672 -0.731,1.023 -0.312,0.352 -0.734,0.645 -1.254,0.883 -0.515,0.234 -1.168,0.355 -1.949,0.355 -1.051,0 -2.004,-0.246 -2.859,-0.738 -0.848,-0.5 -1.524,-1.242 -2.028,-2.226 -0.5,-0.993 -0.746,-2.231 -0.746,-3.719 0,-1.504 0.246,-2.77 0.746,-3.801 0.504,-1.039 1.184,-1.824 2.039,-2.359 0.852,-0.539 1.805,-0.809 2.856,-0.809 0.801,0 1.461,0.137 1.976,0.41 0.524,0.266 0.938,0.59 1.247,0.969 0.308,0.375 0.543,0.727 0.703,1.059 h 0.175 v -2.262 h 3.18 v 13.894 c 0,1.168 -0.281,2.137 -0.836,2.903 -0.558,0.765 -1.32,1.336 -2.289,1.715 -0.965,0.382 -2.066,0.57 -3.293,0.57 z m 0.028,-8.133 c 0.683,0 1.261,-0.168 1.742,-0.5 0.484,-0.332 0.847,-0.809 1.097,-1.434 0.25,-0.621 0.371,-1.371 0.371,-2.242 0,-0.859 -0.121,-1.613 -0.371,-2.261 -0.246,-0.645 -0.605,-1.145 -1.086,-1.504 -0.476,-0.36 -1.058,-0.543 -1.753,-0.543 -0.719,0 -1.317,0.187 -1.797,0.562 -0.481,0.375 -0.844,0.887 -1.086,1.539 -0.246,0.649 -0.367,1.383 -0.367,2.207 0,0.836 0.121,1.571 0.367,2.199 0.25,0.622 0.613,1.11 1.093,1.461 0.489,0.344 1.082,0.516 1.79,0.516 z"
         style="fill:#006b36;fill-opacity:1;fill-rule:nonzero;stroke:#006b36;stroke-width:3.9600001;stroke-dasharray:none;stroke-opacity:1"
         transform="scale(1.3333333)" />
      <path
         id="path6"
         d="m 100.313,34.207 c -0.868,0 -1.649,-0.156 -2.344,-0.465 -0.688,-0.312 -1.235,-0.777 -1.637,-1.387 -0.398,-0.613 -0.594,-1.367 -0.594,-2.261 0,-0.774 0.141,-1.41 0.426,-1.914 0.285,-0.504 0.672,-0.907 1.164,-1.211 0.492,-0.301 1.047,-0.531 1.664,-0.684 0.625,-0.16 1.27,-0.277 1.934,-0.347 0.801,-0.083 1.449,-0.157 1.949,-0.223 0.496,-0.07 0.859,-0.18 1.086,-0.32 0.23,-0.149 0.348,-0.375 0.348,-0.684 v -0.055 c 0,-0.672 -0.2,-1.191 -0.598,-1.558 -0.398,-0.368 -0.969,-0.551 -1.719,-0.551 -0.789,0 -1.414,0.172 -1.875,0.516 -0.457,0.343 -0.765,0.75 -0.926,1.218 L 96.18,23.855 c 0.238,-0.832 0.629,-1.527 1.175,-2.082 0.547,-0.566 1.215,-0.984 2.004,-1.265 0.789,-0.285 1.661,-0.426 2.618,-0.426 0.656,0 1.312,0.078 1.964,0.231 0.653,0.152 1.25,0.41 1.789,0.765 0.54,0.352 0.973,0.828 1.301,1.434 0.332,0.605 0.496,1.359 0.496,2.269 v 9.149 h -3.093 v -1.879 h -0.11 c -0.195,0.379 -0.472,0.738 -0.828,1.07 -0.348,0.324 -0.789,0.59 -1.324,0.789 -0.527,0.195 -1.149,0.297 -1.859,0.297 z m 0.835,-2.371 c 0.645,0 1.207,-0.125 1.68,-0.379 0.477,-0.262 0.84,-0.605 1.098,-1.035 0.258,-0.426 0.39,-0.891 0.39,-1.395 v -1.613 c -0.101,0.082 -0.273,0.16 -0.515,0.231 -0.238,0.074 -0.504,0.136 -0.801,0.187 -0.297,0.055 -0.59,0.102 -0.883,0.145 -0.289,0.039 -0.543,0.074 -0.758,0.105 -0.48,0.066 -0.91,0.172 -1.289,0.32 -0.379,0.149 -0.679,0.356 -0.898,0.625 -0.219,0.258 -0.328,0.598 -0.328,1.012 0,0.594 0.215,1.043 0.648,1.344 0.434,0.305 0.985,0.453 1.656,0.453 z"
         style="fill:#006b36;fill-opacity:1;fill-rule:nonzero;stroke:#006b36;stroke-width:3.9600001;stroke-dasharray:none;stroke-opacity:1"
         transform="scale(1.3333333)" />
      <path
         id="path7"
         d="m 113.238,25.918 v 8.012 h -3.222 V 20.258 h 3.082 v 2.324 h 0.156 c 0.316,-0.766 0.82,-1.375 1.508,-1.824 0.691,-0.453 1.551,-0.676 2.57,-0.676 0.945,0 1.766,0.199 2.465,0.606 0.707,0.402 1.254,0.988 1.637,1.753 0.394,0.762 0.586,1.692 0.582,2.786 v 8.703 h -3.223 v -8.207 c 0,-0.914 -0.238,-1.629 -0.715,-2.145 -0.469,-0.515 -1.117,-0.773 -1.949,-0.773 -0.563,0 -1.063,0.125 -1.504,0.375 -0.434,0.242 -0.773,0.593 -1.023,1.058 -0.243,0.461 -0.364,1.024 -0.364,1.68 z"
         style="fill:#006b36;fill-opacity:1;fill-rule:nonzero;stroke:#006b36;stroke-width:3.9600001;stroke-dasharray:none;stroke-opacity:1"
         transform="scale(1.3333333)" />
      <path
         id="path8"
         d="M 124.539,33.93 V 20.258 h 3.219 V 33.93 Z m 1.617,-15.61 c -0.511,0 -0.949,-0.172 -1.316,-0.507 -0.367,-0.344 -0.551,-0.758 -0.551,-1.239 0,-0.484 0.184,-0.898 0.551,-1.238 0.367,-0.344 0.805,-0.516 1.316,-0.516 0.516,0 0.957,0.172 1.317,0.516 0.371,0.34 0.554,0.754 0.554,1.238 0,0.481 -0.183,0.895 -0.554,1.239 -0.36,0.335 -0.801,0.507 -1.317,0.507 z"
         style="fill:#006b36;fill-opacity:1;fill-rule:nonzero;stroke:#006b36;stroke-width:3.9600001;stroke-dasharray:none;stroke-opacity:1"
         transform="scale(1.3333333)" />
      <path
         id="path9"
         d="m 136.281,34.195 c -1.363,0 -2.535,-0.297 -3.515,-0.898 -0.973,-0.598 -1.723,-1.426 -2.25,-2.484 -0.524,-1.059 -0.782,-2.282 -0.782,-3.665 0,-1.39 0.266,-2.613 0.801,-3.675 0.531,-1.071 1.285,-1.899 2.258,-2.493 0.98,-0.601 2.137,-0.898 3.473,-0.898 1.109,0 2.089,0.203 2.945,0.613 0.859,0.403 1.547,0.977 2.055,1.719 0.511,0.734 0.8,1.594 0.875,2.578 h -3.082 c -0.125,-0.656 -0.422,-1.207 -0.891,-1.644 -0.461,-0.446 -1.082,-0.668 -1.859,-0.668 -0.657,0 -1.235,0.179 -1.735,0.535 -0.5,0.348 -0.886,0.851 -1.168,1.512 -0.269,0.66 -0.406,1.449 -0.406,2.367 0,0.933 0.137,1.734 0.406,2.402 0.274,0.664 0.657,1.18 1.149,1.539 0.5,0.36 1.082,0.535 1.754,0.535 0.476,0 0.898,-0.09 1.273,-0.265 0.379,-0.184 0.699,-0.45 0.953,-0.793 0.254,-0.344 0.43,-0.762 0.524,-1.254 h 3.082 c -0.078,0.965 -0.364,1.824 -0.856,2.57 -0.492,0.742 -1.164,1.324 -2.012,1.746 -0.847,0.414 -1.847,0.621 -2.992,0.621 z"
         style="fill:#006b36;fill-opacity:1;fill-rule:nonzero;stroke:#006b36;stroke-width:3.9600001;stroke-dasharray:none;stroke-opacity:1"
         transform="scale(1.3333333)" />
      <path
         id="path10"
         d="m 149.641,15.703 h 4.039 l 5.41,13.207 h 0.215 l 5.41,-13.207 h 4.043 V 33.93 H 165.59 V 21.406 h -0.172 l -5.035,12.469 h -2.367 l -5.039,-12.496 h -0.168 V 33.93 h -3.168 z"
         style="fill:#006b36;fill-opacity:1;fill-rule:nonzero;stroke:#006b36;stroke-width:3.9600001;stroke-dasharray:none;stroke-opacity:1"
         transform="scale(1.3333333)" />
      <path
         id="path11"
         d="m 175.391,34.207 c -0.864,0 -1.645,-0.156 -2.34,-0.465 -0.688,-0.312 -1.235,-0.777 -1.637,-1.387 -0.398,-0.613 -0.598,-1.367 -0.598,-2.261 0,-0.774 0.141,-1.41 0.426,-1.914 0.285,-0.504 0.676,-0.907 1.168,-1.211 0.492,-0.301 1.047,-0.531 1.664,-0.684 0.625,-0.16 1.266,-0.277 1.934,-0.347 0.801,-0.083 1.449,-0.157 1.945,-0.223 0.5,-0.07 0.863,-0.18 1.086,-0.32 0.234,-0.149 0.348,-0.375 0.348,-0.684 v -0.055 c 0,-0.672 -0.199,-1.191 -0.594,-1.558 -0.398,-0.368 -0.973,-0.551 -1.719,-0.551 -0.789,0 -1.414,0.172 -1.879,0.516 -0.457,0.343 -0.765,0.75 -0.925,1.218 l -3.008,-0.426 c 0.238,-0.832 0.629,-1.527 1.176,-2.082 0.542,-0.566 1.214,-0.984 2.003,-1.265 0.789,-0.285 1.661,-0.426 2.614,-0.426 0.66,0 1.316,0.078 1.968,0.231 0.653,0.152 1.25,0.41 1.79,0.765 0.539,0.352 0.972,0.828 1.296,1.434 0.336,0.605 0.5,1.359 0.5,2.269 v 9.149 h -3.097 v -1.879 h -0.106 c -0.195,0.379 -0.472,0.738 -0.828,1.07 -0.351,0.324 -0.793,0.59 -1.324,0.789 -0.531,0.195 -1.149,0.297 -1.863,0.297 z m 0.836,-2.371 c 0.648,0 1.211,-0.125 1.683,-0.379 0.477,-0.262 0.84,-0.605 1.094,-1.035 0.262,-0.426 0.391,-0.891 0.391,-1.395 v -1.613 c -0.098,0.082 -0.27,0.16 -0.516,0.231 -0.234,0.074 -0.504,0.136 -0.801,0.187 -0.297,0.055 -0.59,0.102 -0.879,0.145 -0.293,0.039 -0.543,0.074 -0.758,0.105 -0.48,0.066 -0.91,0.172 -1.289,0.32 -0.379,0.149 -0.679,0.356 -0.898,0.625 -0.219,0.258 -0.332,0.598 -0.332,1.012 0,0.594 0.219,1.043 0.652,1.344 0.43,0.305 0.985,0.453 1.653,0.453 z"
         style="fill:#006b36;fill-opacity:1;fill-rule:nonzero;stroke:#006b36;stroke-width:3.9600001;stroke-dasharray:none;stroke-opacity:1"
         transform="scale(1.3333333)" />
      <path
         id="path12"
         d="M 185.098,39.055 V 20.258 h 3.168 v 2.262 h 0.187 c 0.164,-0.332 0.399,-0.684 0.703,-1.059 0.301,-0.379 0.711,-0.703 1.227,-0.969 0.515,-0.273 1.176,-0.41 1.976,-0.41 1.055,0 2.008,0.27 2.856,0.809 0.855,0.535 1.531,1.328 2.031,2.375 0.504,1.047 0.754,2.328 0.754,3.847 0,1.5 -0.246,2.778 -0.738,3.825 -0.492,1.05 -1.16,1.851 -2.012,2.406 -0.848,0.551 -1.809,0.824 -2.883,0.824 -0.781,0 -1.433,-0.129 -1.949,-0.391 -0.516,-0.261 -0.93,-0.574 -1.246,-0.941 -0.309,-0.375 -0.547,-0.727 -0.719,-1.059 h -0.133 v 7.278 z m 3.16,-11.961 c 0,0.883 0.121,1.66 0.371,2.324 0.258,0.664 0.621,1.184 1.098,1.555 0.48,0.371 1.058,0.554 1.742,0.554 0.711,0 1.308,-0.191 1.789,-0.57 0.48,-0.387 0.844,-0.91 1.086,-1.574 0.25,-0.672 0.375,-1.434 0.375,-2.289 0,-0.848 -0.121,-1.602 -0.367,-2.262 -0.243,-0.656 -0.606,-1.172 -1.086,-1.547 -0.481,-0.375 -1.078,-0.562 -1.797,-0.562 -0.688,0 -1.274,0.183 -1.754,0.543 -0.481,0.363 -0.844,0.871 -1.094,1.523 -0.242,0.652 -0.363,1.422 -0.363,2.305 z"
         style="fill:#006b36;fill-opacity:1;fill-rule:nonzero;stroke:#006b36;stroke-width:3.9600001;stroke-dasharray:none;stroke-opacity:1"
         transform="scale(1.3333333)" />
      <path
         id="path13"
         d="m 210.813,23.871 -2.938,0.32 c -0.082,-0.296 -0.227,-0.574 -0.434,-0.836 -0.203,-0.261 -0.476,-0.472 -0.82,-0.632 -0.344,-0.16 -0.766,-0.239 -1.262,-0.239 -0.671,0 -1.234,0.145 -1.691,0.438 -0.453,0.289 -0.676,0.664 -0.668,1.129 -0.008,0.398 0.137,0.719 0.434,0.969 0.304,0.25 0.804,0.453 1.496,0.613 l 2.332,0.5 c 1.293,0.277 2.254,0.722 2.883,1.328 0.636,0.602 0.957,1.394 0.964,2.375 -0.007,0.859 -0.261,1.621 -0.757,2.277 -0.493,0.653 -1.18,1.164 -2.055,1.532 -0.879,0.367 -1.891,0.55 -3.027,0.55 -1.672,0 -3.02,-0.347 -4.04,-1.05 -1.023,-0.704 -1.628,-1.688 -1.824,-2.946 l 3.141,-0.301 c 0.141,0.618 0.441,1.082 0.906,1.399 0.465,0.312 1.067,0.469 1.805,0.469 0.769,0 1.383,-0.157 1.844,-0.469 0.468,-0.317 0.703,-0.703 0.703,-1.168 0,-0.391 -0.149,-0.715 -0.453,-0.969 -0.297,-0.258 -0.762,-0.453 -1.387,-0.59 l -2.332,-0.488 c -1.313,-0.273 -2.281,-0.734 -2.914,-1.379 -0.625,-0.652 -0.938,-1.476 -0.934,-2.476 -0.004,-0.84 0.223,-1.571 0.688,-2.188 0.468,-0.621 1.117,-1.105 1.949,-1.441 0.836,-0.344 1.801,-0.516 2.891,-0.516 1.601,0 2.863,0.34 3.785,1.023 0.925,0.68 1.496,1.606 1.715,2.766 z"
         style="fill:#006b36;fill-opacity:1;fill-rule:nonzero;stroke:#006b36;stroke-width:3.9600001;stroke-dasharray:none;stroke-opacity:1"
         transform="scale(1.3333333)" />
    </g>
    <g
       id="g25"
       style="display:inline"
       inkscape:label="white">
      <path
         id="path14"
         d="m 41.879,23.008 c 0,11.004 -13.524,22.832 -16.074,24.969 -0.242,0.199 -0.586,0.195 -0.825,-0.008 C 23.355,46.586 17.258,41.176 13.055,34.652 8.844,35.984 5.863,36.172 5.129,34.898 3.898,32.766 9.379,27.211 17.891,21.633 24.137,23.684 27.969,19.117 30.633,15.945 31.43,15 32.121,14.176 32.742,13.691 32.98,13.504 32.984,13.035 32.711,12.91 24.629,9.27 17.273,11.668 16.48,18.309 c -0.031,0.269 0.27,0.445 0.5,0.296 3.106,-1.98 6.668,-3.445 9.356,-4.132 0.379,-0.098 0.469,0.281 0.102,0.425 -2.54,0.997 -5.086,2.368 -7.368,3.79 -0.011,-0.004 -0.027,0 -0.035,0.007 -3.965,2.356 -7.351,4.805 -9.859,7.051 -0.18,-0.918 -0.278,-1.832 -0.278,-2.738 0,-9.371 7.383,-16.969 16.493,-16.969 4.906,0 9.312,2.203 12.336,5.707 4.211,-1.328 7.191,-1.516 7.925,-0.246 0.985,1.711 -2.336,5.613 -8.07,9.969 -1.379,1.09 -3.019,2.25 -4.852,3.418 -6.152,-1.918 -9.945,2.593 -12.585,5.738 -0.797,0.949 -1.489,1.773 -2.106,2.254 -0.242,0.187 -0.246,0.656 0.031,0.781 8.078,3.645 15.438,1.242 16.231,-5.394 0.031,-0.274 -0.27,-0.446 -0.5,-0.301 -3.106,1.984 -6.672,3.445 -9.36,4.137 -0.378,0.097 -0.464,-0.286 -0.101,-0.426 2.547,-1 5.098,-2.375 7.379,-3.797 0.008,0 0.019,-0.004 0.027,-0.008 4.027,-2.394 7.465,-4.887 9.984,-7.164 0.098,0.754 0.149,1.523 0.149,2.301 z m -1.27,-6.539 c 1.332,-1.367 1.942,-2.422 1.618,-2.989 -0.321,-0.554 -1.497,-0.566 -3.274,-0.128 0.652,0.972 1.211,2.015 1.656,3.117 z M 10.402,29.695 c -1.492,1.481 -2.191,2.625 -1.847,3.223 0.332,0.578 1.59,0.566 3.488,0.074 -0.621,-1.082 -1.176,-2.183 -1.641,-3.297 z"
         style="fill:#ffffff;fill-opacity:1;fill-rule:evenodd;stroke:none;stroke-width:8.64;stroke-dasharray:none;stroke-opacity:1"
         transform="scale(1.3333333)" />
      <path
         id="path15"
         d="m 70.617,24.816 c 0,1.965 -0.367,3.645 -1.105,5.047 -0.731,1.395 -1.727,2.461 -2.989,3.203 -1.257,0.743 -2.687,1.114 -4.281,1.114 -1.597,0 -3.027,-0.371 -4.289,-1.114 -1.258,-0.746 -2.258,-1.82 -2.992,-3.214 -0.731,-1.399 -1.094,-3.079 -1.094,-5.036 0,-1.964 0.363,-3.644 1.094,-5.039 0.734,-1.398 1.734,-2.468 2.992,-3.211 1.262,-0.742 2.692,-1.113 4.289,-1.113 1.594,0 3.024,0.371 4.281,1.113 1.262,0.743 2.258,1.813 2.989,3.211 0.738,1.395 1.105,3.075 1.105,5.039 z m -3.32,0 c 0,-1.382 -0.219,-2.55 -0.649,-3.5 -0.429,-0.953 -1.023,-1.675 -1.781,-2.16 -0.762,-0.492 -1.637,-0.738 -2.625,-0.738 -0.992,0 -1.867,0.246 -2.625,0.738 -0.762,0.485 -1.355,1.207 -1.789,2.16 -0.43,0.95 -0.64,2.118 -0.64,3.5 0,1.383 0.21,2.551 0.64,3.508 0.434,0.949 1.027,1.668 1.789,2.16 0.758,0.489 1.633,0.731 2.625,0.731 0.988,0 1.863,-0.242 2.625,-0.731 0.758,-0.492 1.352,-1.211 1.781,-2.16 0.43,-0.957 0.649,-2.125 0.649,-3.508 z"
         style="fill:#ffffff;fill-opacity:1;fill-rule:nonzero;stroke:none;stroke-width:8.64;stroke-dasharray:none;stroke-opacity:1"
         transform="scale(1.3333333)" />
      <path
         id="path16"
         d="M 72.844,33.93 V 20.258 h 3.125 v 2.281 h 0.14 c 0.25,-0.789 0.676,-1.398 1.282,-1.824 0.613,-0.434 1.308,-0.652 2.093,-0.652 0.176,0 0.375,0.007 0.594,0.027 0.227,0.012 0.414,0.031 0.563,0.062 v 2.965 c -0.137,-0.047 -0.356,-0.09 -0.653,-0.125 -0.289,-0.043 -0.57,-0.062 -0.843,-0.062 -0.586,0 -1.118,0.125 -1.586,0.383 -0.461,0.25 -0.825,0.593 -1.094,1.039 -0.266,0.445 -0.399,0.961 -0.399,1.543 v 8.035 z"
         style="fill:#ffffff;fill-opacity:1;fill-rule:nonzero;stroke:none;stroke-width:8.64;stroke-dasharray:none;stroke-opacity:1"
         transform="scale(1.3333333)" />
      <path
         id="path17"
         d="m 87.41,39.34 c -1.156,0 -2.152,-0.156 -2.98,-0.473 -0.832,-0.308 -1.5,-0.722 -2.004,-1.246 -0.504,-0.519 -0.856,-1.098 -1.051,-1.734 l 2.902,-0.703 c 0.133,0.269 0.321,0.531 0.571,0.793 0.25,0.265 0.586,0.484 1.004,0.66 0.429,0.176 0.964,0.265 1.613,0.265 0.914,0 1.668,-0.222 2.269,-0.668 0.598,-0.437 0.899,-1.164 0.899,-2.171 v -2.59 h -0.16 c -0.168,0.332 -0.41,0.672 -0.731,1.023 -0.312,0.352 -0.734,0.645 -1.254,0.883 -0.515,0.234 -1.168,0.355 -1.949,0.355 -1.051,0 -2.004,-0.246 -2.859,-0.738 -0.848,-0.5 -1.524,-1.242 -2.028,-2.226 -0.5,-0.993 -0.746,-2.231 -0.746,-3.719 0,-1.504 0.246,-2.77 0.746,-3.801 0.504,-1.039 1.184,-1.824 2.039,-2.359 0.852,-0.539 1.805,-0.809 2.856,-0.809 0.801,0 1.461,0.137 1.976,0.41 0.524,0.266 0.938,0.59 1.247,0.969 0.308,0.375 0.543,0.727 0.703,1.059 h 0.175 v -2.262 h 3.18 v 13.894 c 0,1.168 -0.281,2.137 -0.836,2.903 -0.558,0.765 -1.32,1.336 -2.289,1.715 -0.965,0.382 -2.066,0.57 -3.293,0.57 z m 0.028,-8.133 c 0.683,0 1.261,-0.168 1.742,-0.5 0.484,-0.332 0.847,-0.809 1.097,-1.434 0.25,-0.621 0.371,-1.371 0.371,-2.242 0,-0.859 -0.121,-1.613 -0.371,-2.261 -0.246,-0.645 -0.605,-1.145 -1.086,-1.504 -0.476,-0.36 -1.058,-0.543 -1.753,-0.543 -0.719,0 -1.317,0.187 -1.797,0.562 -0.481,0.375 -0.844,0.887 -1.086,1.539 -0.246,0.649 -0.367,1.383 -0.367,2.207 0,0.836 0.121,1.571 0.367,2.199 0.25,0.622 0.613,1.11 1.093,1.461 0.489,0.344 1.082,0.516 1.79,0.516 z"
         style="fill:#ffffff;fill-opacity:1;fill-rule:nonzero;stroke:none;stroke-width:8.64;stroke-dasharray:none;stroke-opacity:1"
         transform="scale(1.3333333)" />
      <path
         id="path18"
         d="m 100.313,34.207 c -0.868,0 -1.649,-0.156 -2.344,-0.465 -0.688,-0.312 -1.235,-0.777 -1.637,-1.387 -0.398,-0.613 -0.594,-1.367 -0.594,-2.261 0,-0.774 0.141,-1.41 0.426,-1.914 0.285,-0.504 0.672,-0.907 1.164,-1.211 0.492,-0.301 1.047,-0.531 1.664,-0.684 0.625,-0.16 1.27,-0.277 1.934,-0.347 0.801,-0.083 1.449,-0.157 1.949,-0.223 0.496,-0.07 0.859,-0.18 1.086,-0.32 0.23,-0.149 0.348,-0.375 0.348,-0.684 v -0.055 c 0,-0.672 -0.2,-1.191 -0.598,-1.558 -0.398,-0.368 -0.969,-0.551 -1.719,-0.551 -0.789,0 -1.414,0.172 -1.875,0.516 -0.457,0.343 -0.765,0.75 -0.926,1.218 L 96.18,23.855 c 0.238,-0.832 0.629,-1.527 1.175,-2.082 0.547,-0.566 1.215,-0.984 2.004,-1.265 0.789,-0.285 1.661,-0.426 2.618,-0.426 0.656,0 1.312,0.078 1.964,0.231 0.653,0.152 1.25,0.41 1.789,0.765 0.54,0.352 0.973,0.828 1.301,1.434 0.332,0.605 0.496,1.359 0.496,2.269 v 9.149 h -3.093 v -1.879 h -0.11 c -0.195,0.379 -0.472,0.738 -0.828,1.07 -0.348,0.324 -0.789,0.59 -1.324,0.789 -0.527,0.195 -1.149,0.297 -1.859,0.297 z m 0.835,-2.371 c 0.645,0 1.207,-0.125 1.68,-0.379 0.477,-0.262 0.84,-0.605 1.098,-1.035 0.258,-0.426 0.39,-0.891 0.39,-1.395 v -1.613 c -0.101,0.082 -0.273,0.16 -0.515,0.231 -0.238,0.074 -0.504,0.136 -0.801,0.187 -0.297,0.055 -0.59,0.102 -0.883,0.145 -0.289,0.039 -0.543,0.074 -0.758,0.105 -0.48,0.066 -0.91,0.172 -1.289,0.32 -0.379,0.149 -0.679,0.356 -0.898,0.625 -0.219,0.258 -0.328,0.598 -0.328,1.012 0,0.594 0.215,1.043 0.648,1.344 0.434,0.305 0.985,0.453 1.656,0.453 z"
         style="fill:#ffffff;fill-opacity:1;fill-rule:nonzero;stroke:none;stroke-width:8.64;stroke-dasharray:none;stroke-opacity:1"
         transform="scale(1.3333333)" />
      <path
         id="path19"
         d="m 113.238,25.918 v 8.012 h -3.222 V 20.258 h 3.082 v 2.324 h 0.156 c 0.316,-0.766 0.82,-1.375 1.508,-1.824 0.691,-0.453 1.551,-0.676 2.57,-0.676 0.945,0 1.766,0.199 2.465,0.606 0.707,0.402 1.254,0.988 1.637,1.753 0.394,0.762 0.586,1.692 0.582,2.786 v 8.703 h -3.223 v -8.207 c 0,-0.914 -0.238,-1.629 -0.715,-2.145 -0.469,-0.515 -1.117,-0.773 -1.949,-0.773 -0.563,0 -1.063,0.125 -1.504,0.375 -0.434,0.242 -0.773,0.593 -1.023,1.058 -0.243,0.461 -0.364,1.024 -0.364,1.68 z"
         style="fill:#ffffff;fill-opacity:1;fill-rule:nonzero;stroke:none;stroke-width:8.64;stroke-dasharray:none;stroke-opacity:1"
         transform="scale(1.3333333)" />
      <path
         id="path20"
         d="M 124.539,33.93 V 20.258 h 3.219 V 33.93 Z m 1.617,-15.61 c -0.511,0 -0.949,-0.172 -1.316,-0.507 -0.367,-0.344 -0.551,-0.758 -0.551,-1.239 0,-0.484 0.184,-0.898 0.551,-1.238 0.367,-0.344 0.805,-0.516 1.316,-0.516 0.516,0 0.957,0.172 1.317,0.516 0.371,0.34 0.554,0.754 0.554,1.238 0,0.481 -0.183,0.895 -0.554,1.239 -0.36,0.335 -0.801,0.507 -1.317,0.507 z"
         style="fill:#ffffff;fill-opacity:1;fill-rule:nonzero;stroke:none;stroke-width:8.64;stroke-dasharray:none;stroke-opacity:1"
         transform="scale(1.3333333)" />
      <path
         id="path21"
         d="m 136.281,34.195 c -1.363,0 -2.535,-0.297 -3.515,-0.898 -0.973,-0.598 -1.723,-1.426 -2.25,-2.484 -0.524,-1.059 -0.782,-2.282 -0.782,-3.665 0,-1.39 0.266,-2.613 0.801,-3.675 0.531,-1.071 1.285,-1.899 2.258,-2.493 0.98,-0.601 2.137,-0.898 3.473,-0.898 1.109,0 2.089,0.203 2.945,0.613 0.859,0.403 1.547,0.977 2.055,1.719 0.511,0.734 0.8,1.594 0.875,2.578 h -3.082 c -0.125,-0.656 -0.422,-1.207 -0.891,-1.644 -0.461,-0.446 -1.082,-0.668 -1.859,-0.668 -0.657,0 -1.235,0.179 -1.735,0.535 -0.5,0.348 -0.886,0.851 -1.168,1.512 -0.269,0.66 -0.406,1.449 -0.406,2.367 0,0.933 0.137,1.734 0.406,2.402 0.274,0.664 0.657,1.18 1.149,1.539 0.5,0.36 1.082,0.535 1.754,0.535 0.476,0 0.898,-0.09 1.273,-0.265 0.379,-0.184 0.699,-0.45 0.953,-0.793 0.254,-0.344 0.43,-0.762 0.524,-1.254 h 3.082 c -0.078,0.965 -0.364,1.824 -0.856,2.57 -0.492,0.742 -1.164,1.324 -2.012,1.746 -0.847,0.414 -1.847,0.621 -2.992,0.621 z"
         style="fill:#ffffff;fill-opacity:1;fill-rule:nonzero;stroke:none;stroke-width:8.64;stroke-dasharray:none;stroke-opacity:1"
         transform="scale(1.3333333)" />
      <path
         id="path22"
         d="m 149.641,15.703 h 4.039 l 5.41,13.207 h 0.215 l 5.41,-13.207 h 4.043 V 33.93 H 165.59 V 21.406 h -0.172 l -5.035,12.469 h -2.367 l -5.039,-12.496 h -0.168 V 33.93 h -3.168 z"
         style="fill:#ffffff;fill-opacity:1;fill-rule:nonzero;stroke:none;stroke-width:8.64;stroke-dasharray:none;stroke-opacity:1"
         transform="scale(1.3333333)" />
      <path
         id="path23"
         d="m 175.391,34.207 c -0.864,0 -1.645,-0.156 -2.34,-0.465 -0.688,-0.312 -1.235,-0.777 -1.637,-1.387 -0.398,-0.613 -0.598,-1.367 -0.598,-2.261 0,-0.774 0.141,-1.41 0.426,-1.914 0.285,-0.504 0.676,-0.907 1.168,-1.211 0.492,-0.301 1.047,-0.531 1.664,-0.684 0.625,-0.16 1.266,-0.277 1.934,-0.347 0.801,-0.083 1.449,-0.157 1.945,-0.223 0.5,-0.07 0.863,-0.18 1.086,-0.32 0.234,-0.149 0.348,-0.375 0.348,-0.684 v -0.055 c 0,-0.672 -0.199,-1.191 -0.594,-1.558 -0.398,-0.368 -0.973,-0.551 -1.719,-0.551 -0.789,0 -1.414,0.172 -1.879,0.516 -0.457,0.343 -0.765,0.75 -0.925,1.218 l -3.008,-0.426 c 0.238,-0.832 0.629,-1.527 1.176,-2.082 0.542,-0.566 1.214,-0.984 2.003,-1.265 0.789,-0.285 1.661,-0.426 2.614,-0.426 0.66,0 1.316,0.078 1.968,0.231 0.653,0.152 1.25,0.41 1.79,0.765 0.539,0.352 0.972,0.828 1.296,1.434 0.336,0.605 0.5,1.359 0.5,2.269 v 9.149 h -3.097 v -1.879 h -0.106 c -0.195,0.379 -0.472,0.738 -0.828,1.07 -0.351,0.324 -0.793,0.59 -1.324,0.789 -0.531,0.195 -1.149,0.297 -1.863,0.297 z m 0.836,-2.371 c 0.648,0 1.211,-0.125 1.683,-0.379 0.477,-0.262 0.84,-0.605 1.094,-1.035 0.262,-0.426 0.391,-0.891 0.391,-1.395 v -1.613 c -0.098,0.082 -0.27,0.16 -0.516,0.231 -0.234,0.074 -0.504,0.136 -0.801,0.187 -0.297,0.055 -0.59,0.102 -0.879,0.145 -0.293,0.039 -0.543,0.074 -0.758,0.105 -0.48,0.066 -0.91,0.172 -1.289,0.32 -0.379,0.149 -0.679,0.356 -0.898,0.625 -0.219,0.258 -0.332,0.598 -0.332,1.012 0,0.594 0.219,1.043 0.652,1.344 0.43,0.305 0.985,0.453 1.653,0.453 z"
         style="fill:#ffffff;fill-opacity:1;fill-rule:nonzero;stroke:none;stroke-width:8.64;stroke-dasharray:none;stroke-opacity:1"
         transform="scale(1.3333333)" />
      <path
         id="path24"
         d="M 185.098,39.055 V 20.258 h 3.168 v 2.262 h 0.187 c 0.164,-0.332 0.399,-0.684 0.703,-1.059 0.301,-0.379 0.711,-0.703 1.227,-0.969 0.515,-0.273 1.176,-0.41 1.976,-0.41 1.055,0 2.008,0.27 2.856,0.809 0.855,0.535 1.531,1.328 2.031,2.375 0.504,1.047 0.754,2.328 0.754,3.847 0,1.5 -0.246,2.778 -0.738,3.825 -0.492,1.05 -1.16,1.851 -2.012,2.406 -0.848,0.551 -1.809,0.824 -2.883,0.824 -0.781,0 -1.433,-0.129 -1.949,-0.391 -0.516,-0.261 -0.93,-0.574 -1.246,-0.941 -0.309,-0.375 -0.547,-0.727 -0.719,-1.059 h -0.133 v 7.278 z m 3.16,-11.961 c 0,0.883 0.121,1.66 0.371,2.324 0.258,0.664 0.621,1.184 1.098,1.555 0.48,0.371 1.058,0.554 1.742,0.554 0.711,0 1.308,-0.191 1.789,-0.57 0.48,-0.387 0.844,-0.91 1.086,-1.574 0.25,-0.672 0.375,-1.434 0.375,-2.289 0,-0.848 -0.121,-1.602 -0.367,-2.262 -0.243,-0.656 -0.606,-1.172 -1.086,-1.547 -0.481,-0.375 -1.078,-0.562 -1.797,-0.562 -0.688,0 -1.274,0.183 -1.754,0.543 -0.481,0.363 -0.844,0.871 -1.094,1.523 -0.242,0.652 -0.363,1.422 -0.363,2.305 z"
         style="fill:#ffffff;fill-opacity:1;fill-rule:nonzero;stroke:none;stroke-width:8.64;stroke-dasharray:none;stroke-opacity:1"
         transform="scale(1.3333333)" />
      <path
         id="path25"
         d="m 210.813,23.871 -2.938,0.32 c -0.082,-0.296 -0.227,-0.574 -0.434,-0.836 -0.203,-0.261 -0.476,-0.472 -0.82,-0.632 -0.344,-0.16 -0.766,-0.239 -1.262,-0.239 -0.671,0 -1.234,0.145 -1.691,0.438 -0.453,0.289 -0.676,0.664 -0.668,1.129 -0.008,0.398 0.137,0.719 0.434,0.969 0.304,0.25 0.804,0.453 1.496,0.613 l 2.332,0.5 c 1.293,0.277 2.254,0.722 2.883,1.328 0.636,0.602 0.957,1.394 0.964,2.375 -0.007,0.859 -0.261,1.621 -0.757,2.277 -0.493,0.653 -1.18,1.164 -2.055,1.532 -0.879,0.367 -1.891,0.55 -3.027,0.55 -1.672,0 -3.02,-0.347 -4.04,-1.05 -1.023,-0.704 -1.628,-1.688 -1.824,-2.946 l 3.141,-0.301 c 0.141,0.618 0.441,1.082 0.906,1.399 0.465,0.312 1.067,0.469 1.805,0.469 0.769,0 1.383,-0.157 1.844,-0.469 0.468,-0.317 0.703,-0.703 0.703,-1.168 0,-0.391 -0.149,-0.715 -0.453,-0.969 -0.297,-0.258 -0.762,-0.453 -1.387,-0.59 l -2.332,-0.488 c -1.313,-0.273 -2.281,-0.734 -2.914,-1.379 -0.625,-0.652 -0.938,-1.476 -0.934,-2.476 -0.004,-0.84 0.223,-1.571 0.688,-2.188 0.468,-0.621 1.117,-1.105 1.949,-1.441 0.836,-0.344 1.801,-0.516 2.891,-0.516 1.601,0 2.863,0.34 3.785,1.023 0.925,0.68 1.496,1.606 1.715,2.766 z"
         style="fill:#ffffff;fill-opacity:1;fill-rule:nonzero;stroke:none;stroke-width:8.64;stroke-dasharray:none;stroke-opacity:1"
         transform="scale(1.3333333)" />
    </g>
  </g>
</svg>
