<?xml version="1.0" encoding="UTF-8" standalone="no"?>
<svg
   xmlns:dc="http://purl.org/dc/elements/1.1/"
   xmlns:cc="http://creativecommons.org/ns#"
   xmlns:rdf="http://www.w3.org/1999/02/22-rdf-syntax-ns#"
   xmlns:svg="http://www.w3.org/2000/svg"
   xmlns="http://www.w3.org/2000/svg"
   viewBox="0 0 288 96"
   height="96"
   width="288"
   xml:space="preserve"
   id="svg2"
   version="1.1"><metadata
     id="metadata8"><rdf:RDF><cc:Work
         rdf:about=""><dc:format>image/svg+xml</dc:format><dc:type
           rdf:resource="http://purl.org/dc/dcmitype/StillImage" /></cc:Work></rdf:RDF></metadata><defs
     id="defs6" /><g
     transform="matrix(1.3333333,0,0,1.3333333,0,2.4e-6)"
     id="g10"><g
       id="g12"><path
         id="path14"
         style="fill:#006c35;fill-opacity:1;fill-rule:nonzero;stroke:none"
         d="m 25.094,9.773 c -4.981,0.063 -9.926,1.821 -13.813,4.938 -3.875,3.086 -6.73,7.434 -8.008,12.223 -0.738,2.73 -0.996,5.601 -0.703,8.418 0.02,0.171 0.039,0.343 0.059,0.515 -1.133,1.254 -2.199,2.586 -2.977,4.098 -0.738,1.426 -1.199,3.023 -1.148,4.64 0.055,1.883 0.805,3.754 2.113,5.114 1.254,1.312 2.961,2.152 4.742,2.449 1.563,0.27 3.161,0.18 4.723,-0.051 0.078,-0.008 0.16,-0.023 0.238,-0.031 2.938,3.773 6.274,7.234 9.86,10.398 0.652,0.579 1.328,1.149 2.121,1.524 1.789,0.875 3.953,0.922 5.785,0.152 0.793,-0.324 1.508,-0.816 2.144,-1.383 0.75,-0.656 1.493,-1.32 2.227,-1.992 3.234,-2.992 6.231,-6.25 8.852,-9.793 1.972,-2.672 3.703,-5.535 4.98,-8.601 0.566,-1.368 1.035,-2.778 1.375,-4.219 0.395,2.453 1.34,4.832 2.832,6.824 1.645,2.207 3.934,3.949 6.531,4.871 2.969,1.063 6.266,1.176 9.301,0.34 0.086,-0.051 0.047,0.059 0.055,0.109 0,0.067 0,0.133 0,0.2 3.344,0 6.683,0 10.023,0 1.196,1.867 2.973,3.343 5,4.226 2.114,0.93 4.453,1.27 6.746,1.16 2.094,-0.093 4.188,-0.57 6.055,-1.539 1.672,-0.863 3.137,-2.144 4.18,-3.715 1.418,0.211 2.871,0.172 4.281,-0.082 0.207,-0.043 0.418,-0.054 0.629,-0.05 0.926,0.007 1.855,0 2.785,0.004 9.137,-0.004 18.27,-0.004 27.406,-0.004 1.188,0.23 2.403,0.3 3.61,0.238 2.062,-0.117 4.121,-0.688 5.894,-1.762 0.063,-0.039 0.125,-0.078 0.188,-0.117 0,0.547 0,1.094 0,1.641 4.797,0 9.59,0 14.386,0 0.446,-0.094 0.903,-0.039 1.356,-0.051 0.914,-0.004 1.832,-0.008 2.746,0.012 0.531,0.023 1.066,0.054 1.598,0.039 2.472,-0.008 4.949,0 7.422,0 0.679,0 1.359,0 2.039,0 1.679,0.355 3.425,0.347 5.109,0.035 0.262,-0.047 0.535,-0.035 0.801,-0.035 0,1.711 0,3.418 0,5.125 5.359,0 10.718,0 16.078,0 0,-1.707 0,-3.414 0,-5.121 0.699,-0.161 1.398,-0.344 2.062,-0.622 0.547,-0.222 1.078,-0.488 1.586,-0.793 1.629,0.926 3.473,1.438 5.336,1.602 1.66,0.145 3.348,0.059 4.977,-0.316 1.812,-0.422 3.551,-1.223 4.996,-2.411 1.496,-1.222 2.668,-2.851 3.281,-4.687 0.406,-1.191 0.578,-2.457 0.543,-3.715 0,-0.969 0.008,-1.933 -0.008,-2.898 -0.179,-1.5 -0.355,-3 -0.547,-4.496 -0.351,-1.457 -1.027,-2.836 -1.945,-4.02 -1.07,-1.379 -2.476,-2.492 -4.066,-3.211 -1.575,-0.719 -3.297,-1.058 -5.02,-1.121 -2.277,-0.094 -4.594,0.301 -6.652,1.293 -0.262,0.129 -0.524,0.266 -0.778,0.414 -2.148,-1.316 -4.73,-1.918 -7.242,-1.668 -0.527,0.055 -1.058,0.141 -1.59,0.125 -3.468,-0.008 -6.933,-0.004 -10.402,-0.004 -1.105,-0.164 -2.23,-0.207 -3.344,-0.133 -0.25,0.02 -0.5,0.043 -0.75,0.075 0,-1.5 0,-3 0,-4.5 -4.925,0 -9.851,0 -14.777,0 -0.402,0.984 -0.805,1.964 -1.207,2.949 -0.402,-0.985 -0.805,-1.965 -1.207,-2.949 -4.93,0 -9.856,0 -14.781,0 0,2.101 0,4.199 0,6.296 -1.133,-0.71 -2.391,-1.214 -3.688,-1.531 -1.812,-0.437 -3.715,-0.496 -5.554,-0.195 -0.473,-1.332 -1.297,-2.535 -2.379,-3.441 -1.582,-1.344 -3.676,-2.09 -5.754,-2.004 -2.629,0.093 -5.172,1.515 -6.625,3.707 -0.34,0.504 -0.617,1.05 -0.828,1.621 -0.493,-0.028 -0.985,-0.067 -1.477,-0.063 -0.66,0.012 -1.312,0.145 -1.973,0.176 -0.929,0 -1.859,-0.008 -2.785,-0.008 -2.66,-0.004 -5.316,0 -7.976,-0.004 -1.086,-0.156 -2.184,-0.207 -3.278,-0.133 -0.41,0.028 -0.812,0.079 -1.215,0.137 -3.683,0 -7.367,0 -11.054,0 -1.008,-0.176 -2.039,-0.187 -3.063,-0.16 -1.945,0.012 -3.886,-0.035 -5.832,-0.031 -0.297,-0.004 -0.597,-0.008 -0.894,0.019 -0.391,0.028 -0.782,0.086 -1.16,0.133 -0.446,0.074 -0.895,0.027 -1.344,0.039 -1.055,0 -2.11,0 -3.164,0 -1.473,-1.672 -3.348,-2.992 -5.43,-3.789 -3,-1.164 -6.375,-1.324 -9.484,-0.496 -2.133,0.574 -4.145,1.629 -5.782,3.117 -0.089,0.078 -0.175,0.156 -0.257,0.239 0.16,-1.797 -0.305,-3.649 -1.336,-5.129 -0.856,-1.254 -2.098,-2.235 -3.504,-2.805 -1.403,-0.586 -2.942,-0.789 -4.453,-0.738 -1.125,0.027 -2.243,0.195 -3.348,0.402 -1.5,-1.188 -3.129,-2.215 -4.875,-3 -2.898,-1.32 -6.078,-2.012 -9.266,-2.02 -0.101,0 -0.207,0 -0.308,0 z" /><path
         id="path16"
         style="fill:#ffffff;fill-opacity:1;fill-rule:evenodd;stroke:none"
         d="M 41.848,33.168 C 41.848,44.172 28.324,56 25.77,58.133 25.531,58.336 25.184,58.332 24.945,58.129 23.32,56.742 17.223,51.336 13.023,44.813 8.809,46.145 5.828,46.328 5.094,45.059 3.863,42.922 9.344,37.371 17.859,31.793 c 6.243,2.047 10.079,-2.516 12.743,-5.688 0.796,-0.949 1.488,-1.773 2.109,-2.253 0.238,-0.188 0.242,-0.657 -0.035,-0.782 -8.078,-3.644 -15.434,-1.242 -16.227,5.395 -0.035,0.273 0.266,0.449 0.496,0.301 3.11,-1.985 6.672,-3.446 9.36,-4.137 0.379,-0.098 0.465,0.285 0.101,0.426 -2.543,1 -5.09,2.371 -7.367,3.789 -0.016,0 -0.027,0.004 -0.039,0.011 -3.961,2.356 -7.352,4.805 -9.859,7.051 -0.176,-0.918 -0.274,-1.832 -0.274,-2.738 0,-9.371 7.383,-16.973 16.488,-16.973 4.911,0 9.317,2.207 12.336,5.711 4.215,-1.332 7.192,-1.515 7.926,-0.246 0.988,1.711 -2.332,5.613 -8.07,9.965 -1.379,1.094 -3.016,2.25 -4.852,3.422 -6.148,-1.922 -9.941,2.594 -12.582,5.738 -0.797,0.949 -1.488,1.77 -2.109,2.254 -0.238,0.188 -0.242,0.656 0.031,0.781 8.082,3.641 15.438,1.243 16.231,-5.398 0.031,-0.27 -0.27,-0.445 -0.5,-0.297 -3.106,1.984 -6.668,3.445 -9.356,4.137 -0.379,0.093 -0.469,-0.285 -0.101,-0.43 2.546,-0.996 5.093,-2.371 7.375,-3.793 0.011,0 0.019,-0.004 0.031,-0.008 4.027,-2.398 7.461,-4.886 9.98,-7.164 0.102,0.754 0.153,1.52 0.153,2.301 z m -1.27,-6.539 c 1.328,-1.367 1.942,-2.426 1.613,-2.988 -0.316,-0.555 -1.492,-0.567 -3.273,-0.129 0.656,0.968 1.211,2.015 1.66,3.117 z M 10.367,39.855 c -1.488,1.481 -2.191,2.625 -1.844,3.223 0.332,0.574 1.586,0.567 3.489,0.074 -0.621,-1.082 -1.176,-2.183 -1.645,-3.297 z" /><path
         id="path18"
         style="fill:#ffffff;fill-opacity:1;fill-rule:nonzero;stroke:none"
         d="m 70.582,34.977 c 0,1.961 -0.367,3.644 -1.102,5.046 -0.73,1.391 -1.726,2.461 -2.992,3.204 -1.258,0.742 -2.683,1.113 -4.281,1.113 -1.594,0 -3.023,-0.371 -4.289,-1.113 -1.258,-0.75 -2.254,-1.821 -2.988,-3.215 -0.731,-1.399 -1.098,-3.078 -1.098,-5.035 0,-1.965 0.367,-3.645 1.098,-5.039 0.734,-1.399 1.73,-2.473 2.988,-3.211 1.266,-0.743 2.695,-1.114 4.289,-1.114 1.598,0 3.023,0.371 4.281,1.114 1.266,0.738 2.262,1.812 2.992,3.211 0.735,1.394 1.102,3.074 1.102,5.039 z m -3.32,0 c 0,-1.383 -0.215,-2.551 -0.649,-3.5 -0.425,-0.954 -1.019,-1.676 -1.781,-2.161 -0.758,-0.492 -1.633,-0.738 -2.625,-0.738 -0.988,0 -1.863,0.246 -2.625,0.738 -0.758,0.485 -1.355,1.207 -1.789,2.161 -0.426,0.949 -0.641,2.117 -0.641,3.5 0,1.382 0.215,2.55 0.641,3.503 0.434,0.95 1.031,1.672 1.789,2.165 0.762,0.488 1.637,0.73 2.625,0.73 0.992,0 1.867,-0.242 2.625,-0.73 0.762,-0.493 1.356,-1.215 1.781,-2.165 0.434,-0.953 0.649,-2.121 0.649,-3.503 z" /><path
         id="path20"
         style="fill:#ffffff;fill-opacity:1;fill-rule:nonzero;stroke:none"
         d="M 72.813,44.09 V 30.418 h 3.121 v 2.277 h 0.144 c 0.246,-0.789 0.676,-1.394 1.281,-1.824 0.61,-0.433 1.309,-0.648 2.09,-0.648 0.18,0 0.379,0.007 0.598,0.027 0.226,0.012 0.41,0.031 0.558,0.063 v 2.96 c -0.136,-0.046 -0.351,-0.085 -0.648,-0.121 -0.289,-0.043 -0.574,-0.062 -0.844,-0.062 -0.59,0 -1.117,0.125 -1.586,0.383 -0.461,0.246 -0.828,0.593 -1.093,1.039 -0.27,0.445 -0.403,0.957 -0.403,1.539 v 8.039 z" /><path
         id="path22"
         style="fill:#ffffff;fill-opacity:1;fill-rule:nonzero;stroke:none"
         d="m 87.379,49.5 c -1.16,0 -2.152,-0.156 -2.984,-0.473 -0.829,-0.308 -1.497,-0.722 -2,-1.246 -0.504,-0.519 -0.856,-1.101 -1.051,-1.734 l 2.902,-0.703 c 0.129,0.265 0.32,0.531 0.567,0.793 0.25,0.265 0.585,0.484 1.007,0.656 0.426,0.18 0.965,0.27 1.61,0.27 0.914,0 1.672,-0.223 2.269,-0.668 0.602,-0.442 0.899,-1.165 0.899,-2.172 v -2.59 h -0.16 c -0.165,0.332 -0.407,0.672 -0.727,1.023 -0.316,0.352 -0.734,0.645 -1.258,0.879 -0.515,0.238 -1.164,0.36 -1.949,0.36 -1.047,0 -2,-0.247 -2.856,-0.743 -0.847,-0.496 -1.523,-1.238 -2.027,-2.222 -0.5,-0.992 -0.75,-2.231 -0.75,-3.719 0,-1.504 0.25,-2.77 0.75,-3.801 0.504,-1.039 1.184,-1.824 2.035,-2.359 0.856,-0.539 1.809,-0.809 2.86,-0.809 0.8,0 1.457,0.137 1.972,0.406 0.524,0.27 0.938,0.59 1.246,0.973 0.309,0.371 0.543,0.727 0.704,1.059 h 0.179 v -2.262 h 3.176 v 13.895 c 0,1.167 -0.277,2.132 -0.836,2.898 -0.559,0.766 -1.32,1.34 -2.285,1.719 -0.969,0.379 -2.067,0.57 -3.293,0.57 z m 0.023,-8.133 c 0.684,0 1.266,-0.168 1.746,-0.5 0.481,-0.332 0.848,-0.808 1.094,-1.433 0.25,-0.621 0.375,-1.371 0.375,-2.243 0,-0.859 -0.125,-1.613 -0.375,-2.261 -0.242,-0.645 -0.605,-1.149 -1.086,-1.504 -0.472,-0.36 -1.058,-0.543 -1.754,-0.543 -0.714,0 -1.316,0.187 -1.797,0.562 -0.48,0.371 -0.839,0.887 -1.085,1.539 -0.243,0.645 -0.364,1.383 -0.364,2.207 0,0.836 0.121,1.571 0.364,2.2 0.25,0.621 0.617,1.109 1.097,1.457 0.485,0.343 1.082,0.519 1.785,0.519 z" /><path
         id="path24"
         style="fill:#ffffff;fill-opacity:1;fill-rule:nonzero;stroke:none"
         d="m 100.277,44.363 c -0.867,0 -1.644,-0.152 -2.339,-0.461 -0.688,-0.316 -1.235,-0.777 -1.637,-1.39 -0.399,-0.61 -0.598,-1.364 -0.598,-2.258 0,-0.774 0.145,-1.41 0.426,-1.914 0.285,-0.504 0.676,-0.91 1.168,-1.211 0.492,-0.301 1.047,-0.531 1.664,-0.684 0.621,-0.16 1.266,-0.277 1.93,-0.347 0.8,-0.086 1.453,-0.16 1.949,-0.223 0.5,-0.07 0.863,-0.18 1.086,-0.32 0.234,-0.149 0.347,-0.379 0.347,-0.688 v -0.051 c 0,-0.671 -0.199,-1.191 -0.593,-1.558 -0.399,-0.367 -0.973,-0.551 -1.719,-0.551 -0.789,0 -1.414,0.172 -1.879,0.516 -0.457,0.343 -0.766,0.75 -0.926,1.218 l -3.008,-0.425 c 0.239,-0.832 0.629,-1.528 1.176,-2.086 0.547,-0.563 1.211,-0.985 2,-1.262 0.789,-0.285 1.664,-0.426 2.617,-0.426 0.661,0 1.317,0.074 1.969,0.231 0.653,0.152 1.25,0.41 1.789,0.765 0.539,0.348 0.973,0.828 1.297,1.434 0.332,0.601 0.5,1.359 0.5,2.269 v 9.149 h -3.098 v -1.879 h -0.105 c -0.195,0.379 -0.473,0.734 -0.828,1.066 -0.352,0.328 -0.793,0.594 -1.328,0.793 -0.528,0.196 -1.149,0.293 -1.86,0.293 z m 0.836,-2.367 c 0.649,0 1.207,-0.125 1.684,-0.383 0.476,-0.261 0.84,-0.605 1.094,-1.031 0.261,-0.426 0.39,-0.894 0.39,-1.398 v -1.61 c -0.097,0.082 -0.269,0.16 -0.515,0.231 -0.235,0.07 -0.504,0.133 -0.801,0.187 -0.297,0.055 -0.59,0.102 -0.879,0.141 -0.293,0.043 -0.543,0.078 -0.758,0.109 -0.48,0.067 -0.91,0.172 -1.289,0.321 -0.383,0.148 -0.68,0.355 -0.898,0.621 -0.223,0.261 -0.332,0.601 -0.332,1.015 0,0.594 0.218,1.043 0.652,1.344 0.43,0.305 0.984,0.453 1.652,0.453 z" /><path
         id="path26"
         style="fill:#ffffff;fill-opacity:1;fill-rule:nonzero;stroke:none"
         d="m 113.203,36.078 v 8.012 h -3.219 V 30.418 h 3.079 v 2.324 h 0.16 c 0.316,-0.765 0.816,-1.375 1.504,-1.824 0.695,-0.453 1.55,-0.676 2.574,-0.676 0.941,0 1.765,0.199 2.465,0.602 0.703,0.406 1.25,0.988 1.636,1.754 0.391,0.765 0.586,1.695 0.578,2.785 v 8.707 h -3.222 v -8.207 c 0,-0.914 -0.235,-1.629 -0.711,-2.145 -0.469,-0.515 -1.117,-0.773 -1.949,-0.773 -0.563,0 -1.067,0.125 -1.504,0.371 -0.434,0.246 -0.774,0.598 -1.024,1.062 -0.242,0.461 -0.367,1.024 -0.367,1.68 z" /><path
         id="path28"
         style="fill:#ffffff;fill-opacity:1;fill-rule:nonzero;stroke:none"
         d="M 124.504,44.09 V 30.418 h 3.223 V 44.09 Z m 1.621,-15.613 c -0.512,0 -0.949,-0.168 -1.32,-0.504 -0.367,-0.348 -0.551,-0.758 -0.551,-1.239 0,-0.488 0.184,-0.898 0.551,-1.238 0.371,-0.344 0.808,-0.516 1.32,-0.516 0.516,0 0.953,0.172 1.316,0.516 0.368,0.34 0.551,0.75 0.551,1.238 0,0.481 -0.183,0.891 -0.551,1.239 -0.363,0.336 -0.8,0.504 -1.316,0.504 z" /><path
         id="path30"
         style="fill:#ffffff;fill-opacity:1;fill-rule:nonzero;stroke:none"
         d="m 136.25,44.355 c -1.363,0 -2.535,-0.3 -3.516,-0.898 -0.972,-0.598 -1.722,-1.426 -2.25,-2.484 -0.523,-1.063 -0.785,-2.282 -0.785,-3.664 0,-1.391 0.266,-2.614 0.801,-3.676 0.535,-1.07 1.289,-1.899 2.262,-2.492 0.98,-0.602 2.136,-0.899 3.468,-0.899 1.114,0 2.094,0.203 2.95,0.613 0.859,0.403 1.543,0.977 2.054,1.715 0.508,0.739 0.801,1.598 0.871,2.582 h -3.078 c -0.125,-0.656 -0.422,-1.207 -0.89,-1.644 -0.461,-0.445 -1.082,-0.668 -1.86,-0.668 -0.66,0 -1.238,0.176 -1.738,0.535 -0.496,0.348 -0.887,0.852 -1.164,1.512 -0.273,0.656 -0.41,1.445 -0.41,2.367 0,0.93 0.137,1.73 0.41,2.402 0.273,0.664 0.656,1.18 1.148,1.539 0.5,0.356 1.082,0.535 1.754,0.535 0.473,0 0.899,-0.089 1.274,-0.265 0.379,-0.188 0.695,-0.449 0.949,-0.793 0.258,-0.344 0.434,-0.762 0.527,-1.254 h 3.078 c -0.078,0.965 -0.363,1.824 -0.855,2.57 -0.492,0.742 -1.16,1.325 -2.012,1.746 -0.847,0.414 -1.843,0.621 -2.988,0.621 z" /><path
         id="path32"
         style="fill:#ffffff;fill-opacity:1;fill-rule:nonzero;stroke:none"
         d="m 149.605,25.863 h 4.043 l 5.411,13.207 h 0.214 l 5.411,-13.207 h 4.039 V 44.09 h -3.168 V 31.566 h -0.168 l -5.039,12.469 h -2.368 l -5.035,-12.496 h -0.172 V 44.09 h -3.168 z" /><path
         id="path34"
         style="fill:#ffffff;fill-opacity:1;fill-rule:nonzero;stroke:none"
         d="m 175.359,44.363 c -0.867,0 -1.648,-0.152 -2.339,-0.461 -0.692,-0.316 -1.235,-0.777 -1.641,-1.39 -0.395,-0.61 -0.594,-1.364 -0.594,-2.258 0,-0.774 0.141,-1.41 0.426,-1.914 0.285,-0.504 0.672,-0.91 1.168,-1.211 0.492,-0.301 1.047,-0.531 1.664,-0.684 0.621,-0.16 1.266,-0.277 1.93,-0.347 0.8,-0.086 1.449,-0.16 1.949,-0.223 0.5,-0.07 0.859,-0.18 1.086,-0.32 0.23,-0.149 0.347,-0.379 0.347,-0.688 v -0.051 c 0,-0.671 -0.199,-1.191 -0.597,-1.558 -0.399,-0.367 -0.969,-0.551 -1.715,-0.551 -0.789,0 -1.418,0.172 -1.879,0.516 -0.457,0.343 -0.766,0.75 -0.926,1.218 l -3.008,-0.425 c 0.239,-0.832 0.629,-1.528 1.176,-2.086 0.543,-0.563 1.211,-0.985 2,-1.262 0.789,-0.285 1.66,-0.426 2.617,-0.426 0.661,0 1.313,0.074 1.965,0.231 0.653,0.152 1.25,0.41 1.789,0.765 0.539,0.348 0.973,0.828 1.301,1.434 0.332,0.601 0.5,1.359 0.5,2.269 v 9.149 h -3.098 v -1.879 h -0.109 c -0.195,0.379 -0.469,0.734 -0.828,1.066 -0.348,0.328 -0.789,0.594 -1.324,0.793 -0.528,0.196 -1.149,0.293 -1.86,0.293 z m 0.836,-2.367 c 0.649,0 1.207,-0.125 1.684,-0.383 0.473,-0.261 0.84,-0.605 1.094,-1.031 0.261,-0.426 0.39,-0.894 0.39,-1.398 v -1.61 c -0.101,0.082 -0.273,0.16 -0.515,0.231 -0.239,0.07 -0.504,0.133 -0.801,0.187 -0.297,0.055 -0.59,0.102 -0.883,0.141 -0.289,0.043 -0.543,0.078 -0.754,0.109 -0.48,0.067 -0.914,0.172 -1.293,0.321 -0.379,0.148 -0.679,0.355 -0.898,0.621 -0.219,0.261 -0.328,0.601 -0.328,1.015 0,0.594 0.214,1.043 0.648,1.344 0.434,0.305 0.984,0.453 1.656,0.453 z" /><path
         id="path36"
         style="fill:#ffffff;fill-opacity:1;fill-rule:nonzero;stroke:none"
         d="M 185.063,49.215 V 30.418 h 3.167 v 2.262 h 0.188 c 0.168,-0.332 0.402,-0.688 0.703,-1.059 0.305,-0.383 0.715,-0.703 1.231,-0.973 0.515,-0.269 1.175,-0.406 1.972,-0.406 1.059,0 2.012,0.27 2.86,0.809 0.855,0.535 1.531,1.324 2.027,2.375 0.504,1.047 0.758,2.328 0.758,3.844 0,1.503 -0.246,2.777 -0.739,3.828 -0.492,1.05 -1.164,1.851 -2.011,2.402 -0.848,0.555 -1.809,0.828 -2.883,0.828 -0.785,0 -1.434,-0.129 -1.949,-0.39 -0.516,-0.262 -0.934,-0.575 -1.246,-0.946 -0.309,-0.371 -0.547,-0.726 -0.723,-1.058 h -0.133 v 7.281 z m 3.16,-11.961 c 0,0.883 0.125,1.656 0.375,2.324 0.254,0.664 0.621,1.184 1.093,1.555 0.481,0.367 1.063,0.555 1.747,0.555 0.71,0 1.308,-0.192 1.789,-0.571 0.48,-0.387 0.839,-0.91 1.086,-1.578 0.25,-0.668 0.371,-1.43 0.371,-2.285 0,-0.848 -0.121,-1.602 -0.364,-2.262 -0.242,-0.656 -0.605,-1.176 -1.086,-1.547 -0.48,-0.375 -1.078,-0.562 -1.796,-0.562 -0.692,0 -1.274,0.183 -1.754,0.543 -0.481,0.363 -0.844,0.871 -1.094,1.523 -0.242,0.653 -0.367,1.422 -0.367,2.305 z" /><path
         id="path38"
         style="fill:#ffffff;fill-opacity:1;fill-rule:nonzero;stroke:none"
         d="m 210.781,34.031 -2.937,0.321 c -0.082,-0.297 -0.231,-0.575 -0.438,-0.836 -0.199,-0.262 -0.472,-0.473 -0.816,-0.633 -0.344,-0.16 -0.766,-0.238 -1.266,-0.238 -0.668,0 -1.234,0.144 -1.691,0.433 -0.449,0.293 -0.672,0.668 -0.668,1.133 -0.004,0.394 0.14,0.719 0.437,0.969 0.305,0.25 0.801,0.453 1.496,0.613 l 2.332,0.5 c 1.293,0.277 2.254,0.719 2.883,1.324 0.633,0.606 0.957,1.399 0.961,2.379 -0.004,0.859 -0.258,1.617 -0.758,2.277 -0.492,0.653 -1.175,1.165 -2.054,1.532 -0.879,0.367 -1.887,0.55 -3.028,0.55 -1.671,0 -3.019,-0.351 -4.039,-1.05 -1.019,-0.707 -1.629,-1.688 -1.824,-2.946 l 3.141,-0.3 c 0.144,0.617 0.445,1.082 0.91,1.394 0.461,0.317 1.062,0.473 1.805,0.473 0.765,0 1.378,-0.156 1.843,-0.473 0.469,-0.312 0.703,-0.703 0.703,-1.164 0,-0.391 -0.152,-0.715 -0.453,-0.973 -0.297,-0.253 -0.761,-0.449 -1.39,-0.586 l -2.332,-0.488 c -1.313,-0.273 -2.282,-0.734 -2.91,-1.379 -0.629,-0.652 -0.938,-1.48 -0.934,-2.476 -0.004,-0.84 0.223,-1.571 0.684,-2.188 0.468,-0.625 1.121,-1.105 1.949,-1.441 0.836,-0.344 1.801,-0.516 2.894,-0.516 1.602,0 2.864,0.34 3.782,1.024 0.925,0.679 1.5,1.601 1.718,2.765 z" /><g
         id="g40"><path
           id="path42"
           style="fill:none;stroke:#ff0000;stroke-width:0.20527101;stroke-linecap:butt;stroke-linejoin:miter;stroke-miterlimit:4;stroke-dasharray:none;stroke-opacity:1"
           d="m 25.094,12.238 c -4.153,0.059 -8.278,1.438 -11.625,3.899 -3.793,2.781 -6.598,6.875 -7.813,11.418 -0.683,2.535 -0.918,5.199 -0.601,7.808 0.047,0.442 0.105,0.883 0.164,1.325 -1.156,1.25 -2.317,2.523 -3.164,4.011 -0.571,1.004 -0.996,2.114 -1.075,3.274 -0.074,1.058 0.153,2.14 0.684,3.058 0.504,0.879 1.274,1.594 2.168,2.059 0.93,0.492 1.977,0.723 3.023,0.765 1.239,0.071 2.469,-0.105 3.692,-0.296 0.355,-0.051 0.734,0.023 1.027,0.242 0.309,0.207 0.5,0.535 0.731,0.82 2.781,3.57 5.933,6.848 9.316,9.856 0.504,0.433 0.996,0.898 1.582,1.226 1.164,0.633 2.606,0.703 3.836,0.223 0.5,-0.192 0.957,-0.477 1.356,-0.824 0.57,-0.473 1.117,-0.977 1.671,-1.469 3.368,-3.039 6.489,-6.367 9.196,-10.012 1.851,-2.496 3.48,-5.172 4.695,-8.039 0.992,-2.355 1.672,-4.867 1.816,-7.434 0.067,-1.046 0.024,-2.097 -0.078,-3.144 -0.031,-0.359 -0.062,-0.719 -0.093,-1.078 1.078,-1.18 2.16,-2.371 2.972,-3.758 0.606,-1.027 1.067,-2.168 1.156,-3.367 0.094,-1.176 -0.187,-2.387 -0.843,-3.371 -0.61,-0.93 -1.516,-1.653 -2.551,-2.051 -1.148,-0.465 -2.41,-0.582 -3.641,-0.52 -1.215,0.059 -2.414,0.301 -3.609,0.528 -0.238,0.015 -0.449,-0.125 -0.609,-0.289 -1.305,-1.075 -2.715,-2.039 -4.239,-2.782 -2.605,-1.293 -5.5,-2.003 -8.41,-2.074 -0.242,-0.004 -0.488,-0.008 -0.734,-0.004 z m 101.09,8.782 c -1.672,-0.024 -3.329,0.718 -4.446,1.96 -0.597,0.665 -1.058,1.469 -1.23,2.352 -0.09,0.438 -0.113,0.883 -0.11,1.328 -1.308,-0.265 -2.656,-0.258 -3.984,-0.222 -0.707,0.019 -1.414,0.031 -2.117,0.023 -1.414,-0.008 -2.832,0 -4.246,-0.008 -0.742,-0.012 -1.496,-0.062 -2.231,0.082 -0.441,0.09 -0.871,0.285 -1.183,0.613 -0.039,0.032 -0.063,0.114 -0.117,0.063 -0.665,-0.32 -1.368,-0.539 -2.09,-0.672 -1.004,-0.203 -2.035,-0.281 -3.059,-0.246 -1.367,0.062 -2.734,0.348 -3.996,0.895 -0.266,-0.364 -0.691,-0.594 -1.133,-0.676 -0.363,-0.078 -0.738,-0.067 -1.109,-0.059 -3.828,0 -7.656,0.047 -11.485,0.074 -0.875,0 -1.75,0.012 -2.625,0.028 -0.039,0 -0.125,0.004 -0.183,0.004 -0.914,0.011 -1.828,-0.008 -2.742,-0.047 -0.02,0 -0.125,-0.004 -0.18,-0.008 -0.453,-0.016 -0.902,-0.059 -1.355,-0.047 -1.536,0 -3.071,0 -4.606,0 -1.125,-1.531 -2.613,-2.801 -4.332,-3.609 -2.211,-1.055 -4.734,-1.403 -7.152,-1.082 -2.172,0.289 -4.278,1.144 -5.973,2.535 -1.715,1.402 -3.012,3.289 -3.762,5.367 -0.57,1.574 -0.82,3.25 -0.855,4.918 -0.028,1.562 0.117,3.137 0.527,4.644 0.512,1.911 1.453,3.711 2.789,5.176 1.254,1.391 2.844,2.489 4.61,3.125 1.648,0.598 3.418,0.84 5.164,0.742 1.972,-0.109 3.933,-0.671 5.629,-1.699 0.082,-0.054 0.16,-0.105 0.242,-0.16 0.011,0.547 0.019,1.094 0.027,1.637 3.004,0 6.004,0 9.008,0 0.824,1.922 2.418,3.469 4.309,4.34 1.656,0.777 3.503,1.089 5.324,1.066 1.754,-0.019 3.519,-0.332 5.117,-1.062 1.273,-0.582 2.426,-1.446 3.297,-2.543 0.551,-0.696 0.992,-1.481 1.293,-2.317 0.426,0.113 0.855,0.219 1.289,0.301 1.402,0.273 2.84,0.277 4.262,0.242 0.793,-0.019 1.589,-0.031 2.382,-0.023 8.864,-0.004 17.731,-0.004 26.598,-0.004 -0.008,-0.223 -0.02,-0.449 -0.027,-0.668 1.129,0.515 2.355,0.812 3.593,0.894 1.84,0.141 3.731,-0.117 5.422,-0.879 2.008,-0.902 3.688,-2.558 4.555,-4.589 0.133,-0.313 0.25,-0.629 0.352,-0.954 0,2.071 0,4.137 0,6.204 3.367,-0.02 6.734,-0.032 10.101,-0.028 5.469,0 10.938,0.02 16.406,0.02 0.203,0.004 0.403,0.004 0.606,0.004 0.012,-0.047 -0.047,-0.172 0.035,-0.137 1.359,0.293 2.758,0.266 4.137,0.195 0.613,-0.031 1.226,-0.07 1.84,-0.062 0.777,0.012 1.554,-0.008 2.332,-0.016 0,1.715 0,3.43 0,5.145 3.714,0 7.429,0 11.148,0 0,-1.547 0,-3.094 0,-4.641 0.762,-0.16 1.527,-0.332 2.285,-0.508 0.801,-0.195 1.594,-0.468 2.289,-0.922 0.504,-0.32 0.973,-0.695 1.43,-1.074 1.094,0.938 2.426,1.567 3.816,1.91 1.325,0.328 2.7,0.418 4.059,0.336 1.711,-0.109 3.418,-0.562 4.894,-1.445 1.473,-0.871 2.704,-2.184 3.379,-3.762 0.453,-1.051 0.657,-2.203 0.633,-3.347 0.149,-1.68 0.11,-3.379 -0.14,-5.047 -0.11,-0.731 -0.243,-1.461 -0.422,-2.176 -0.618,-2.285 -2.297,-4.238 -4.43,-5.246 -1.469,-0.699 -3.109,-0.969 -4.727,-0.977 -1.371,-0.011 -2.746,0.203 -4.035,0.664 -0.476,0.176 -0.949,0.375 -1.386,0.629 -0.532,0.328 -0.989,0.754 -1.43,1.192 -0.563,-0.547 -1.149,-1.094 -1.856,-1.457 -1.019,-0.469 -2.125,-0.739 -3.242,-0.825 -1.258,-0.109 -2.519,0 -3.777,-0.027 -2.828,0 -5.656,-0.004 -8.485,-0.004 0,0.176 0,0.352 -0.003,0.527 -1.422,-0.519 -2.954,-0.722 -4.465,-0.691 -1.356,0.035 -2.711,0.301 -3.969,0.809 -0.012,-1.133 0,-2.27 0.016,-3.407 0,-0.05 0,-0.136 0.004,-0.203 0.007,-0.531 0.015,-1.062 0.023,-1.59 -3.563,0 -7.125,0 -10.688,0 -0.953,2.325 -1.906,4.653 -2.859,6.977 -0.953,-2.324 -1.906,-4.652 -2.859,-6.977 -3.555,0 -7.11,0 -10.66,0 0,3.59 0,7.184 0,10.774 -0.598,-1.891 -1.864,-3.559 -3.5,-4.676 -0.95,-0.652 -2.032,-1.101 -3.145,-1.383 -1.488,-0.367 -3.051,-0.429 -4.566,-0.199 -0.883,0.141 -1.75,0.387 -2.571,0.742 0.024,-0.863 -0.023,-1.75 -0.34,-2.562 -0.523,-1.328 -1.601,-2.406 -2.89,-3.008 -0.766,-0.363 -1.606,-0.563 -2.449,-0.566 z" /></g></g></g></svg>