<?xml version="1.0" encoding="UTF-8" standalone="no"?>
<svg
   width="3in"
   height="3in"
   viewBox="0 0 287.99078 287.99078"
   fill="none"
   version="1.1"
   id="svg12"
   sodipodi:docname="sticker-invert-3x3.pdf"
   inkscape:version="1.3 (0e150ed6c4, 2023-07-21)"
   inkscape:export-filename="sticker-invert-3x3.png"
   inkscape:export-xdpi="933.33331"
   inkscape:export-ydpi="933.33331"
   xmlns:inkscape="http://www.inkscape.org/namespaces/inkscape"
   xmlns:sodipodi="http://sodipodi.sourceforge.net/DTD/sodipodi-0.dtd"
   xmlns="http://www.w3.org/2000/svg"
   xmlns:svg="http://www.w3.org/2000/svg">
  <defs
     id="defs12" />
  <sodipodi:namedview
     id="namedview12"
     pagecolor="#ffffff"
     bordercolor="#000000"
     borderopacity="0.25"
     inkscape:showpageshadow="2"
     inkscape:pageopacity="0.0"
     inkscape:pagecheckerboard="0"
     inkscape:deskcolor="#d1d1d1"
     showgrid="false"
     inkscape:document-units="mm"
     inkscape:zoom="1.4142136"
     inkscape:cx="122.32947"
     inkscape:cy="154.14928"
     inkscape:window-width="1232"
     inkscape:window-height="852"
     inkscape:window-x="1059"
     inkscape:window-y="284"
     inkscape:window-maximized="0"
     inkscape:current-layer="svg12"
     showguides="true" />
  <g
     id="g45"
     transform="matrix(0.90082652,0,0,0.90082652,14.594079,14.30889)">
    <g
       id="g42"
       transform="matrix(0.29210525,0,0,0.29210525,408.10301,61.4667)"
       style="display:inline;vector-effect:non-scaling-stroke;fill:#ffffff;fill-opacity:1;stroke-width:7.11546;stroke-dasharray:none;-inkscape-stroke:hairline"
       inkscape:label="organic">
      <path
         d="m -1168.3102,338.47783 c 0,18.6654 -3.4958,34.65089 -10.4876,47.95946 -6.9358,13.25058 -16.4095,23.40125 -28.4201,30.45003 -11.9546,7.04777 -25.5162,10.57266 -40.6847,10.57266 -15.1685,0 -28.7591,-3.52489 -40.7697,-10.57266 -11.9546,-7.10578 -21.4273,-17.28345 -28.4201,-30.53503 -6.9358,-13.30757 -10.4037,-29.26606 -10.4037,-47.87446 0,-18.66441 3.4679,-34.62289 10.4037,-47.87347 6.9928,-13.30857 16.4655,-23.48625 28.4201,-30.53502 12.0106,-7.04858 25.6012,-10.57286 40.7697,-10.57286 15.1685,0 28.7301,3.52428 40.6847,10.57286 12.0106,7.04877 21.4843,17.22645 28.4201,30.53502 6.9918,13.25058 10.4876,29.20906 10.4876,47.87347 z m -31.549,0 c 0,-13.13858 -2.0589,-24.21923 -6.1748,-33.24094 -4.0598,-9.07871 -9.6986,-15.92949 -16.9164,-20.55334 -7.2178,-4.68085 -15.5355,-7.02078 -24.9522,-7.02078 -9.4167,0 -17.7344,2.33993 -24.9522,7.02078 -7.2178,4.62385 -12.8846,11.47463 -17.0015,20.55334 -4.0598,9.02171 -6.0898,20.10236 -6.0898,33.24094 0,13.13858 2.03,24.24722 6.0898,33.32593 4.1169,9.02271 9.7837,15.87349 17.0015,20.55434 7.2178,4.62385 15.5355,6.93578 24.9522,6.93578 9.4167,0 17.7344,-2.31193 24.9522,-6.93578 7.2178,-4.68085 12.8566,-11.53163 16.9164,-20.55434 4.1159,-9.07871 6.1748,-20.18735 6.1748,-33.32593 z"
         fill="#006b36"
         id="path2"
         style="vector-effect:non-scaling-stroke;fill:#ffffff;fill-opacity:1;stroke-width:7.11546;stroke-dasharray:none;-inkscape-stroke:hairline" />
      <path
         d="M -1147.1408,425.09105 V 295.17121 h 29.688 v 21.65331 h 1.354 c 2.3679,-7.49976 6.4278,-13.27957 12.1796,-17.33944 5.8078,-4.11587 12.4336,-6.17481 19.8773,-6.17481 1.692,0 3.5809,0.085 5.6669,0.25399 2.1429,0.113 3.9188,0.30999 5.3288,0.59199 v 28.16609 c -1.297,-0.45098 -3.3549,-0.84497 -6.1748,-1.18396 -2.7629,-0.39499 -5.4418,-0.59198 -8.0348,-0.59198 -5.5828,0 -10.6016,1.21196 -15.0565,3.63688 -4.3978,2.36893 -7.8657,5.66782 -10.4036,9.89669 -2.537,4.22886 -3.8059,9.10671 -3.8059,14.63253 v 76.37855 z"
         fill="#006b36"
         id="path3"
         style="vector-effect:non-scaling-stroke;fill:#ffffff;fill-opacity:1;stroke-width:7.11546;stroke-dasharray:none;-inkscape-stroke:hairline" />
      <path
         d="m -1008.6973,476.51841 c -10.9966,0 -20.4413,-1.49495 -28.3361,-4.48286 -7.8947,-2.9329 -14.2375,-6.87978 -19.0314,-11.84162 -4.7928,-4.96284 -8.1197,-10.46066 -9.9806,-16.49447 l 27.5741,-6.68179 c 1.2409,2.53792 3.0449,5.04684 5.4138,7.52776 2.3679,2.53792 5.5538,4.62385 9.5577,6.2598 4.0599,1.69095 9.1627,2.53692 15.3095,2.53692 8.68373,0 15.8735,-2.11393 21.56832,-6.3438 5.69582,-4.17286 8.54373,-11.05164 8.54373,-20.63834 V 401.7468 h -1.52296 c -1.57895,3.1579 -3.89087,6.3998 -6.93577,9.72669 -2.98891,3.32689 -6.96378,6.1178 -11.92662,8.37373 -4.9058,2.25593 -11.0796,3.38389 -18.5234,3.38389 -9.9807,0 -19.0314,-2.34092 -27.1511,-7.02077 -8.0638,-4.73685 -14.4916,-11.78562 -19.2854,-21.14632 -4.7369,-9.4167 -7.1048,-21.20233 -7.1048,-35.35587 0,-14.26555 2.3679,-26.30516 7.1048,-36.11685 4.7938,-9.86768 11.2496,-17.33944 19.3704,-22.41428 8.1197,-5.13183 17.1704,-7.69675 27.1511,-7.69675 7.6117,0 13.8715,1.29696 18.77739,3.88987 4.96184,2.53792 8.90871,5.61082 11.84162,9.21971 2.9319,3.55288 5.15983,6.90778 6.68178,10.06568 h 1.69195 v -21.48432 h 30.19603 v 132.03478 c 0,11.10864 -2.64991,20.30035 -7.95074,27.57411 -5.30083,7.27477 -12.5466,12.7156 -21.73831,16.32448 -9.1907,3.60889 -19.62337,5.41383 -31.29502,5.41383 z m 0.253,-77.30953 c 6.4848,0 12.01063,-1.57895 16.57849,-4.73685 4.56785,-3.15789 8.03574,-7.69675 10.40366,-13.61756 2.36893,-5.92081 3.55289,-13.02558 3.55289,-21.31532 0,-8.17574 -1.18396,-15.33751 -3.55289,-21.48431 -2.31192,-6.1458 -5.75181,-10.91065 -10.31867,-14.29454 -4.51185,-3.43889 -10.06568,-5.15884 -16.66348,-5.15884 -6.8228,0 -12.5176,1.77595 -17.0854,5.32883 -4.5679,3.55189 -8.0078,8.42973 -10.3197,14.63253 -2.3119,6.14581 -3.4679,13.13858 -3.4679,20.97633 0,7.95075 1.156,14.91553 3.4679,20.89233 2.3689,5.92081 5.8368,10.54467 10.4037,13.87156 4.6248,3.2709 10.2916,4.90584 17.0014,4.90584 z"
         fill="#006b36"
         id="path4"
         style="vector-effect:non-scaling-stroke;fill:#ffffff;fill-opacity:1;stroke-width:7.11546;stroke-dasharray:none;-inkscape-stroke:hairline" />
      <path
         d="m -886.0922,427.71397 c -8.23274,0 -15.6485,-1.46695 -22.24529,-4.39886 -6.54179,-2.9889 -11.72962,-7.38676 -15.5635,-13.19458 -3.77788,-5.80881 -5.66782,-12.96958 -5.66782,-21.48431 0,-7.33076 1.35396,-13.39257 4.06087,-18.18542 2.70592,-4.79284 6.3998,-8.62772 11.07965,-11.50363 4.68085,-2.87591 9.95268,-5.04684 15.81749,-6.51279 5.92081,-1.52295 12.03862,-2.62192 18.35441,-3.29889 7.61276,-0.78898 13.78756,-1.49396 18.52341,-2.11494 4.73685,-0.67597 8.17674,-1.69094 10.31967,-3.0449 2.19893,-1.40895 3.2989,-3.57988 3.2989,-6.51279 v -0.50698 c 0,-6.3718 -1.88894,-11.30664 -5.66682,-14.80253 -3.77888,-3.49589 -9.21971,-5.24383 -16.32548,-5.24383 -7.49976,0 -13.44857,1.63494 -17.84643,4.90584 -4.34186,3.2709 -7.27477,7.13277 -8.79672,11.58763 l -28.58908,-4.05987 c 2.25492,-7.89475 5.97681,-14.49154 11.16464,-19.79237 5.18783,-5.35683 11.53163,-9.3607 19.03139,-12.01061 7.49976,-2.70692 15.7885,-4.05987 24.8672,-4.05987 6.2598,0 12.4906,0.73297 18.69341,2.19893 6.2028,1.46595 11.86962,3.89087 17.00145,7.27376 5.13084,3.3269 9.24771,7.86675 12.34861,13.61857 3.1579,5.75081 4.73684,12.94058 4.73684,21.56831 v 86.95121 h -29.43505 v -17.84642 h -1.01497 c -1.86094,3.60888 -4.48286,6.99177 -7.86575,10.14967 -3.32789,3.1019 -7.52876,5.61082 -12.6036,7.52776 -5.01883,1.86094 -10.91065,2.79191 -17.67743,2.79191 z m 7.95075,-22.49928 c 6.1458,0 11.47463,-1.21296 15.98648,-3.63688 4.51086,-2.48192 7.97875,-5.75182 10.40367,-9.81169 2.48092,-4.06087 3.72088,-8.48673 3.72088,-13.27957 v -15.31051 c -0.95797,0.78997 -2.59391,1.52295 -4.90584,2.19993 -2.25493,0.67597 -4.79285,1.26796 -7.61176,1.77594 -2.81991,0.50798 -5.61082,0.95897 -8.37373,1.35296 -2.76291,0.39498 -5.15983,0.73297 -7.18977,1.01496 -4.56785,0.62098 -8.65572,1.63595 -12.26461,3.04491 -3.60888,1.40995 -6.45679,3.38389 -8.54272,5.92181 -2.08694,2.48092 -3.1299,5.69481 -3.1299,9.64169 0,5.63882 2.05793,9.89668 6.1748,12.77259 4.11587,2.87591 9.3607,4.31386 15.7325,4.31386 z"
         fill="#006b36"
         id="path5"
         style="vector-effect:non-scaling-stroke;fill:#ffffff;fill-opacity:1;stroke-width:7.11546;stroke-dasharray:none;-inkscape-stroke:hairline" />
      <path
         d="m -763.23713,348.96649 v 76.12456 h -30.61602 V 295.17121 h 29.26606 v 22.0763 h 1.51995 c 2.98991,-7.27377 7.75975,-13.05359 14.29954,-17.33945 6.59979,-4.28586 14.73953,-6.42779 24.43922,-6.42779 8.96971,0 16.77946,1.91694 23.42925,5.75081 6.70979,3.83488 11.89962,9.3887 15.5695,16.66347 3.71988,7.27377 5.54983,16.09848 5.49983,26.47415 v 82.72235 h -30.61902 v -77.9855 c 0,-8.68372 -2.25993,-15.4785 -6.76979,-20.38435 -4.45985,-4.90584 -10.62966,-7.35876 -18.5294,-7.35876 -5.34983,0 -10.11968,1.18396 -14.28954,3.55189 -4.11987,2.31192 -7.35977,5.66781 -9.72969,10.06567 -2.30993,4.39886 -3.46989,9.72769 -3.46989,15.98649 z"
         fill="#006b36"
         id="path6"
         style="vector-effect:non-scaling-stroke;fill:#ffffff;fill-opacity:1;stroke-width:7.11546;stroke-dasharray:none;-inkscape-stroke:hairline" />
      <path
         d="M -655.85057,425.09105 V 295.17121 h 30.61902 v 129.91984 z m 15.38951,-148.35925 c -4.84985,0 -9.01971,-1.60695 -12.5196,-4.82084 -3.48989,-3.2709 -5.23983,-7.18977 -5.23983,-11.75663 0,-4.62425 1.74994,-8.54332 5.23983,-11.75752 3.49989,-3.27049 7.66975,-4.90574 12.5196,-4.90574 4.90984,0 9.07971,1.63525 12.5196,4.90574 3.49988,3.2142 5.24983,7.13327 5.24983,11.75752 0,4.56686 -1.74995,8.48573 -5.24983,11.75663 -3.43989,3.21389 -7.60976,4.82084 -12.5196,4.82084 z"
         fill="#006b36"
         id="path7"
         style="vector-effect:non-scaling-stroke;fill:#ffffff;fill-opacity:1;stroke-width:7.11546;stroke-dasharray:none;-inkscape-stroke:hairline" />
      <path
         d="m -544.22414,427.62897 c -12.96959,0 -24.10923,-2.84791 -33.40893,-8.54272 -9.24971,-5.69582 -16.37948,-13.56157 -21.39932,-23.59925 -4.95984,-10.09367 -7.43976,-21.7093 -7.43976,-34.84788 0,-13.19558 2.52992,-24.83921 7.60976,-34.93288 5.06983,-10.15068 12.2396,-18.04443 21.47931,-23.68325 9.3097,-5.69581 20.29935,-8.54272 32.98894,-8.54272 10.54966,0 19.87937,1.94494 27.99911,5.83581 8.17973,3.83488 14.68953,9.2757 19.53937,16.32448 4.84985,6.99277 7.60976,15.16851 8.28974,24.52921 h -29.26907 c -1.17996,-6.2588 -3.99987,-11.47463 -8.45973,-15.6475 -4.38986,-4.22986 -10.28967,-6.34379 -17.66943,-6.34379 -6.2598,0 -11.75963,1.69094 -16.49947,5.07483 -4.73985,3.3269 -8.42973,8.11974 -11.07965,14.37854 -2.58992,6.2598 -3.88987,13.75956 -3.88987,22.49928 0,8.85372 1.29995,16.46548 3.88987,22.83827 2.58992,6.3148 6.2298,11.19264 10.90965,14.63253 4.73985,3.3829 10.28967,5.07484 16.66947,5.07484 4.50985,0 8.53973,-0.84597 12.08961,-2.53692 3.60989,-1.74894 6.62979,-4.25786 9.04971,-7.52876 2.42992,-3.26989 4.08987,-7.24576 4.98984,-11.92561 h 29.26907 c -0.72998,9.1907 -3.43989,17.33944 -8.11975,24.44421 -4.67985,7.04878 -11.04964,12.5746 -19.11938,16.57847 -8.05975,3.94688 -17.53944,5.92081 -28.41909,5.92081 z"
         fill="#006b36"
         id="path8"
         style="vector-effect:non-scaling-stroke;fill:#ffffff;fill-opacity:1;stroke-width:7.11546;stroke-dasharray:none;-inkscape-stroke:hairline" />
    </g>
    <path
       fill-rule="evenodd"
       clip-rule="evenodd"
       d="m 189.4254,57.982889 c 0,30.542722 -37.54047,63.378391 -44.63051,69.307351 -0.66657,0.55732 -1.62581,0.55119 -2.28682,-0.0126 -4.51026,-3.84807 -21.43896,-18.86121 -33.10218,-36.968823 -11.694738,3.690928 -19.968346,4.209396 -22.007394,0.677659 -3.420172,-5.923993 11.798023,-21.341404 35.430494,-36.823944 17.33384,5.686231 27.98132,-6.987224 35.37368,-15.786324 2.21292,-2.63389 4.13404,-4.92062 5.85565,-6.263907 0.66423,-0.518122 0.67707,-1.817628 -0.0908,-2.163849 -22.43122,-10.114346 -42.85223,-3.451139 -45.05404,14.979467 -0.0903,0.754781 0.74572,1.23761 1.38628,0.828676 8.62209,-5.503088 18.51655,-9.563453 25.97668,-11.478492 1.05359,-0.270451 1.29574,0.785795 0.28333,1.183281 -7.05879,2.771082 -14.12693,6.580626 -20.45635,10.518086 -0.0353,-0.0011 -0.0713,0.0076 -0.1034,0.02657 -10.998,6.542656 -20.40828,13.337973 -27.370972,19.573642 -0.493091,-2.545617 -0.760008,-5.084225 -0.760008,-7.596836 0,-26.021887 20.49559,-47.11682 45.77824,-47.11682 13.62393,0 25.85779,6.125515 34.24387,15.84664 11.69346,-3.690309 19.9662,-4.208313 22.00503,-0.676813 2.73957,4.745331 -6.48042,15.582325 -22.40521,27.664867 -3.83054,3.031962 -8.37672,6.246181 -13.46678,9.494584 -17.07448,-5.330457 -27.60394,7.202789 -34.9338,15.927113 -2.21292,2.633831 -4.13403,4.920648 -5.85564,6.263998 -0.66394,0.518173 -0.67708,1.817709 0.0908,2.163846 22.4315,10.114401 42.85221,3.451112 45.05403,-14.979266 0.0903,-0.755065 -0.74543,-1.237905 -1.38629,-0.828966 -8.62208,5.503381 -18.51654,9.563513 -25.97667,11.478492 -1.05358,0.270484 -1.29573,-0.785732 -0.28304,-1.183277 7.06785,-2.774624 14.14533,-6.590856 20.48118,-10.533569 0.0275,-0.0028 0.0546,-0.01109 0.0792,-0.02571 11.17997,-6.651019 20.71924,-13.562589 27.71436,-19.882381 0.27514,2.088779 0.41712,4.220791 0.41712,6.387265 z m -3.52327,-18.158428 c 3.69122,-3.790647 5.38915,-6.727207 4.4822,-8.298126 -0.8865,-1.535843 -4.14892,-1.568001 -9.0868,-0.352559 1.81362,2.693035 3.36143,5.590041 4.6046,8.650685 z m -83.86658,36.722296 c -4.134244,4.103946 -6.082872,7.287208 -5.124825,8.946608 0.921999,1.596887 4.412115,1.568262 9.683745,0.201839 -1.7203,-2.997784 -3.26473,-6.058655 -4.55892,-9.148447 z"
       fill="#006b36"
       id="path1-3"
       style="display:inline;fill:#ffffff;fill-opacity:1;stroke:none;stroke-width:0.290658;stroke-dasharray:none;stroke-opacity:1"
       inkscape:label="logo" />
    <g
       id="g43"
       inkscape:label="maps"
       transform="matrix(0.29210525,0,0,0.29210525,249.06603,52.411831)"
       style="fill:#ffffff;fill-opacity:1;stroke-width:7.11618;stroke-dasharray:none">
      <path
         d="m -637.78284,547.12522 h 38.39877 l 51.42836,125.52178 h 2.02993 l 51.42836,-125.52178 h 38.39877 v 173.22625 h -30.10904 V 601.34328 h -1.60995 l -47.87846,118.50121 h -22.49928 l -47.86847,-118.7552 h -1.60995 v 119.26218 h -30.10904 z"
         fill="#006b36"
         id="path9"
         style="display:inline;fill:#ffffff;fill-opacity:1;stroke-width:7.11618;stroke-dasharray:none" />
      <path
         d="m -393.04067,722.97439 c -8.22974,0 -15.6495,-1.46695 -22.24929,-4.39886 -6.53979,-2.9889 -11.72962,-7.38676 -15.5595,-13.19458 -3.77988,-5.80881 -5.66982,-12.96958 -5.66982,-21.48431 0,-7.33076 1.34996,-13.39257 4.05987,-18.18542 2.70991,-4.79284 6.3998,-8.62772 11.07965,-11.50363 4.67985,-2.87591 9.95968,-5.04684 15.81949,-6.51279 5.91981,-1.52295 12.03961,-2.62192 18.35941,-3.29889 7.60976,-0.78898 13.77956,-1.49396 18.51941,-2.11494 4.73985,-0.67597 8.17974,-1.69094 10.31967,-3.0449 2.19993,-1.40895 3.29989,-3.57988 3.29989,-6.51279 v -0.50698 c 0,-6.3718 -1.88994,-11.30664 -5.66982,-14.80253 -3.77987,-3.49589 -9.2197,-5.24383 -16.31947,-5.24383 -7.49976,0 -13.44957,1.63494 -17.84943,4.90584 -4.33986,3.2709 -7.27977,7.13277 -8.79972,11.58763 l -28.58909,-4.05987 c 2.25993,-7.89475 5.97981,-14.49154 11.16965,-19.79237 5.17983,-5.35683 11.52963,-9.3607 19.02939,-12.01061 7.49976,-2.70692 15.78949,-4.05987 24.8692,-4.05987 6.2598,0 12.4896,0.73297 18.6894,2.19893 6.19981,1.46595 11.86962,3.89087 16.99946,7.27376 5.12984,3.3269 9.2497,7.86675 12.3496,13.61857 3.1599,5.75081 4.73985,12.94058 4.73985,21.56831 v 86.95121 h -29.43905 v -17.84642 h -1.00997 c -1.85994,3.60888 -4.48986,6.99177 -7.86975,10.14967 -3.32989,3.1019 -7.52976,5.61082 -12.5996,7.52776 -5.01984,1.86094 -10.90965,2.79191 -17.67943,2.79191 z m 7.94974,-22.49928 c 6.14981,0 11.47964,-1.21296 15.98949,-3.63688 4.50986,-2.48192 7.97975,-5.75182 10.39967,-9.81169 2.47992,-4.06087 3.71988,-8.48673 3.71988,-13.27957 v -15.31051 c -0.95997,0.78997 -2.58992,1.52295 -4.89984,2.19993 -2.25993,0.67597 -4.79985,1.26796 -7.61976,1.77594 -2.81991,0.50798 -5.60982,0.95897 -8.36973,1.35296 -2.75991,0.39498 -5.15984,0.73297 -7.18977,1.01496 -4.56985,0.62098 -8.65972,1.63595 -12.25961,3.04491 -3.60988,1.40995 -6.45979,3.38389 -8.54972,5.92181 -2.07994,2.48092 -3.1299,5.69481 -3.1299,9.64169 0,5.63882 2.05993,9.89668 6.1798,12.77259 4.10987,2.87591 9.3597,4.31386 15.72949,4.31386 z"
         fill="#006b36"
         id="path10"
         style="display:inline;fill:#ffffff;fill-opacity:1;stroke-width:7.11618;stroke-dasharray:none" />
      <path
         d="M -300.80362,769.07192 V 590.43163 h 30.10903 v 21.48432 h 1.77995 c 1.57994,-3.1579 3.80987,-6.5128 6.67978,-10.06568 2.87991,-3.60889 6.76978,-6.68179 11.67963,-9.21971 4.89984,-2.59291 11.15964,-3.88987 18.7694,-3.88987 10.03968,0 19.08939,2.56492 27.15913,7.69675 8.11974,5.07484 14.53953,12.6026 19.27938,22.58328 4.78985,9.92468 7.18977,22.10429 7.18977,36.54083 0,14.26554 -2.33993,26.38915 -7.01978,36.37083 -4.67985,9.98068 -11.04964,17.59244 -19.11938,22.83727 -8.05975,5.24384 -17.18945,7.86575 -27.39913,7.86575 -7.44976,0 -13.61956,-1.23996 -18.5294,-3.72188 -4.89985,-2.48092 -8.84972,-5.46882 -11.83962,-8.96571 -2.92991,-3.55189 -5.20984,-6.90678 -6.84978,-10.06468 h -1.26996 v 69.18879 z m 30.02903,-113.68037 c 0,8.40274 1.17997,15.7615 3.54989,22.0763 2.42992,6.31579 5.89981,11.24964 10.40967,14.80252 4.55985,3.49589 10.08967,5.24384 16.57947,5.24384 6.75978,0 12.4296,-1.80395 16.99945,-5.41283 4.55986,-3.66588 7.99975,-8.65572 10.31967,-14.97152 2.36993,-6.3718 3.54989,-13.61757 3.54989,-21.73831 0,-8.06374 -1.15996,-15.22451 -3.46989,-21.48431 -2.30993,-6.2588 -5.74982,-11.16464 -10.31967,-14.71653 -4.56985,-3.55288 -10.25967,-5.32883 -17.07945,-5.32883 -6.54979,0 -12.09962,1.71995 -16.66947,5.15884 -4.56985,3.43989 -8.02974,8.26173 -10.39967,14.46454 -2.30992,6.2028 -3.46989,13.50456 -3.46989,21.90629 z"
         fill="#006b36"
         id="path11"
         style="display:inline;fill:#ffffff;fill-opacity:1;stroke-width:7.11618;stroke-dasharray:none" />
      <path
         d="m -56.401405,624.77253 -27.9092,3.04491 c -0.7899,-2.81891 -2.1699,-5.46983 -4.1398,-7.95075 -1.92,-2.48092 -4.5099,-4.48286 -7.7898,-6.00481 -3.2699,-1.52295 -7.269695,-2.28392 -12.009595,-2.28392 -6.3698,0 -11.7296,1.38095 -16.0695,4.14386 -4.2798,2.76392 -6.3998,6.3438 -6.3398,10.74266 -0.06,3.77788 1.32,6.85078 4.1399,9.2197 2.8799,2.36793 7.6198,4.31387 14.2095,5.83582 l 22.159295,4.73685 c 12.2996,2.64991 21.4293,6.85178 27.4092,12.60259 6.0298,5.75182 9.0797,13.27958 9.1397,22.58428 -0.06,8.17674 -2.46,15.39451 -7.1898,21.65331 -4.6799,6.2028 -11.1996,11.05164 -19.5394,14.54853 -8.3497,3.49589 -17.9394,5.24383 -28.759095,5.24383 -15.8995,0 -28.70904,-3.32689 -38.39873,-9.98068 -9.69969,-6.71078 -15.47951,-16.04248 -17.33945,-27.9971 l 29.84908,-2.87591 c 1.3599,5.86481 4.2298,10.29067 8.6297,13.27958 4.3999,2.9889 10.1197,4.48285 17.1694,4.48285 7.2798,0 13.109595,-1.49395 17.509495,-4.48285 4.4598,-2.98891 6.6798,-6.68179 6.6798,-11.08065 0,-3.72188 -1.43,-6.79478 -4.3099,-9.2197 -2.8199,-2.42393 -7.2198,-4.28487 -13.189595,-5.58183 l -22.1693,-4.65285 c -12.45956,-2.59391 -21.67927,-6.96377 -27.65908,-13.10958 -5.96981,-6.2028 -8.92971,-14.04155 -8.87971,-23.51424 -0.05,-8.00775 2.11993,-14.94353 6.51979,-20.80834 4.44986,-5.92081 10.62966,-10.48766 18.51941,-13.70156 7.94979,-3.2709 17.10949,-4.90584 27.48909,-4.90584 15.229495,0 27.209195,3.24189 35.948895,9.72669 8.7997,6.48479 14.2395,15.25351 16.3195,26.30515 z"
         fill="#006b36"
         id="path12"
         style="display:inline;fill:#ffffff;fill-opacity:1;stroke-width:7.11618;stroke-dasharray:none" />
    </g>
  </g>
</svg>
