<?xml version="1.0" encoding="UTF-8" standalone="no"?>
<!-- Created with Inkscape (http://www.inkscape.org/) -->

<svg
   version="1.1"
   id="svg1"
   width="288"
   height="144"
   viewBox="0 0 288 144"
   sodipodi:docname="sticker-3x1.5.pdf"
   inkscape:version="1.3 (0e150ed6c4, 2023-07-21)"
   xmlns:inkscape="http://www.inkscape.org/namespaces/inkscape"
   xmlns:sodipodi="http://sodipodi.sourceforge.net/DTD/sodipodi-0.dtd"
   xmlns="http://www.w3.org/2000/svg"
   xmlns:svg="http://www.w3.org/2000/svg">
  <defs
     id="defs1" />
  <sodipodi:namedview
     id="namedview1"
     pagecolor="#ffffff"
     bordercolor="#000000"
     borderopacity="0.25"
     inkscape:showpageshadow="2"
     inkscape:pageopacity="0.0"
     inkscape:pagecheckerboard="0"
     inkscape:deskcolor="#d1d1d1"
     inkscape:zoom="6.0625"
     inkscape:cx="144.08247"
     inkscape:cy="72"
     inkscape:window-width="1375"
     inkscape:window-height="1237"
     inkscape:window-x="956"
     inkscape:window-y="58"
     inkscape:window-maximized="0"
     inkscape:current-layer="g1">
    <inkscape:page
       x="0"
       y="0"
       inkscape:label="1"
       id="page1"
       width="288"
       height="144"
       margin="0"
       bleed="0" />
  </sodipodi:namedview>
  <g
     id="g1"
     inkscape:groupmode="layer"
     inkscape:label="1">
    <path
       id="path1"
       d="m 34.492,81.824 c 0,2.332 -0.437,4.332 -1.312,5.996 -0.867,1.657 -2.051,2.926 -3.551,3.805 -1.496,0.883 -3.191,1.324 -5.086,1.324 -1.898,0 -3.598,-0.441 -5.098,-1.324 -1.496,-0.887 -2.679,-2.16 -3.554,-3.816 -0.868,-1.664 -1.301,-3.657 -1.301,-5.985 0,-2.332 0.433,-4.328 1.301,-5.984 0.875,-1.664 2.058,-2.938 3.554,-3.817 1.5,-0.882 3.2,-1.324 5.098,-1.324 1.895,0 3.59,0.442 5.086,1.324 1.5,0.879 2.684,2.153 3.551,3.817 0.875,1.656 1.312,3.652 1.312,5.984 z m -3.945,0 c 0,-1.64 -0.258,-3.027 -0.77,-4.156 -0.507,-1.133 -1.214,-1.992 -2.117,-2.57 -0.902,-0.582 -1.941,-0.875 -3.117,-0.875 -1.18,0 -2.219,0.293 -3.121,0.875 -0.902,0.578 -1.609,1.437 -2.125,2.57 -0.508,1.129 -0.762,2.516 -0.762,4.156 0,1.641 0.254,3.031 0.762,4.168 0.516,1.125 1.223,1.985 2.125,2.567 0.902,0.578 1.941,0.867 3.121,0.867 1.176,0 2.215,-0.289 3.117,-0.867 0.903,-0.582 1.61,-1.442 2.117,-2.567 0.512,-1.137 0.77,-2.527 0.77,-4.168 z"
       style="fill:#006b36;fill-opacity:1;fill-rule:nonzero;stroke:none"
       transform="scale(1.3333333)" />
    <path
       id="path2"
       d="M 37.137,92.652 V 76.41 h 3.711 v 2.707 h 0.172 c 0.296,-0.937 0.8,-1.66 1.523,-2.168 0.723,-0.515 1.551,-0.773 2.484,-0.773 0.211,0 0.446,0.012 0.707,0.035 0.27,0.012 0.489,0.039 0.668,0.074 v 3.52 c -0.164,-0.055 -0.422,-0.106 -0.773,-0.149 -0.344,-0.051 -0.68,-0.074 -1.004,-0.074 -0.699,0 -1.324,0.152 -1.883,0.457 -0.551,0.293 -0.984,0.707 -1.301,1.234 -0.316,0.532 -0.476,1.141 -0.476,1.832 v 9.547 z"
       style="fill:#006b36;fill-opacity:1;fill-rule:nonzero;stroke:none"
       transform="scale(1.3333333)" />
    <path
       id="path3"
       d="m 54.445,99.082 c -1.375,0 -2.554,-0.187 -3.543,-0.562 -0.988,-0.368 -1.781,-0.86 -2.379,-1.481 -0.597,-0.621 -1.015,-1.309 -1.246,-2.062 l 3.446,-0.832 c 0.156,0.316 0.379,0.628 0.675,0.937 0.297,0.32 0.696,0.578 1.196,0.785 0.508,0.211 1.144,0.317 1.914,0.317 1.086,0 1.984,-0.266 2.695,-0.793 0.715,-0.524 1.07,-1.383 1.07,-2.582 v -3.075 h -0.191 c -0.195,0.395 -0.484,0.801 -0.867,1.215 -0.375,0.418 -0.871,0.766 -1.492,1.047 -0.614,0.281 -1.383,0.422 -2.313,0.422 -1.25,0 -2.379,-0.293 -3.394,-0.875 -1.008,-0.594 -1.813,-1.477 -2.411,-2.645 -0.593,-1.175 -0.89,-2.652 -0.89,-4.421 0,-1.782 0.297,-3.286 0.89,-4.512 0.598,-1.235 1.407,-2.168 2.418,-2.805 1.016,-0.64 2.149,-0.961 3.395,-0.961 0.953,0 1.734,0.16 2.348,0.485 0.621,0.32 1.113,0.703 1.48,1.152 0.367,0.445 0.645,0.867 0.836,1.262 h 0.211 V 76.41 h 3.777 v 16.508 c 0,1.387 -0.332,2.535 -0.996,3.445 -0.664,0.91 -1.566,1.59 -2.719,2.039 -1.148,0.453 -2.453,0.68 -3.91,0.68 z m 0.032,-9.664 c 0.812,0 1.5,-0.199 2.074,-0.594 0.57,-0.394 1.004,-0.961 1.301,-1.703 0.293,-0.738 0.441,-1.629 0.441,-2.664 0,-1.023 -0.148,-1.918 -0.441,-2.687 -0.289,-0.766 -0.723,-1.364 -1.293,-1.786 -0.563,-0.429 -1.258,-0.644 -2.082,-0.644 -0.852,0 -1.567,0.223 -2.137,0.664 -0.57,0.445 -1,1.055 -1.289,1.832 -0.289,0.766 -0.434,1.641 -0.434,2.621 0,0.992 0.145,1.863 0.434,2.613 0.297,0.739 0.73,1.317 1.301,1.735 0.578,0.406 1.285,0.613 2.125,0.613 z"
       style="fill:#006b36;fill-opacity:1;fill-rule:nonzero;stroke:none"
       transform="scale(1.3333333)" />
    <path
       id="path4"
       d="m 69.773,92.98 c -1.031,0 -1.957,-0.183 -2.781,-0.55 -0.82,-0.375 -1.469,-0.922 -1.945,-1.649 -0.473,-0.726 -0.711,-1.621 -0.711,-2.687 0,-0.914 0.172,-1.672 0.508,-2.274 0.34,-0.597 0.801,-1.078 1.386,-1.437 0.586,-0.36 1.243,-0.629 1.977,-0.813 0.738,-0.191 1.504,-0.328 2.293,-0.414 0.953,-0.097 1.727,-0.187 2.316,-0.265 0.594,-0.082 1.024,-0.211 1.289,-0.379 0.278,-0.176 0.415,-0.449 0.415,-0.817 v -0.062 c 0,-0.797 -0.235,-1.414 -0.707,-1.848 -0.473,-0.437 -1.153,-0.656 -2.043,-0.656 -0.938,0 -1.68,0.203 -2.231,0.613 -0.543,0.406 -0.91,0.891 -1.098,1.449 l -3.574,-0.507 c 0.281,-0.989 0.746,-1.813 1.395,-2.477 0.648,-0.668 1.441,-1.168 2.379,-1.5 0.937,-0.34 1.972,-0.508 3.109,-0.508 0.781,0 1.563,0.09 2.336,0.274 0.777,0.183 1.484,0.488 2.125,0.91 0.641,0.418 1.156,0.984 1.543,1.703 0.394,0.719 0.594,1.617 0.594,2.695 v 10.871 h -3.68 v -2.23 h -0.129 c -0.23,0.449 -0.559,0.871 -0.98,1.269 -0.418,0.387 -0.942,0.7 -1.579,0.938 -0.625,0.234 -1.363,0.351 -2.207,0.351 z m 0.993,-2.812 c 0.769,0 1.433,-0.152 2,-0.457 0.562,-0.309 0.996,-0.719 1.3,-1.227 0.309,-0.507 0.465,-1.058 0.465,-1.66 V 84.91 c -0.121,0.102 -0.324,0.192 -0.613,0.278 -0.281,0.082 -0.602,0.156 -0.953,0.222 -0.352,0.063 -0.699,0.117 -1.047,0.168 -0.344,0.051 -0.645,0.09 -0.898,0.125 -0.571,0.078 -1.082,0.207 -1.532,0.383 -0.453,0.176 -0.808,0.422 -1.07,0.738 -0.262,0.313 -0.391,0.715 -0.391,1.207 0,0.703 0.258,1.239 0.774,1.598 0.512,0.359 1.168,0.539 1.965,0.539 z"
       style="fill:#006b36;fill-opacity:1;fill-rule:nonzero;stroke:none"
       transform="scale(1.3333333)" />
    <path
       id="path5"
       d="m 85.129,83.137 v 9.515 H 81.305 V 76.41 h 3.656 v 2.762 h 0.191 c 0.371,-0.91 0.969,-1.633 1.786,-2.168 0.828,-0.539 1.843,-0.805 3.058,-0.805 1.121,0 2.098,0.239 2.926,0.719 0.84,0.48 1.488,1.172 1.949,2.082 0.465,0.91 0.692,2.012 0.688,3.309 V 92.652 H 91.73 v -9.75 c 0,-1.086 -0.285,-1.933 -0.847,-2.547 -0.559,-0.613 -1.328,-0.921 -2.317,-0.921 -0.668,0 -1.265,0.148 -1.785,0.445 -0.515,0.289 -0.922,0.707 -1.218,1.258 -0.29,0.551 -0.434,1.215 -0.434,2 z"
       style="fill:#006b36;fill-opacity:1;fill-rule:nonzero;stroke:none"
       transform="scale(1.3333333)" />
    <path
       id="path6"
       d="M 98.555,92.652 V 76.41 h 3.828 v 16.242 z m 1.925,-18.547 c -0.609,0 -1.128,-0.203 -1.566,-0.601 -0.437,-0.41 -0.656,-0.899 -0.656,-1.473 0,-0.578 0.219,-1.066 0.656,-1.468 0.438,-0.411 0.957,-0.614 1.566,-0.614 0.614,0 1.133,0.203 1.563,0.614 0.437,0.402 0.656,0.89 0.656,1.468 0,0.574 -0.219,1.063 -0.656,1.473 -0.43,0.398 -0.949,0.601 -1.563,0.601 z"
       style="fill:#006b36;fill-opacity:1;fill-rule:nonzero;stroke:none"
       transform="scale(1.3333333)" />
    <path
       id="path7"
       d="m 112.508,92.969 c -1.621,0 -3.012,-0.356 -4.176,-1.067 -1.156,-0.714 -2.047,-1.695 -2.676,-2.953 -0.617,-1.261 -0.929,-2.711 -0.929,-4.355 0,-1.649 0.316,-3.106 0.953,-4.367 0.633,-1.27 1.531,-2.254 2.683,-2.961 1.164,-0.711 2.539,-1.067 4.125,-1.067 1.321,0 2.485,0.242 3.5,0.731 1.024,0.476 1.836,1.16 2.442,2.039 0.609,0.875 0.953,1.898 1.039,3.066 h -3.66 c -0.149,-0.781 -0.5,-1.433 -1.059,-1.957 -0.547,-0.527 -1.285,-0.793 -2.207,-0.793 -0.785,0 -1.473,0.211 -2.063,0.637 -0.593,0.414 -1.054,1.016 -1.386,1.797 -0.324,0.781 -0.485,1.719 -0.485,2.812 0,1.106 0.161,2.059 0.485,2.856 0.324,0.789 0.781,1.398 1.363,1.828 0.594,0.422 1.289,0.637 2.086,0.637 0.562,0 1.066,-0.11 1.512,-0.321 0.449,-0.218 0.828,-0.531 1.129,-0.941 0.304,-0.406 0.511,-0.902 0.625,-1.488 h 3.66 c -0.094,1.148 -0.43,2.168 -1.016,3.054 -0.586,0.883 -1.383,1.571 -2.39,2.074 -1.008,0.493 -2.192,0.739 -3.555,0.739 z"
       style="fill:#006b36;fill-opacity:1;fill-rule:nonzero;stroke:none"
       transform="scale(1.3333333)" />
    <path
       id="path8"
       d="m 128.379,70.996 h 4.801 l 6.429,15.692 h 0.254 l 6.43,-15.692 h 4.797 v 21.656 h -3.762 V 77.773 h -0.203 l -5.984,14.817 h -2.813 l -5.984,-14.848 h -0.199 v 14.91 h -3.766 z"
       style="fill:#006b36;fill-opacity:1;fill-rule:nonzero;stroke:none"
       transform="scale(1.3333333)" />
    <path
       id="path9"
       d="m 158.977,92.98 c -1.032,0 -1.957,-0.183 -2.786,-0.55 -0.816,-0.375 -1.464,-0.922 -1.941,-1.649 -0.473,-0.726 -0.711,-1.621 -0.711,-2.687 0,-0.914 0.168,-1.672 0.508,-2.274 0.34,-0.597 0.801,-1.078 1.387,-1.437 0.582,-0.36 1.242,-0.629 1.976,-0.813 0.738,-0.191 1.504,-0.328 2.293,-0.414 0.953,-0.097 1.723,-0.187 2.317,-0.265 0.593,-0.082 1.023,-0.211 1.289,-0.379 0.277,-0.176 0.414,-0.449 0.414,-0.817 v -0.062 c 0,-0.797 -0.239,-1.414 -0.707,-1.848 -0.473,-0.437 -1.157,-0.656 -2.043,-0.656 -0.938,0 -1.68,0.203 -2.231,0.613 -0.543,0.406 -0.91,0.891 -1.101,1.449 l -3.575,-0.507 c 0.286,-0.989 0.75,-1.813 1.399,-2.477 0.648,-0.668 1.441,-1.168 2.379,-1.5 0.937,-0.34 1.972,-0.508 3.109,-0.508 0.781,0 1.563,0.09 2.336,0.274 0.774,0.183 1.484,0.488 2.125,0.91 0.641,0.418 1.156,0.984 1.543,1.703 0.395,0.719 0.594,1.617 0.594,2.695 v 10.871 h -3.68 v -2.23 h -0.129 c -0.23,0.449 -0.558,0.871 -0.98,1.269 -0.418,0.387 -0.942,0.7 -1.578,0.938 -0.625,0.234 -1.364,0.351 -2.207,0.351 z m 0.992,-2.812 c 0.769,0 1.433,-0.152 2,-0.457 0.562,-0.309 0.996,-0.719 1.297,-1.227 0.312,-0.507 0.468,-1.058 0.468,-1.66 V 84.91 c -0.121,0.102 -0.324,0.192 -0.613,0.278 -0.285,0.082 -0.601,0.156 -0.953,0.222 -0.352,0.063 -0.703,0.117 -1.047,0.168 -0.344,0.051 -0.644,0.09 -0.898,0.125 -0.571,0.078 -1.082,0.207 -1.532,0.383 -0.453,0.176 -0.808,0.422 -1.07,0.738 -0.262,0.313 -0.391,0.715 -0.391,1.207 0,0.703 0.258,1.239 0.774,1.598 0.512,0.359 1.168,0.539 1.965,0.539 z"
       style="fill:#006b36;fill-opacity:1;fill-rule:nonzero;stroke:none"
       transform="scale(1.3333333)" />
    <path
       id="path10"
       d="M 170.504,98.742 V 76.41 h 3.766 v 2.688 h 0.222 c 0.199,-0.395 0.477,-0.817 0.836,-1.262 0.36,-0.449 0.844,-0.832 1.457,-1.152 0.613,-0.325 1.399,-0.485 2.348,-0.485 1.254,0 2.387,0.321 3.394,0.961 1.016,0.637 1.821,1.578 2.411,2.824 0.601,1.243 0.898,2.762 0.898,4.567 0,1.785 -0.289,3.301 -0.875,4.547 -0.586,1.25 -1.383,2.199 -2.391,2.855 -1.007,0.656 -2.148,0.985 -3.425,0.985 -0.93,0 -1.704,-0.157 -2.317,-0.465 -0.613,-0.313 -1.105,-0.684 -1.48,-1.121 -0.368,-0.446 -0.653,-0.864 -0.856,-1.258 h -0.16 v 8.648 z m 3.754,-14.211 c 0,1.051 0.148,1.969 0.445,2.758 0.305,0.793 0.738,1.406 1.301,1.852 0.57,0.437 1.262,0.656 2.074,0.656 0.844,0 1.555,-0.227 2.125,-0.676 0.57,-0.461 1,-1.082 1.289,-1.871 0.297,-0.797 0.446,-1.703 0.446,-2.719 0,-1.008 -0.145,-1.902 -0.434,-2.687 -0.289,-0.781 -0.719,-1.395 -1.293,-1.84 -0.57,-0.441 -1.281,-0.664 -2.133,-0.664 -0.82,0 -1.512,0.215 -2.086,0.644 -0.57,0.43 -1.004,1.032 -1.301,1.809 -0.285,0.773 -0.433,1.687 -0.433,2.738 z"
       style="fill:#006b36;fill-opacity:1;fill-rule:nonzero;stroke:none"
       transform="scale(1.3333333)" />
    <path
       id="path11"
       d="m 201.059,80.703 -3.489,0.379 c -0.097,-0.352 -0.273,-0.684 -0.519,-0.992 -0.238,-0.309 -0.563,-0.559 -0.973,-0.75 -0.41,-0.192 -0.91,-0.285 -1.5,-0.285 -0.797,0 -1.469,0.172 -2.012,0.515 -0.535,0.348 -0.796,0.793 -0.789,1.344 -0.007,0.473 0.164,0.856 0.516,1.152 0.359,0.297 0.953,0.539 1.777,0.731 l 2.77,0.594 c 1.539,0.328 2.68,0.855 3.426,1.574 0.754,0.719 1.136,1.66 1.144,2.824 -0.008,1.02 -0.308,1.922 -0.898,2.707 -0.586,0.774 -1.403,1.379 -2.446,1.817 -1.043,0.437 -2.242,0.656 -3.593,0.656 -1.989,0 -3.59,-0.414 -4.801,-1.246 -1.211,-0.84 -1.934,-2.008 -2.168,-3.5 l 3.73,-0.36 c 0.172,0.731 0.532,1.285 1.079,1.66 0.55,0.372 1.265,0.559 2.148,0.559 0.91,0 1.637,-0.187 2.187,-0.559 0.559,-0.375 0.836,-0.835 0.836,-1.386 0,-0.465 -0.179,-0.848 -0.539,-1.153 -0.351,-0.304 -0.902,-0.535 -1.648,-0.699 l -2.77,-0.582 c -1.558,-0.324 -2.711,-0.867 -3.461,-1.637 -0.746,-0.777 -1.113,-1.757 -1.109,-2.941 -0.004,-1 0.266,-1.867 0.816,-2.602 0.555,-0.738 1.329,-1.308 2.317,-1.71 0.992,-0.411 2.137,-0.614 3.433,-0.614 1.907,0 3.403,0.406 4.497,1.215 1.097,0.813 1.777,1.906 2.039,3.289 z"
       style="fill:#006b36;fill-opacity:1;fill-rule:nonzero;stroke:none"
       transform="scale(1.3333333)" />
    <path
       id="path12"
       d="m 127.609,29.082 c 0,13.074 -16.066,27.125 -19.101,29.664 -0.285,0.238 -0.695,0.234 -0.977,-0.008 -1.929,-1.644 -9.176,-8.07 -14.168,-15.82 -5.004,1.578 -8.547,1.801 -9.418,0.289 -1.465,-2.535 5.051,-9.133 15.164,-15.758 7.418,2.434 11.973,-2.992 15.137,-6.758 0.949,-1.125 1.77,-2.105 2.508,-2.679 0.285,-0.223 0.289,-0.778 -0.039,-0.926 -9.602,-4.328 -18.34,-1.477 -19.281,6.41 -0.039,0.324 0.316,0.531 0.593,0.356 3.688,-2.356 7.922,-4.094 11.118,-4.914 0.449,-0.114 0.554,0.335 0.121,0.507 -3.024,1.188 -6.047,2.817 -8.758,4.5 -0.012,0 -0.028,0.004 -0.043,0.012 -4.707,2.801 -8.735,5.711 -11.715,8.379 -0.211,-1.09 -0.324,-2.176 -0.324,-3.254 0,-11.137 8.773,-20.164 19.594,-20.164 5.828,0 11.066,2.621 14.652,6.781 5.004,-1.578 8.547,-1.801 9.418,-0.289 1.172,2.031 -2.774,6.672 -9.586,11.84 -1.641,1.297 -3.586,2.676 -5.766,4.063 -7.308,-2.282 -11.812,3.085 -14.949,6.816 -0.949,1.129 -1.769,2.109 -2.508,2.684 -0.285,0.222 -0.289,0.777 0.039,0.925 9.602,4.328 18.34,1.477 19.282,-6.41 0.039,-0.324 -0.317,-0.531 -0.594,-0.355 -3.688,2.355 -7.922,4.093 -11.117,4.91 -0.45,0.117 -0.555,-0.336 -0.121,-0.504 3.027,-1.188 6.054,-2.82 8.765,-4.508 0.012,-0.004 0.024,-0.004 0.035,-0.012 4.785,-2.847 8.868,-5.804 11.86,-8.507 0.117,0.89 0.179,1.804 0.179,2.73 z m -1.507,-7.769 c 1.578,-1.622 2.304,-2.879 1.918,-3.551 -0.379,-0.657 -1.774,-0.672 -3.887,-0.153 0.773,1.153 1.437,2.395 1.969,3.704 z M 90.211,37.027 c -1.77,1.758 -2.606,3.121 -2.195,3.828 0.394,0.684 1.89,0.672 4.144,0.09 -0.734,-1.285 -1.398,-2.593 -1.949,-3.918 z"
       style="fill:#006b36;fill-opacity:1;fill-rule:evenodd;stroke:none"
       transform="scale(1.3333333)" />
  </g>
</svg>
