<?xml version="1.0" encoding="UTF-8" standalone="no"?>
<svg
   xmlns:dc="http://purl.org/dc/elements/1.1/"
   xmlns:cc="http://creativecommons.org/ns#"
   xmlns:rdf="http://www.w3.org/1999/02/22-rdf-syntax-ns#"
   xmlns:svg="http://www.w3.org/2000/svg"
   xmlns="http://www.w3.org/2000/svg"
   viewBox="0 0 144 144"
   height="144"
   width="144"
   xml:space="preserve"
   id="svg2"
   version="1.1"><metadata
     id="metadata8"><rdf:RDF><cc:Work
         rdf:about=""><dc:format>image/svg+xml</dc:format><dc:type
           rdf:resource="http://purl.org/dc/dcmitype/StillImage" /></cc:Work></rdf:RDF></metadata><defs
     id="defs6" /><g
     transform="matrix(1.3333333,0,0,1.3333333,0,3.6e-6)"
     id="g10"><g
       id="g12"><path
         id="path14"
         style="fill:#006b36;fill-opacity:1;fill-rule:nonzero;stroke:none"
         d="m 26.566,59.91 c 0,1.965 -0.371,3.653 -1.105,5.055 -0.731,1.394 -1.731,2.465 -2.996,3.207 -1.262,0.742 -2.692,1.117 -4.289,1.117 -1.598,0 -3.031,-0.375 -4.297,-1.117 -1.262,-0.746 -2.258,-1.82 -2.996,-3.219 -0.731,-1.402 -1.098,-3.082 -1.098,-5.043 0,-1.969 0.367,-3.652 1.098,-5.047 0.738,-1.402 1.734,-2.476 2.996,-3.218 1.266,-0.743 2.699,-1.114 4.297,-1.114 1.597,0 3.027,0.371 4.289,1.114 1.265,0.742 2.265,1.816 2.996,3.218 0.734,1.395 1.105,3.078 1.105,5.047 z m -3.328,0 c 0,-1.387 -0.215,-2.555 -0.648,-3.504 -0.43,-0.957 -1.024,-1.679 -1.785,-2.168 -0.758,-0.492 -1.637,-0.738 -2.629,-0.738 -0.992,0 -1.867,0.246 -2.629,0.738 -0.762,0.489 -1.359,1.211 -1.793,2.168 -0.43,0.949 -0.641,2.117 -0.641,3.504 0,1.383 0.211,2.555 0.641,3.512 0.434,0.949 1.031,1.672 1.793,2.164 0.762,0.488 1.637,0.734 2.629,0.734 0.992,0 1.871,-0.246 2.629,-0.734 0.761,-0.492 1.355,-1.215 1.785,-2.164 0.433,-0.957 0.648,-2.129 0.648,-3.512 z" /><path
         id="path16"
         style="fill:#006b36;fill-opacity:1;fill-rule:nonzero;stroke:none"
         d="M 28.797,69.039 V 55.344 h 3.129 v 2.281 h 0.144 c 0.246,-0.789 0.676,-1.398 1.282,-1.828 0.613,-0.434 1.312,-0.649 2.097,-0.649 0.176,0 0.375,0.008 0.598,0.028 0.223,0.012 0.41,0.031 0.558,0.062 v 2.969 c -0.136,-0.051 -0.351,-0.09 -0.648,-0.125 -0.293,-0.043 -0.574,-0.062 -0.848,-0.062 -0.589,0 -1.117,0.125 -1.586,0.382 -0.464,0.25 -0.832,0.598 -1.097,1.043 -0.27,0.446 -0.403,0.961 -0.403,1.543 v 8.051 z" /><path
         id="path18"
         style="fill:#006b36;fill-opacity:1;fill-rule:nonzero;stroke:none"
         d="m 43.391,74.457 c -1.161,0 -2.157,-0.156 -2.989,-0.473 -0.832,-0.308 -1.5,-0.722 -2.004,-1.246 C 37.891,72.215 37.539,71.637 37.344,71 l 2.906,-0.703 c 0.133,0.266 0.32,0.531 0.57,0.793 0.25,0.265 0.586,0.484 1.008,0.66 0.43,0.176 0.965,0.266 1.613,0.266 0.918,0 1.676,-0.223 2.274,-0.668 0.601,-0.442 0.902,-1.164 0.902,-2.176 v -2.594 h -0.16 c -0.168,0.332 -0.41,0.672 -0.73,1.024 -0.317,0.351 -0.735,0.644 -1.258,0.882 -0.52,0.239 -1.168,0.356 -1.953,0.356 -1.051,0 -2.008,-0.246 -2.864,-0.738 -0.847,-0.5 -1.527,-1.243 -2.031,-2.231 -0.5,-0.992 -0.75,-2.234 -0.75,-3.726 0,-1.504 0.25,-2.77 0.75,-3.805 0.504,-1.039 1.188,-1.828 2.043,-2.363 0.856,-0.539 1.809,-0.813 2.859,-0.813 0.805,0 1.465,0.137 1.981,0.41 0.523,0.27 0.937,0.594 1.246,0.973 0.313,0.375 0.547,0.73 0.707,1.062 h 0.176 v -2.265 h 3.183 v 13.918 c 0,1.172 -0.277,2.14 -0.836,2.906 -0.558,0.766 -1.324,1.34 -2.292,1.719 -0.969,0.383 -2.067,0.57 -3.297,0.57 z m 0.023,-8.148 c 0.684,0 1.27,-0.164 1.75,-0.5 0.481,-0.332 0.848,-0.809 1.098,-1.434 0.246,-0.625 0.371,-1.371 0.371,-2.246 0,-0.863 -0.125,-1.617 -0.371,-2.266 -0.246,-0.648 -0.61,-1.148 -1.09,-1.508 -0.477,-0.359 -1.059,-0.542 -1.758,-0.542 -0.719,0 -1.316,0.187 -1.801,0.562 -0.48,0.375 -0.843,0.887 -1.086,1.543 -0.242,0.648 -0.367,1.383 -0.367,2.211 0,0.836 0.125,1.57 0.367,2.203 0.25,0.621 0.618,1.109 1.098,1.461 0.488,0.344 1.082,0.516 1.789,0.516 z" /><path
         id="path20"
         style="fill:#006b36;fill-opacity:1;fill-rule:nonzero;stroke:none"
         d="m 56.313,69.313 c -0.868,0 -1.649,-0.153 -2.344,-0.461 C 53.277,68.535 52.73,68.07 52.328,67.461 51.93,66.848 51.73,66.094 51.73,65.195 c 0,-0.773 0.141,-1.41 0.426,-1.918 0.285,-0.504 0.676,-0.91 1.168,-1.211 0.496,-0.304 1.051,-0.531 1.668,-0.687 0.625,-0.16 1.27,-0.277 1.934,-0.348 0.804,-0.082 1.453,-0.156 1.953,-0.222 0.5,-0.071 0.863,-0.18 1.09,-0.321 0.23,-0.148 0.347,-0.379 0.347,-0.687 v -0.055 c 0,-0.668 -0.199,-1.191 -0.597,-1.558 -0.399,-0.368 -0.973,-0.551 -1.723,-0.551 -0.789,0 -1.418,0.172 -1.879,0.515 -0.457,0.344 -0.769,0.75 -0.929,1.223 l -3.012,-0.43 c 0.238,-0.832 0.629,-1.527 1.176,-2.086 0.546,-0.566 1.214,-0.988 2.007,-1.265 0.789,-0.285 1.664,-0.43 2.621,-0.43 0.661,0 1.317,0.078 1.969,0.234 0.656,0.153 1.25,0.411 1.793,0.766 0.539,0.352 0.973,0.828 1.301,1.434 0.332,0.609 0.5,1.367 0.5,2.273 v 9.168 h -3.102 v -1.883 h -0.109 c -0.195,0.383 -0.473,0.739 -0.828,1.071 -0.352,0.328 -0.793,0.589 -1.328,0.793 -0.528,0.195 -1.149,0.293 -1.863,0.293 z m 0.839,-2.372 c 0.645,0 1.207,-0.125 1.684,-0.382 0.477,-0.262 0.84,-0.606 1.098,-1.036 0.261,-0.425 0.39,-0.894 0.39,-1.398 v -1.613 c -0.101,0.082 -0.273,0.16 -0.515,0.23 -0.239,0.074 -0.508,0.137 -0.805,0.188 -0.297,0.054 -0.59,0.101 -0.883,0.144 -0.289,0.039 -0.543,0.078 -0.758,0.106 -0.48,0.066 -0.91,0.172 -1.293,0.32 -0.379,0.148 -0.679,0.359 -0.898,0.625 -0.219,0.262 -0.332,0.602 -0.332,1.016 0,0.593 0.219,1.043 0.652,1.347 0.434,0.305 0.988,0.453 1.66,0.453 z" /><path
         id="path22"
         style="fill:#006b36;fill-opacity:1;fill-rule:nonzero;stroke:none"
         d="m 69.262,61.016 v 8.023 H 66.035 V 55.344 h 3.086 v 2.328 h 0.16 c 0.313,-0.77 0.817,-1.379 1.504,-1.828 0.699,-0.453 1.555,-0.68 2.578,-0.68 0.946,0 1.77,0.203 2.469,0.609 0.707,0.403 1.254,0.989 1.641,1.754 0.394,0.766 0.586,1.7 0.582,2.793 v 8.719 h -3.231 v -8.223 c 0,-0.914 -0.238,-1.628 -0.711,-2.148 -0.472,-0.516 -1.121,-0.773 -1.953,-0.773 -0.566,0 -1.066,0.125 -1.508,0.375 -0.433,0.242 -0.773,0.597 -1.023,1.058 -0.246,0.465 -0.367,1.027 -0.367,1.688 z" /><path
         id="path24"
         style="fill:#006b36;fill-opacity:1;fill-rule:nonzero;stroke:none"
         d="M 80.582,69.039 V 55.344 h 3.227 v 13.695 z m 1.621,-15.641 c -0.512,0 -0.949,-0.168 -1.32,-0.507 -0.367,-0.344 -0.551,-0.758 -0.551,-1.239 0,-0.488 0.184,-0.898 0.551,-1.238 0.371,-0.344 0.808,-0.519 1.32,-0.519 0.516,0 0.957,0.175 1.32,0.519 0.368,0.34 0.551,0.75 0.551,1.238 0,0.481 -0.183,0.895 -0.551,1.239 -0.363,0.339 -0.804,0.507 -1.32,0.507 z" /><path
         id="path26"
         style="fill:#006b36;fill-opacity:1;fill-rule:nonzero;stroke:none"
         d="m 92.348,69.305 c -1.368,0 -2.543,-0.301 -3.524,-0.899 -0.972,-0.601 -1.726,-1.429 -2.254,-2.488 -0.523,-1.063 -0.785,-2.289 -0.785,-3.672 0,-1.394 0.266,-2.621 0.801,-3.683 0.535,-1.071 1.293,-1.903 2.266,-2.497 0.98,-0.601 2.14,-0.902 3.476,-0.902 1.113,0 2.098,0.207 2.953,0.617 0.86,0.403 1.547,0.977 2.059,1.719 0.512,0.738 0.801,1.602 0.875,2.586 h -3.086 c -0.125,-0.66 -0.422,-1.207 -0.891,-1.648 -0.465,-0.446 -1.086,-0.668 -1.863,-0.668 -0.66,0 -1.242,0.175 -1.738,0.535 -0.5,0.351 -0.891,0.855 -1.168,1.515 -0.274,0.66 -0.41,1.45 -0.41,2.371 0,0.934 0.136,1.735 0.41,2.407 0.273,0.664 0.656,1.179 1.148,1.543 0.5,0.355 1.086,0.535 1.758,0.535 0.473,0 0.898,-0.09 1.273,-0.27 0.379,-0.183 0.7,-0.445 0.954,-0.793 0.257,-0.343 0.433,-0.761 0.527,-1.258 h 3.086 c -0.078,0.969 -0.363,1.829 -0.856,2.579 -0.496,0.742 -1.168,1.324 -2.015,1.746 -0.852,0.418 -1.852,0.625 -2.996,0.625 z" /><path
         id="path28"
         style="fill:#006b36;fill-opacity:1;fill-rule:evenodd;stroke:none"
         d="m 70.52,22.973 c 0,11.023 -13.547,22.871 -16.106,25.011 -0.242,0.2 -0.586,0.2 -0.824,-0.004 -1.629,-1.39 -7.738,-6.808 -11.945,-13.339 -4.219,1.332 -7.207,1.515 -7.942,0.242 -1.234,-2.137 4.258,-7.699 12.785,-13.285 6.254,2.05 10.098,-2.524 12.766,-5.7 0.797,-0.949 1.488,-1.773 2.109,-2.257 0.242,-0.188 0.246,-0.657 -0.031,-0.782 -8.094,-3.652 -15.461,-1.246 -16.258,5.403 -0.031,0.273 0.27,0.449 0.5,0.301 3.114,-1.985 6.684,-3.45 9.375,-4.141 0.379,-0.098 0.469,0.281 0.102,0.426 -2.547,1 -5.098,2.375 -7.383,3.797 -0.012,0 -0.023,0 -0.035,0.007 -3.969,2.36 -7.363,4.813 -9.879,7.063 -0.176,-0.918 -0.274,-1.832 -0.274,-2.742 0,-9.387 7.395,-17 16.52,-17 4.918,0 9.332,2.211 12.355,5.718 4.223,-1.332 7.208,-1.519 7.942,-0.246 0.988,1.715 -2.34,5.625 -8.086,9.985 -1.383,1.093 -3.02,2.254 -4.859,3.425 -6.161,-1.921 -9.961,2.598 -12.606,5.747 -0.797,0.953 -1.492,1.777 -2.113,2.261 -0.238,0.188 -0.242,0.657 0.035,0.782 8.094,3.648 15.461,1.246 16.258,-5.407 0.031,-0.273 -0.27,-0.445 -0.5,-0.3 -3.113,1.988 -6.684,3.453 -9.375,4.144 -0.379,0.098 -0.469,-0.285 -0.102,-0.43 2.551,-1 5.106,-2.375 7.391,-3.8 0.008,0 0.019,-0.004 0.027,-0.008 4.035,-2.399 7.477,-4.895 10,-7.176 0.102,0.754 0.153,1.523 0.153,2.305 z m -1.274,-6.551 c 1.332,-1.367 1.945,-2.426 1.617,-2.996 -0.32,-0.551 -1.496,-0.563 -3.277,-0.125 0.656,0.972 1.211,2.015 1.66,3.121 z m -30.262,13.25 c -1.492,1.48 -2.195,2.629 -1.847,3.23 0.332,0.575 1.59,0.567 3.492,0.071 -0.621,-1.082 -1.176,-2.184 -1.645,-3.301 z" /><path
         id="path30"
         style="fill:#006b36;fill-opacity:1;fill-rule:nonzero;stroke:none"
         d="m 23.211,78.633 h 4.051 l 5.418,13.23 h 0.215 l 5.421,-13.23 h 4.047 V 96.891 H 39.188 V 84.348 H 39.02 L 33.973,96.84 H 31.602 L 26.555,84.32 h -0.168 v 12.571 h -3.176 z" /><path
         id="path32"
         style="fill:#006b36;fill-opacity:1;fill-rule:nonzero;stroke:none"
         d="m 49.008,97.168 c -0.867,0 -1.649,-0.152 -2.344,-0.465 -0.687,-0.312 -1.234,-0.777 -1.641,-1.39 -0.398,-0.61 -0.597,-1.368 -0.597,-2.262 0,-0.774 0.144,-1.414 0.429,-1.918 0.286,-0.504 0.672,-0.91 1.168,-1.211 0.493,-0.305 1.047,-0.535 1.668,-0.688 0.622,-0.16 1.266,-0.277 1.934,-0.347 0.801,-0.082 1.453,-0.157 1.953,-0.223 0.5,-0.07 0.86,-0.18 1.086,-0.32 0.231,-0.149 0.348,-0.379 0.348,-0.688 v -0.054 c 0,-0.672 -0.199,-1.192 -0.598,-1.559 -0.398,-0.371 -0.973,-0.555 -1.719,-0.555 -0.793,0 -1.418,0.172 -1.882,0.52 -0.458,0.344 -0.766,0.75 -0.926,1.219 l -3.016,-0.426 c 0.238,-0.832 0.633,-1.528 1.18,-2.086 0.543,-0.567 1.215,-0.988 2.004,-1.266 0.793,-0.285 1.664,-0.429 2.621,-0.429 0.66,0 1.316,0.078 1.972,0.23 0.653,0.156 1.25,0.41 1.79,0.77 0.542,0.347 0.976,0.828 1.3,1.433 0.336,0.606 0.5,1.363 0.5,2.274 v 9.164 h -3.101 v -1.879 h -0.106 c -0.195,0.379 -0.472,0.734 -0.832,1.07 -0.347,0.324 -0.793,0.59 -1.328,0.793 -0.527,0.195 -1.148,0.293 -1.863,0.293 z m 0.84,-2.371 c 0.648,0 1.211,-0.129 1.683,-0.383 0.477,-0.262 0.844,-0.605 1.098,-1.035 0.262,-0.426 0.391,-0.895 0.391,-1.399 v -1.613 c -0.102,0.082 -0.274,0.16 -0.516,0.231 -0.238,0.07 -0.504,0.132 -0.801,0.187 -0.301,0.055 -0.594,0.102 -0.883,0.145 -0.293,0.039 -0.547,0.074 -0.757,0.105 -0.485,0.067 -0.915,0.172 -1.293,0.32 -0.383,0.149 -0.68,0.356 -0.903,0.625 -0.219,0.262 -0.328,0.602 -0.328,1.016 0,0.594 0.215,1.043 0.649,1.348 0.433,0.301 0.988,0.453 1.66,0.453 z" /><path
         id="path34"
         style="fill:#006b36;fill-opacity:1;fill-rule:nonzero;stroke:none"
         d="M 58.73,102.027 V 83.199 h 3.176 v 2.262 h 0.188 c 0.164,-0.332 0.402,-0.684 0.703,-1.059 0.305,-0.382 0.715,-0.703 1.23,-0.972 0.516,-0.274 1.176,-0.41 1.981,-0.41 1.055,0 2.012,0.269 2.859,0.812 0.86,0.535 1.535,1.328 2.035,2.379 0.504,1.047 0.758,2.332 0.758,3.852 0,1.503 -0.246,2.781 -0.742,3.835 -0.492,1.051 -1.164,1.852 -2.016,2.407 -0.847,0.55 -1.808,0.828 -2.886,0.828 -0.786,0 -1.434,-0.129 -1.953,-0.391 -0.516,-0.262 -0.934,-0.578 -1.247,-0.945 -0.312,-0.375 -0.55,-0.731 -0.722,-1.063 h -0.137 v 7.293 z m 3.168,-11.98 c 0,0.883 0.122,1.66 0.372,2.324 0.257,0.668 0.625,1.188 1.097,1.563 0.481,0.367 1.063,0.55 1.75,0.55 0.711,0 1.309,-0.191 1.789,-0.57 0.481,-0.387 0.844,-0.91 1.09,-1.578 0.25,-0.672 0.375,-1.434 0.375,-2.289 0,-0.852 -0.125,-1.606 -0.367,-2.266 -0.242,-0.66 -0.606,-1.176 -1.09,-1.551 -0.48,-0.375 -1.078,-0.562 -1.797,-0.562 -0.691,0 -1.277,0.18 -1.758,0.543 -0.484,0.363 -0.847,0.871 -1.097,1.523 -0.242,0.657 -0.364,1.426 -0.364,2.313 z" /><path
         id="path36"
         style="fill:#006b36;fill-opacity:1;fill-rule:nonzero;stroke:none"
         d="m 84.492,86.816 -2.941,0.325 c -0.082,-0.301 -0.231,-0.578 -0.438,-0.84 -0.203,-0.262 -0.472,-0.473 -0.82,-0.633 -0.344,-0.16 -0.766,-0.242 -1.266,-0.242 -0.672,0 -1.234,0.148 -1.695,0.437 -0.449,0.293 -0.672,0.668 -0.668,1.133 -0.004,0.399 0.141,0.723 0.438,0.973 0.304,0.25 0.804,0.453 1.496,0.613 l 2.336,0.5 c 1.296,0.281 2.261,0.723 2.89,1.328 0.637,0.606 0.957,1.399 0.965,2.383 -0.008,0.859 -0.262,1.621 -0.758,2.281 -0.496,0.653 -1.183,1.164 -2.062,1.531 -0.879,0.372 -1.891,0.555 -3.031,0.555 -1.676,0 -3.024,-0.351 -4.047,-1.051 -1.024,-0.711 -1.629,-1.691 -1.828,-2.953 l 3.148,-0.301 c 0.141,0.618 0.445,1.083 0.91,1.399 0.461,0.312 1.067,0.473 1.809,0.473 0.765,0 1.383,-0.161 1.843,-0.473 0.473,-0.316 0.707,-0.703 0.707,-1.168 0,-0.395 -0.152,-0.719 -0.457,-0.973 -0.296,-0.254 -0.757,-0.453 -1.39,-0.59 L 77.297,91.035 C 75.984,90.762 75.012,90.301 74.383,89.652 73.754,89 73.441,88.172 73.445,87.176 c -0.004,-0.844 0.227,-1.578 0.688,-2.196 0.469,-0.625 1.121,-1.105 1.953,-1.445 0.836,-0.344 1.805,-0.515 2.898,-0.515 1.606,0 2.868,0.343 3.789,1.027 0.926,0.683 1.5,1.605 1.719,2.769 z" /></g></g></svg>