<?xml version="1.0" encoding="UTF-8" standalone="no"?>
<!-- Created with Inkscape (http://www.inkscape.org/) -->

<svg
   version="1.1"
   id="svg1"
   width="288"
   height="288"
   viewBox="0 0 288 288"
   sodipodi:docname="sticker-invert-3x3-circle.pdf"
   inkscape:version="1.3 (0e150ed6c4, 2023-07-21)"
   xmlns:inkscape="http://www.inkscape.org/namespaces/inkscape"
   xmlns:sodipodi="http://sodipodi.sourceforge.net/DTD/sodipodi-0.dtd"
   xmlns="http://www.w3.org/2000/svg"
   xmlns:svg="http://www.w3.org/2000/svg">
  <defs
     id="defs1" />
  <sodipodi:namedview
     id="namedview1"
     pagecolor="#ffffff"
     bordercolor="#000000"
     borderopacity="0.25"
     inkscape:showpageshadow="2"
     inkscape:pageopacity="0.0"
     inkscape:pagecheckerboard="0"
     inkscape:deskcolor="#d1d1d1"
     inkscape:zoom="4.0729167"
     inkscape:cx="144"
     inkscape:cy="144"
     inkscape:window-width="1375"
     inkscape:window-height="1237"
     inkscape:window-x="1066"
     inkscape:window-y="85"
     inkscape:window-maximized="0"
     inkscape:current-layer="g1">
    <inkscape:page
       x="0"
       y="0"
       inkscape:label="1"
       id="page1"
       width="288"
       height="288"
       margin="0"
       bleed="0" />
  </sodipodi:namedview>
  <g
     id="g1"
     inkscape:groupmode="layer"
     inkscape:label="1">
    <path
       id="path1"
       d="M 0.039,0.039 H 215.961 V 215.961 H 0.039 Z"
       style="fill:#006c35;fill-opacity:1;fill-rule:nonzero;stroke:none"
       transform="scale(1.3333333)" />
    <path
       id="path2"
       d="m 56.102,114.414 c 0,3.684 -0.692,6.84 -2.071,9.465 -1.367,2.617 -3.238,4.621 -5.609,6.012 -2.359,1.39 -5.035,2.086 -8.027,2.086 -2.997,0 -5.676,-0.696 -8.047,-2.086 -2.36,-1.403 -4.231,-3.411 -5.61,-6.028 -1.371,-2.625 -2.054,-5.773 -2.054,-9.449 0,-3.684 0.683,-6.832 2.054,-9.445 1.379,-2.629 3.25,-4.637 5.61,-6.028 2.371,-1.39 5.05,-2.086 8.047,-2.086 2.992,0 5.668,0.696 8.027,2.086 2.371,1.391 4.242,3.399 5.609,6.028 1.379,2.613 2.071,5.761 2.071,9.445 z m -6.227,0 c 0,-2.59 -0.406,-4.777 -1.219,-6.559 -0.801,-1.792 -1.914,-3.144 -3.34,-4.058 -1.421,-0.922 -3.066,-1.383 -4.921,-1.383 -1.86,0 -3.5,0.461 -4.926,1.383 -1.426,0.914 -2.543,2.266 -3.356,4.058 -0.8,1.782 -1.203,3.969 -1.203,6.559 0,2.594 0.403,4.785 1.203,6.578 0.813,1.781 1.93,3.133 3.356,4.059 1.426,0.91 3.066,1.367 4.926,1.367 1.855,0 3.5,-0.457 4.921,-1.367 1.426,-0.926 2.539,-2.278 3.34,-4.059 0.813,-1.793 1.219,-3.984 1.219,-6.578 z"
       style="fill:#ffffff;fill-opacity:1;fill-rule:nonzero;stroke:none"
       transform="scale(1.3333333)" />
    <path
       id="path3"
       d="m 60.281,131.508 v -25.641 h 5.856 v 4.274 h 0.269 c 0.469,-1.481 1.27,-2.621 2.403,-3.422 1.148,-0.813 2.453,-1.219 3.925,-1.219 0.332,0 0.704,0.02 1.118,0.051 0.421,0.023 0.773,0.062 1.05,0.117 v 5.559 c -0.254,-0.09 -0.66,-0.168 -1.218,-0.235 -0.547,-0.078 -1.075,-0.117 -1.586,-0.117 -1.102,0 -2.094,0.242 -2.973,0.719 -0.867,0.469 -1.551,1.121 -2.051,1.953 -0.5,0.836 -0.754,1.797 -0.754,2.887 v 15.074 z"
       style="fill:#ffffff;fill-opacity:1;fill-rule:nonzero;stroke:none"
       transform="scale(1.3333333)" />
    <path
       id="path4"
       d="m 87.602,141.66 c -2.168,0 -4.036,-0.297 -5.59,-0.887 -1.559,-0.578 -2.813,-1.355 -3.758,-2.335 -0.945,-0.981 -1.602,-2.067 -1.969,-3.254 l 5.442,-1.321 c 0.246,0.5 0.601,0.996 1.066,1.485 0.469,0.504 1.098,0.914 1.887,1.238 0.8,0.332 1.808,0.5 3.023,0.5 1.715,0 3.133,-0.418 4.258,-1.254 1.121,-0.824 1.684,-2.18 1.684,-4.07 v -4.86 h -0.301 c -0.313,0.625 -0.766,1.262 -1.367,1.918 -0.59,0.657 -1.375,1.207 -2.356,1.653 -0.969,0.445 -2.187,0.668 -3.656,0.668 -1.969,0 -3.754,-0.461 -5.356,-1.383 -1.593,-0.938 -2.863,-2.328 -3.808,-4.176 -0.934,-1.855 -1.403,-4.184 -1.403,-6.977 0,-2.816 0.469,-5.191 1.403,-7.128 0.945,-1.946 2.222,-3.422 3.824,-4.422 1.602,-1.012 3.387,-1.52 5.359,-1.52 1.5,0 2.739,0.254 3.704,0.766 0.98,0.504 1.757,1.109 2.339,1.82 0.578,0.703 1.016,1.363 1.317,1.988 h 0.336 v -4.242 h 5.957 v 26.059 c 0,2.191 -0.524,4.008 -1.567,5.441 -1.047,1.438 -2.476,2.512 -4.293,3.223 -1.812,0.715 -3.871,1.07 -6.175,1.07 z m 0.05,-15.258 c 1.282,0 2.371,-0.312 3.274,-0.937 0.898,-0.621 1.586,-1.516 2.051,-2.688 0.468,-1.168 0.703,-2.57 0.703,-4.207 0,-1.613 -0.235,-3.023 -0.703,-4.238 -0.457,-1.215 -1.133,-2.152 -2.036,-2.82 -0.89,-0.68 -1.988,-1.02 -3.289,-1.02 -1.347,0 -2.468,0.352 -3.371,1.051 -0.902,0.703 -1.582,1.664 -2.039,2.891 -0.453,1.211 -0.683,2.589 -0.683,4.136 0,1.571 0.23,2.946 0.683,4.125 0.469,1.168 1.153,2.082 2.055,2.739 0.914,0.644 2.031,0.968 3.355,0.968 z"
       style="fill:#ffffff;fill-opacity:1;fill-rule:nonzero;stroke:none"
       transform="scale(1.3333333)" />
    <path
       id="path5"
       d="m 111.801,132.027 c -1.625,0 -3.09,-0.289 -4.391,-0.867 -1.293,-0.59 -2.316,-1.461 -3.074,-2.605 -0.742,-1.145 -1.117,-2.559 -1.117,-4.239 0,-1.449 0.265,-2.644 0.801,-3.589 0.535,-0.946 1.265,-1.704 2.187,-2.27 0.926,-0.57 1.965,-0.996 3.121,-1.285 1.168,-0.301 2.375,-0.52 3.625,-0.652 1.5,-0.157 2.719,-0.297 3.652,-0.418 0.938,-0.133 1.618,-0.332 2.04,-0.602 0.433,-0.277 0.648,-0.707 0.648,-1.285 v -0.102 c 0,-1.254 -0.371,-2.23 -1.117,-2.918 -0.746,-0.691 -1.821,-1.035 -3.223,-1.035 -1.48,0 -2.652,0.32 -3.519,0.969 -0.86,0.644 -1.438,1.406 -1.739,2.285 l -5.64,-0.801 c 0.445,-1.558 1.179,-2.859 2.203,-3.906 1.023,-1.059 2.273,-1.848 3.754,-2.371 1.48,-0.535 3.117,-0.801 4.91,-0.801 1.234,0 2.465,0.145 3.687,0.434 1.227,0.289 2.344,0.769 3.356,1.437 1.012,0.657 1.824,1.551 2.437,2.688 0.625,1.133 0.934,2.551 0.934,4.254 v 17.16 h -5.809 v -3.52 h -0.199 c -0.367,0.711 -0.887,1.379 -1.551,2.004 -0.66,0.61 -1.488,1.106 -2.488,1.485 -0.992,0.367 -2.152,0.55 -3.488,0.55 z m 1.566,-4.441 c 1.215,0 2.266,-0.238 3.156,-0.719 0.891,-0.488 1.575,-1.133 2.055,-1.933 0.488,-0.801 0.735,-1.676 0.735,-2.621 v -3.024 c -0.192,0.156 -0.512,0.301 -0.969,0.434 -0.446,0.136 -0.946,0.25 -1.504,0.351 -0.555,0.102 -1.106,0.192 -1.652,0.266 -0.543,0.078 -1.02,0.144 -1.418,0.203 -0.903,0.121 -1.707,0.32 -2.422,0.602 -0.711,0.277 -1.274,0.668 -1.684,1.168 -0.414,0.488 -0.617,1.121 -0.617,1.902 0,1.113 0.406,1.953 1.219,2.519 0.808,0.571 1.843,0.852 3.101,0.852 z"
       style="fill:#ffffff;fill-opacity:1;fill-rule:nonzero;stroke:none"
       transform="scale(1.3333333)" />
    <path
       id="path6"
       d="m 136.047,116.484 v 15.024 h -6.043 v -25.641 h 5.777 v 4.36 h 0.297 c 0.59,-1.438 1.531,-2.579 2.824,-3.422 1.301,-0.848 2.911,-1.27 4.825,-1.27 1.769,0 3.308,0.379 4.621,1.133 1.324,0.758 2.351,1.855 3.074,3.289 0.734,1.438 1.094,3.18 1.086,5.227 v 16.324 h -6.043 v -15.391 c 0,-1.711 -0.445,-3.054 -1.336,-4.023 -0.883,-0.965 -2.098,-1.449 -3.656,-1.449 -1.059,0 -2,0.23 -2.821,0.699 -0.812,0.457 -1.453,1.117 -1.922,1.988 -0.457,0.867 -0.683,1.918 -0.683,3.152 z"
       style="fill:#ffffff;fill-opacity:1;fill-rule:nonzero;stroke:none"
       transform="scale(1.3333333)" />
    <path
       id="path7"
       d="m 157.238,131.508 v -25.641 h 6.043 v 25.641 z m 3.039,-29.278 c -0.957,0 -1.781,-0.316 -2.472,-0.953 -0.688,-0.644 -1.032,-1.418 -1.032,-2.32 0,-0.91 0.344,-1.684 1.032,-2.32 0.691,-0.645 1.515,-0.969 2.472,-0.969 0.969,0 1.793,0.324 2.469,0.969 0.692,0.636 1.039,1.41 1.039,2.32 0,0.902 -0.347,1.676 -1.039,2.32 -0.676,0.637 -1.5,0.953 -2.469,0.953 z"
       style="fill:#ffffff;fill-opacity:1;fill-rule:nonzero;stroke:none"
       transform="scale(1.3333333)" />
    <path
       id="path8"
       d="m 179.27,132.012 c -2.559,0 -4.758,-0.563 -6.594,-1.688 -1.824,-1.125 -3.231,-2.676 -4.223,-4.656 -0.98,-1.992 -1.469,-4.285 -1.469,-6.879 0,-2.605 0.5,-4.902 1.504,-6.894 1,-2.004 2.414,-3.563 4.239,-4.672 1.836,-1.125 4.003,-1.688 6.511,-1.688 2.082,0 3.922,0.383 5.524,1.153 1.613,0.757 2.898,1.828 3.855,3.222 0.957,1.379 1.504,2.992 1.637,4.84 h -5.777 c -0.231,-1.234 -0.789,-2.266 -1.668,-3.09 -0.868,-0.832 -2.032,-1.25 -3.489,-1.25 -1.234,0 -2.32,0.332 -3.254,1 -0.937,0.656 -1.664,1.602 -2.187,2.84 -0.512,1.234 -0.77,2.715 -0.77,4.438 0,1.75 0.258,3.25 0.77,4.507 0.512,1.246 1.23,2.211 2.152,2.891 0.938,0.664 2.032,1 3.289,1 0.891,0 1.688,-0.168 2.387,-0.5 0.711,-0.348 1.309,-0.84 1.785,-1.488 0.481,-0.645 0.809,-1.43 0.985,-2.352 h 5.777 c -0.145,1.813 -0.68,3.422 -1.602,4.824 -0.922,1.391 -2.179,2.481 -3.773,3.27 -1.59,0.781 -3.461,1.172 -5.609,1.172 z"
       style="fill:#ffffff;fill-opacity:1;fill-rule:nonzero;stroke:none"
       transform="scale(1.3333333)" />
    <path
       id="path9"
       d="m 138.93,45.262 c 0,20.633 -25.364,42.82 -30.157,46.824 -0.449,0.379 -1.097,0.375 -1.543,-0.008 C 104.184,89.48 92.746,79.336 84.863,67.102 76.965,69.594 71.375,69.945 69.996,67.559 67.684,63.555 77.969,53.141 93.934,42.68 c 11.711,3.84 18.906,-4.723 23.902,-10.668 1.492,-1.778 2.793,-3.324 3.953,-4.231 0.449,-0.351 0.457,-1.226 -0.059,-1.461 -15.156,-6.836 -28.953,-2.332 -30.441,10.121 -0.062,0.508 0.504,0.836 0.938,0.559 5.824,-3.719 12.507,-6.461 17.55,-7.754 0.711,-0.183 0.875,0.527 0.192,0.797 -4.77,1.875 -9.547,4.445 -13.821,7.105 -0.027,0 -0.05,0.008 -0.07,0.02 C 88.645,41.59 82.289,46.18 77.582,50.395 77.25,48.672 77.07,46.957 77.07,45.262 77.07,27.68 90.918,13.426 108,13.426 c 9.203,0 17.469,4.14 23.137,10.707 7.902,-2.492 13.488,-2.844 14.867,-0.457 1.851,3.207 -4.379,10.527 -15.137,18.691 -2.59,2.047 -5.66,4.219 -9.101,6.414 -11.536,-3.601 -18.649,4.867 -23.602,10.762 -1.496,1.781 -2.793,3.324 -3.957,4.23 -0.445,0.352 -0.457,1.231 0.063,1.465 15.156,6.832 28.953,2.332 30.441,-10.121 0.059,-0.512 -0.504,-0.836 -0.938,-0.562 -5.824,3.718 -12.511,6.465 -17.55,7.758 -0.711,0.183 -0.875,-0.532 -0.192,-0.801 4.778,-1.875 9.559,-4.453 13.84,-7.117 0.016,0 0.035,-0.008 0.051,-0.016 7.555,-4.496 14,-9.164 18.726,-13.434 0.184,1.41 0.282,2.852 0.282,4.317 z m -2.379,-12.27 c 2.492,-2.562 3.64,-4.547 3.027,-5.605 -0.601,-1.039 -2.805,-1.063 -6.14,-0.239 1.226,1.817 2.273,3.774 3.113,5.844 z M 79.887,57.805 c -2.793,2.769 -4.11,4.922 -3.465,6.043 0.625,1.078 2.98,1.058 6.543,0.136 -1.16,-2.027 -2.203,-4.093 -3.078,-6.179 z"
       style="fill:#ffffff;fill-opacity:1;fill-rule:evenodd;stroke:none"
       transform="scale(1.3333333)" />
    <path
       id="path10"
       d="m 53.352,149.477 h 7.582 l 10.148,24.773 h 0.398 l 10.153,-24.773 h 7.578 v 34.187 H 83.27 V 160.176 H 82.949 L 73.5,183.563 h -4.437 l -9.45,-23.438 h -0.316 v 23.539 h -5.945 z"
       style="fill:#ffffff;fill-opacity:1;fill-rule:nonzero;stroke:none"
       transform="scale(1.3333333)" />
    <path
       id="path11"
       d="m 101.656,184.18 c -1.625,0 -3.09,-0.289 -4.39,-0.867 -1.293,-0.59 -2.317,-1.458 -3.071,-2.602 -0.746,-1.148 -1.121,-2.563 -1.121,-4.242 0,-1.446 0.266,-2.645 0.801,-3.59 0.535,-0.945 1.266,-1.703 2.188,-2.27 0.921,-0.566 1.964,-0.996 3.121,-1.285 1.168,-0.301 2.379,-0.515 3.625,-0.652 1.5,-0.156 2.718,-0.293 3.652,-0.418 0.937,-0.133 1.617,-0.332 2.039,-0.598 0.434,-0.281 0.652,-0.707 0.652,-1.285 v -0.101 c 0,-1.258 -0.375,-2.231 -1.121,-2.922 -0.746,-0.692 -1.82,-1.035 -3.218,-1.035 -1.481,0 -2.657,0.324 -3.524,0.968 -0.855,0.645 -1.437,1.407 -1.738,2.285 l -5.641,-0.8 c 0.445,-1.559 1.18,-2.86 2.203,-3.907 1.024,-1.054 2.278,-1.847 3.758,-2.367 1.477,-0.535 3.113,-0.804 4.906,-0.804 1.235,0 2.465,0.144 3.688,0.437 1.226,0.289 2.344,0.766 3.355,1.434 1.012,0.656 1.825,1.55 2.438,2.687 0.625,1.137 0.937,2.555 0.937,4.258 v 17.16 h -5.812 v -3.523 h -0.199 c -0.368,0.714 -0.887,1.379 -1.551,2.004 -0.66,0.613 -1.488,1.105 -2.488,1.484 -0.993,0.367 -2.153,0.551 -3.489,0.551 z m 1.567,-4.438 c 1.215,0 2.265,-0.242 3.156,-0.719 0.891,-0.488 1.574,-1.136 2.055,-1.937 0.488,-0.801 0.734,-1.676 0.734,-2.621 v -3.02 c -0.191,0.157 -0.512,0.301 -0.969,0.434 -0.445,0.133 -0.945,0.25 -1.504,0.351 -0.554,0.098 -1.105,0.188 -1.652,0.266 -0.543,0.078 -1.016,0.145 -1.418,0.199 -0.902,0.125 -1.711,0.325 -2.418,0.602 -0.715,0.277 -1.277,0.668 -1.687,1.168 -0.411,0.492 -0.622,1.125 -0.622,1.902 0,1.113 0.411,1.953 1.223,2.524 0.809,0.566 1.848,0.851 3.102,0.851 z"
       style="fill:#ffffff;fill-opacity:1;fill-rule:nonzero;stroke:none"
       transform="scale(1.3333333)" />
    <path
       id="path12"
       d="m 119.859,193.277 v -35.254 h 5.942 v 4.239 h 0.351 c 0.313,-0.621 0.754,-1.285 1.321,-1.985 0.566,-0.714 1.336,-1.32 2.304,-1.82 0.965,-0.512 2.203,-0.769 3.703,-0.769 1.981,0 3.766,0.507 5.36,1.519 1.601,1.004 2.871,2.488 3.805,4.457 0.945,1.961 1.418,4.363 1.418,7.211 0,2.816 -0.461,5.211 -1.383,7.18 -0.926,1.968 -2.18,3.472 -3.774,4.508 -1.59,1.035 -3.394,1.55 -5.406,1.55 -1.473,0 -2.691,-0.242 -3.66,-0.734 -0.965,-0.488 -1.746,-1.078 -2.336,-1.77 -0.578,-0.699 -1.027,-1.363 -1.352,-1.984 h -0.25 v 13.652 z m 5.926,-22.433 c 0,1.656 0.235,3.109 0.699,4.355 0.481,1.246 1.168,2.223 2.055,2.922 0.902,0.692 1.992,1.035 3.274,1.035 1.335,0 2.453,-0.355 3.355,-1.066 0.898,-0.727 1.578,-1.711 2.035,-2.957 0.469,-1.258 0.703,-2.688 0.703,-4.289 0,-1.594 -0.23,-3.004 -0.687,-4.242 -0.453,-1.235 -1.133,-2.204 -2.035,-2.903 -0.903,-0.703 -2.024,-1.051 -3.371,-1.051 -1.293,0 -2.387,0.34 -3.29,1.016 -0.902,0.68 -1.585,1.633 -2.054,2.856 -0.453,1.222 -0.684,2.664 -0.684,4.324 z"
       style="fill:#ffffff;fill-opacity:1;fill-rule:nonzero;stroke:none"
       transform="scale(1.3333333)" />
    <path
       id="path13"
       d="m 168.094,164.801 -5.508,0.601 c -0.156,-0.558 -0.43,-1.082 -0.816,-1.57 -0.379,-0.488 -0.891,-0.883 -1.54,-1.184 -0.644,-0.3 -1.433,-0.453 -2.371,-0.453 -1.254,0 -2.312,0.274 -3.168,0.821 -0.847,0.543 -1.265,1.25 -1.253,2.117 -0.012,0.746 0.261,1.351 0.816,1.82 0.57,0.469 1.504,0.852 2.805,1.152 l 4.375,0.934 c 2.425,0.524 4.23,1.356 5.41,2.488 1.187,1.137 1.789,2.621 1.804,4.457 -0.015,1.614 -0.488,3.039 -1.421,4.274 -0.922,1.226 -2.211,2.183 -3.856,2.871 -1.648,0.691 -3.539,1.035 -5.676,1.035 -3.136,0 -5.664,-0.656 -7.578,-1.969 -1.914,-1.324 -3.054,-3.168 -3.422,-5.527 l 5.891,-0.566 c 0.269,1.156 0.836,2.031 1.703,2.621 0.867,0.59 1.996,0.882 3.387,0.882 1.437,0 2.59,-0.292 3.457,-0.882 0.879,-0.59 1.32,-1.321 1.32,-2.188 0,-0.734 -0.285,-1.34 -0.851,-1.82 -0.559,-0.477 -1.426,-0.844 -2.606,-1.102 l -4.375,-0.918 c -2.457,-0.511 -4.277,-1.375 -5.457,-2.586 -1.18,-1.226 -1.762,-2.773 -1.754,-4.64 -0.008,-1.582 0.418,-2.949 1.289,-4.106 0.879,-1.172 2.098,-2.07 3.653,-2.707 1.57,-0.644 3.378,-0.968 5.425,-0.968 3.008,0 5.371,0.64 7.098,1.921 1.734,1.278 2.809,3.012 3.219,5.192 z"
       style="fill:#ffffff;fill-opacity:1;fill-rule:nonzero;stroke:none"
       transform="scale(1.3333333)" />
    <path
       id="path14"
       d="M 216,108.02 C 216,167.656 167.656,216 108.02,216 48.383,216 0.039,167.656 0.039,108.02 0.039,48.383 48.383,0.039 108.02,0.039 167.656,0.039 216,48.383 216,108.02 Z"
       style="fill:none;stroke:#ff0000;stroke-width:1;stroke-linecap:round;stroke-linejoin:miter;stroke-miterlimit:4;stroke-dasharray:none;stroke-opacity:1"
       transform="scale(1.3333333)" />
  </g>
</svg>
